<?xml version="1.0" standalone="yes"?><svg version="1.1" xmlns = 'http://www.w3.org/2000/svg'><defs><font id='web' horiz-adv-x="1000">
<font-face font-family="web" descent="-410" cap-height="1282" units-per-em="2048" bbox="-79,-436,1786,1716" x-height="897" ascent="1638" />
<missing-glyph horiz-adv-x="1024" d="M 0 1434 L 1024 1434 L 1024 0 L 0 0 L 0 1434 Z M 102 102 L 922 102 L 922 1331 L 102 1331 L 102 102 Z" /><glyph horiz-adv-x="424" d="M 14 610 L 410 610 L 410 459 L 14 459 L 14 610 Z" unicode="‐" />
<glyph horiz-adv-x="850" d="M 14 610 L 836 610 L 836 459 L 14 459 L 14 610 Z" unicode="–" />
<glyph horiz-adv-x="1196" d="M 14 610 L 1182 610 L 1182 459 L 14 459 L 14 610 Z" unicode="—" />
<glyph horiz-adv-x="322" d="M 74 1090 C 74 1118 76 1144 80 1168 C 84 1191 92 1211 104 1227 C 116 1243 134 1256 157 1266 C 180 1275 210 1280 248 1282 L 248 1192 C 230 1190 216 1187 206 1183 C 195 1179 187 1173 181 1166 C 175 1158 172 1148 170 1136 C 168 1124 168 1108 168 1090 L 248 1090 L 248 901 L 74 901 L 74 1090 Z" unicode="‘" />
<glyph horiz-adv-x="322" d="M 74 987 C 91 989 105 993 115 997 C 125 1001 133 1007 139 1015 C 145 1023 149 1033 151 1045 C 153 1057 154 1073 154 1092 L 74 1092 L 74 1282 L 248 1282 L 248 1092 C 248 1063 246 1037 242 1014 C 238 991 229 971 217 955 C 205 938 187 925 165 916 C 142 906 112 901 74 901 L 74 987 Z" unicode="’" />
<glyph horiz-adv-x="322" d="M 74 -102 C 91 -100 105 -97 115 -93 C 125 -89 133 -83 139 -75 C 145 -67 149 -58 151 -46 C 153 -34 154 -18 154 0 L 74 0 L 74 193 L 248 193 L 248 0 C 248 -28 246 -54 242 -77 C 238 -100 229 -120 217 -136 C 205 -152 187 -165 165 -175 C 142 -185 112 -191 74 -193 L 74 -102 Z" unicode="‚" />
<glyph horiz-adv-x="575" d="M 74 1092 C 74 1120 76 1146 80 1169 C 84 1192 92 1212 104 1228 C 116 1244 133 1256 156 1266 C 179 1275 210 1280 248 1282 L 248 1194 C 230 1192 216 1189 206 1185 C 195 1181 187 1175 181 1167 C 175 1159 172 1149 170 1137 C 168 1125 168 1110 168 1092 L 248 1092 L 248 901 L 74 901 L 74 1092 Z M 330 1092 C 330 1120 332 1146 336 1169 C 340 1192 348 1212 360 1228 C 372 1244 389 1256 412 1266 C 434 1275 464 1280 502 1282 L 502 1194 C 484 1192 471 1189 461 1185 C 451 1181 443 1175 437 1167 C 431 1159 428 1149 426 1137 C 424 1125 424 1110 424 1092 L 502 1092 L 502 901 L 330 901 L 330 1092 Z" unicode="“" />
<glyph horiz-adv-x="575" d="M 74 987 C 91 989 105 993 115 997 C 125 1001 133 1007 139 1015 C 145 1023 149 1033 151 1045 C 153 1057 154 1073 154 1092 L 74 1092 L 74 1282 L 248 1282 L 248 1092 C 248 1063 246 1037 242 1014 C 238 991 229 971 217 955 C 205 939 187 926 165 917 C 142 907 112 902 74 901 L 74 987 Z M 330 987 C 347 989 361 993 371 997 C 381 1001 389 1007 395 1015 C 400 1023 403 1033 405 1045 C 407 1057 408 1073 408 1092 L 330 1092 L 330 1282 L 502 1282 L 502 1092 C 502 1063 500 1037 496 1014 C 492 991 484 971 472 955 C 460 939 442 926 420 917 C 397 907 367 902 330 901 L 330 987 Z" unicode="”" />
<glyph horiz-adv-x="575" d="M 74 -102 C 91 -100 105 -97 115 -93 C 125 -89 133 -83 139 -75 C 145 -67 149 -58 151 -46 C 153 -34 154 -18 154 0 L 74 0 L 74 193 L 248 193 L 248 0 C 248 -28 246 -54 242 -77 C 238 -100 229 -120 217 -136 C 205 -152 187 -164 165 -174 C 142 -183 112 -188 74 -190 L 74 -102 Z M 330 -102 C 347 -100 361 -97 371 -93 C 381 -89 389 -83 395 -75 C 400 -67 403 -58 405 -46 C 407 -34 408 -18 408 0 L 330 0 L 330 193 L 502 193 L 502 0 C 502 -28 500 -54 496 -77 C 492 -100 484 -120 472 -136 C 460 -152 442 -164 420 -174 C 397 -183 367 -188 330 -190 L 330 -102 Z" unicode="„" />
<glyph horiz-adv-x="188" d="" unicode=" " />
<glyph horiz-adv-x="428" d="M 121 203 L 307 203 L 307 0 L 121 0 L 121 203 Z M 121 1069 L 121 1282 L 307 1282 L 307 1069 L 285 356 L 145 356 L 121 1069 Z" unicode="!" />
<glyph horiz-adv-x="694" d="M 121 1073 L 121 1282 L 299 1282 L 299 1073 L 274 778 L 145 778 L 121 1073 Z M 395 1073 L 395 1282 L 575 1282 L 575 1073 L 551 778 L 420 778 L 395 1073 Z" unicode="&#x22;" />
<glyph horiz-adv-x="862" d="M 176 399 L 59 399 L 59 545 L 188 545 L 207 743 L 59 743 L 59 889 L 219 889 L 254 1282 L 416 1282 L 381 889 L 522 889 L 557 1282 L 719 1282 L 684 889 L 803 889 L 803 743 L 672 743 L 653 545 L 803 545 L 803 399 L 641 399 L 606 0 L 444 0 L 479 399 L 340 399 L 303 0 L 141 0 L 176 399 Z M 494 541 L 514 748 L 367 748 L 348 541 L 494 541 Z" unicode="#" />
<glyph horiz-adv-x="764" d="M 305 2 C 255 8 215 20 183 39 C 151 57 125 81 106 111 C 87 141 74 175 66 215 C 58 255 53 299 51 348 L 231 371 C 234 325 238 287 243 259 C 248 231 256 209 267 193 C 278 177 293 166 312 160 C 331 154 356 152 387 152 C 417 152 441 155 459 163 C 477 170 492 180 503 193 C 513 205 520 220 524 238 C 528 255 530 274 530 295 C 530 321 525 346 517 368 C 509 390 496 412 479 436 C 461 459 439 484 412 511 C 385 538 353 570 317 606 C 278 641 243 674 213 704 C 182 734 156 765 135 795 C 114 825 98 856 87 888 C 75 920 70 957 70 997 C 70 1082 90 1148 130 1194 C 170 1240 228 1268 305 1280 L 305 1481 L 469 1481 L 469 1280 C 507 1274 539 1263 566 1249 C 593 1235 616 1216 634 1192 C 652 1168 665 1140 675 1107 C 684 1074 690 1036 694 993 L 514 973 C 510 1005 506 1032 502 1052 C 497 1072 490 1088 481 1100 C 471 1112 459 1120 444 1124 C 428 1128 409 1130 385 1130 C 358 1130 336 1127 318 1121 C 300 1115 286 1107 276 1096 C 266 1085 258 1072 254 1056 C 250 1040 248 1021 248 1001 C 248 979 251 959 258 941 C 265 923 276 904 291 884 C 306 864 325 843 349 820 C 372 796 400 769 434 737 C 477 694 516 655 550 621 C 584 587 612 553 636 520 C 660 486 678 452 690 416 C 702 380 709 339 709 293 C 709 209 690 143 652 95 C 614 46 553 16 469 4 L 469 -238 L 305 -238 L 305 2 Z" unicode="$" />
<glyph horiz-adv-x="1319" d="M 285 514 C 208 514 150 531 111 567 C 72 603 53 658 53 733 L 53 1077 C 53 1109 57 1138 66 1165 C 75 1191 89 1214 108 1233 C 127 1251 151 1266 180 1276 C 209 1286 244 1292 285 1292 C 325 1292 359 1287 389 1277 C 418 1267 442 1252 461 1234 C 479 1216 493 1194 502 1168 C 511 1142 516 1113 516 1081 L 516 735 C 516 659 496 603 457 567 C 418 531 361 514 285 514 Z M 285 645 C 311 645 333 652 349 666 C 365 680 373 705 373 741 L 373 1073 C 373 1130 343 1159 285 1159 C 226 1159 197 1129 197 1071 L 197 741 C 197 705 204 680 220 666 C 235 652 257 645 285 645 Z M 1034 -8 C 959 -8 902 10 863 46 C 824 82 805 137 805 213 L 805 557 C 805 589 809 618 818 645 C 827 671 841 694 859 713 C 877 731 901 746 930 756 C 959 766 994 772 1034 772 C 1114 772 1173 753 1211 715 C 1249 677 1268 625 1268 561 L 1268 215 C 1268 138 1248 82 1209 46 C 1169 10 1111 -8 1034 -8 Z M 1034 125 C 1062 125 1083 132 1099 146 C 1114 160 1122 185 1122 221 L 1122 553 C 1122 609 1092 637 1034 637 C 976 637 948 607 948 549 L 948 219 C 948 184 955 160 970 146 C 984 132 1006 125 1034 125 Z M 776 1282 L 936 1282 L 543 0 L 381 0 L 776 1282 Z" unicode="%" />
<glyph horiz-adv-x="907" d="M 356 -8 C 296 -8 245 -1 205 11 C 164 23 131 43 106 70 C 81 96 63 130 53 171 C 42 212 37 261 37 317 C 37 354 42 390 53 425 C 64 459 79 493 98 525 C 116 557 138 587 163 617 C 187 647 213 676 240 704 C 217 740 198 771 182 799 C 166 826 154 852 144 876 C 134 900 126 924 122 948 C 117 971 115 996 115 1024 C 115 1064 119 1101 129 1135 C 138 1168 153 1196 174 1219 C 195 1242 222 1260 256 1273 C 290 1285 331 1292 381 1292 C 430 1292 471 1285 503 1272 C 535 1258 561 1240 581 1217 C 600 1194 613 1167 621 1135 C 629 1103 633 1068 633 1032 C 633 996 628 963 618 932 C 608 901 595 871 579 843 C 563 815 543 787 521 761 C 499 734 475 708 449 682 L 619 422 L 653 729 L 803 715 L 766 381 C 760 327 751 279 739 237 L 895 0 L 696 0 L 648 74 C 614 43 574 22 526 10 C 478 -2 421 -8 356 -8 Z M 371 150 C 418 150 456 154 486 163 C 515 172 539 189 557 214 L 323 575 C 289 535 263 494 244 452 C 224 410 215 368 215 326 C 215 298 216 274 219 252 C 222 230 229 212 240 197 C 251 181 267 170 287 162 C 307 154 335 150 371 150 Z M 283 1028 C 283 1012 284 996 287 982 C 289 967 294 951 301 934 C 307 917 316 899 327 879 C 337 859 351 835 367 809 C 401 848 428 885 446 920 C 464 955 473 992 473 1030 C 473 1044 472 1057 470 1071 C 468 1085 465 1097 459 1108 C 453 1119 443 1128 431 1135 C 418 1141 401 1145 379 1145 C 357 1145 339 1141 327 1134 C 314 1127 304 1118 298 1107 C 291 1096 287 1084 285 1070 C 283 1056 283 1042 283 1028 Z" unicode="&#x26;" />
<glyph horiz-adv-x="424" d="M 121 1073 L 121 1282 L 303 1282 L 303 1073 L 279 778 L 145 778 L 121 1073 Z" unicode="'" />
<glyph horiz-adv-x="487" d="M 362 -340 C 312 -304 268 -263 229 -215 C 190 -167 157 -110 130 -45 C 103 20 82 95 68 180 C 54 264 47 361 47 471 C 47 579 53 676 67 761 C 81 846 101 921 128 986 C 154 1051 187 1108 226 1156 C 265 1204 310 1246 362 1282 L 461 1159 C 422 1128 388 1093 358 1053 C 328 1013 304 966 284 912 C 264 858 248 795 238 723 C 228 651 223 567 223 471 C 223 373 227 288 237 217 C 247 146 261 84 281 31 C 301 -21 325 -67 355 -107 C 385 -147 420 -184 461 -219 L 362 -340 Z" unicode="(" />
<glyph horiz-adv-x="487" d="M 27 -219 C 67 -184 101 -147 131 -107 C 161 -67 185 -21 205 31 C 224 84 238 146 248 217 C 257 288 262 373 262 471 C 262 567 257 651 247 723 C 237 795 222 858 202 912 C 182 966 157 1013 128 1053 C 98 1093 65 1128 27 1159 L 125 1282 C 176 1246 221 1204 261 1156 C 300 1108 333 1051 359 986 C 385 921 405 846 419 761 C 433 676 440 579 440 471 C 440 361 433 264 419 180 C 405 95 384 20 357 -45 C 330 -110 297 -167 258 -215 C 219 -263 175 -304 125 -340 L 27 -219 Z" unicode=")" />
<glyph horiz-adv-x="711" d="M 297 848 L 123 717 L 47 831 L 254 952 L 47 1075 L 123 1190 L 297 1059 L 289 1282 L 424 1282 L 418 1059 L 590 1190 L 666 1075 L 459 952 L 666 831 L 590 717 L 418 848 L 424 625 L 289 625 L 297 848 Z" unicode="*" />
<glyph horiz-adv-x="745" d="M 39 713 L 291 713 L 291 1004 L 453 1004 L 453 713 L 707 713 L 707 559 L 453 559 L 453 270 L 291 270 L 291 559 L 39 559 L 39 713 Z" unicode="+" />
<glyph horiz-adv-x="297" d="M 59 -102 C 76 -100 90 -97 101 -93 C 111 -89 119 -83 125 -75 C 131 -67 134 -58 136 -46 C 138 -34 139 -18 139 0 L 59 0 L 59 203 L 238 203 L 238 0 C 238 -29 235 -55 231 -78 C 227 -101 218 -121 206 -137 C 193 -153 175 -166 152 -176 C 128 -185 97 -191 59 -193 L 59 -102 Z" unicode="," />
<glyph horiz-adv-x="424" d="M 14 610 L 410 610 L 410 459 L 14 459 L 14 610 Z" unicode="-" />
<glyph horiz-adv-x="297" d="M 59 203 L 238 203 L 238 0 L 59 0 L 59 203 Z" unicode="." />
<glyph horiz-adv-x="516" d="M 336 1282 L 516 1282 L 180 0 L 0 0 L 336 1282 Z" unicode="/" />
<glyph horiz-adv-x="819" d="M 408 -8 C 296 -8 212 20 157 77 C 101 133 74 226 74 354 L 74 942 C 74 996 80 1045 93 1089 C 105 1132 125 1169 152 1199 C 179 1229 214 1252 256 1268 C 298 1284 348 1292 408 1292 C 468 1292 519 1284 562 1269 C 604 1253 639 1231 666 1202 C 692 1172 712 1136 724 1094 C 736 1051 743 1002 743 948 L 743 356 C 743 291 736 236 722 190 C 708 144 688 106 660 77 C 632 47 598 26 556 12 C 514 -1 464 -8 408 -8 Z M 408 150 C 432 150 454 153 474 159 C 493 165 509 176 523 192 C 536 207 546 227 554 253 C 561 279 565 311 565 350 L 565 946 C 565 1012 552 1060 526 1088 C 500 1116 461 1130 408 1130 C 354 1130 314 1115 290 1087 C 266 1058 254 1010 254 944 L 254 352 C 254 312 256 280 262 254 C 268 228 277 207 290 192 C 302 176 318 165 338 159 C 357 153 380 150 408 150 Z" unicode="0" />
<glyph horiz-adv-x="549" d="M 219 1122 L 45 1122 L 45 1282 L 397 1282 L 397 0 L 219 0 L 219 1122 Z" unicode="1" />
<glyph horiz-adv-x="768" d="M 59 121 C 59 176 66 227 81 273 C 96 319 117 363 143 405 C 169 447 199 488 234 530 C 269 572 306 616 346 662 C 380 700 407 732 429 760 C 450 787 467 812 479 834 C 491 856 500 878 505 900 C 509 921 512 945 512 971 C 512 1001 510 1026 508 1046 C 505 1066 499 1083 490 1096 C 481 1109 468 1118 452 1124 C 435 1130 413 1133 385 1133 C 358 1133 336 1129 319 1122 C 301 1115 287 1104 277 1090 C 266 1075 258 1057 252 1035 C 246 1013 241 988 238 958 L 57 985 C 61 1027 70 1066 83 1104 C 95 1141 114 1173 139 1201 C 164 1229 197 1251 237 1267 C 277 1283 328 1292 389 1292 C 451 1292 502 1284 542 1269 C 581 1254 612 1233 634 1205 C 656 1177 670 1143 678 1103 C 686 1063 690 1019 690 971 C 690 933 686 899 679 867 C 671 835 659 804 643 773 C 627 742 605 710 579 676 C 553 642 521 605 483 565 C 441 517 406 475 378 441 C 350 407 327 375 309 345 C 291 315 277 286 268 258 C 258 229 252 196 250 160 L 688 160 L 688 0 L 59 0 L 59 121 Z" unicode="2" />
<glyph horiz-adv-x="772" d="M 381 -8 C 318 -8 266 0 226 15 C 186 31 153 53 129 83 C 104 112 86 148 74 191 C 62 234 54 283 49 338 L 227 365 C 231 323 235 289 241 261 C 247 233 255 211 266 195 C 277 178 292 166 310 160 C 328 153 351 150 379 150 C 409 150 433 153 451 160 C 469 166 484 177 494 192 C 504 207 510 226 513 250 C 516 273 518 302 518 336 L 518 475 C 518 505 515 530 510 549 C 505 567 497 582 485 592 C 473 602 458 608 438 611 C 418 614 394 616 365 616 L 276 616 L 276 770 L 360 770 C 388 770 412 771 431 775 C 450 778 465 785 477 795 C 488 805 496 818 501 836 C 505 854 508 877 508 907 L 508 993 C 508 1015 506 1035 502 1053 C 498 1071 491 1085 482 1097 C 472 1109 459 1118 443 1124 C 426 1130 405 1133 381 1133 C 354 1133 332 1130 315 1125 C 297 1120 283 1111 272 1099 C 261 1087 252 1070 246 1050 C 240 1029 235 1003 231 973 L 55 1004 C 61 1048 71 1088 86 1124 C 101 1160 122 1190 148 1215 C 174 1240 207 1259 246 1272 C 285 1285 332 1292 387 1292 C 447 1292 497 1284 536 1270 C 574 1256 605 1236 627 1211 C 649 1185 665 1155 673 1121 C 681 1086 686 1048 686 1008 L 686 915 C 686 853 676 805 657 770 C 638 735 611 711 575 698 C 618 686 649 663 668 627 C 686 591 696 539 696 471 L 696 326 C 696 270 691 222 682 180 C 672 138 656 104 632 76 C 608 48 576 27 536 13 C 495 -1 443 -8 381 -8 Z" unicode="3" />
<glyph horiz-adv-x="776" d="M 436 303 L 29 303 L 29 463 L 424 1282 L 608 1282 L 608 463 L 741 463 L 741 303 L 608 303 L 608 0 L 436 0 L 436 303 Z M 436 461 L 436 965 L 197 461 L 436 461 Z" unicode="4" />
<glyph horiz-adv-x="760" d="M 381 -8 C 315 -8 261 0 221 16 C 180 32 148 55 124 85 C 100 115 83 151 72 193 C 61 235 53 282 47 334 L 227 362 C 231 320 236 285 242 258 C 248 230 256 209 268 193 C 279 177 293 165 311 159 C 329 153 351 150 377 150 C 406 150 430 153 448 159 C 466 165 481 176 491 191 C 501 205 508 224 512 248 C 516 272 518 301 518 336 L 518 561 C 518 593 516 620 513 643 C 510 665 504 684 494 698 C 484 712 471 723 454 730 C 436 737 413 741 385 741 C 347 741 317 733 297 719 C 277 705 260 682 246 651 L 84 678 L 123 1282 L 647 1282 L 647 1122 L 276 1122 L 257 838 C 276 858 300 873 328 883 C 356 892 390 897 430 897 C 491 897 539 888 575 871 C 611 853 638 829 656 798 C 674 767 685 730 690 687 C 695 644 698 597 698 545 L 698 324 C 698 271 693 224 683 183 C 673 141 655 106 631 78 C 607 50 574 28 534 14 C 493 0 442 -8 381 -8 Z" unicode="5" />
<glyph horiz-adv-x="795" d="M 403 -8 C 347 -8 298 -1 257 11 C 215 24 181 45 154 74 C 127 102 107 139 94 185 C 80 230 74 285 74 350 L 74 942 C 74 994 79 1042 90 1085 C 100 1128 119 1165 145 1196 C 171 1226 205 1250 248 1267 C 290 1283 344 1292 408 1292 C 502 1292 573 1272 623 1232 C 673 1192 705 1134 721 1059 L 537 1010 C 532 1051 519 1082 497 1103 C 475 1124 442 1135 397 1135 C 367 1135 343 1130 324 1122 C 304 1113 289 1100 278 1084 C 266 1067 258 1047 254 1024 C 250 1000 248 974 248 944 L 248 815 C 272 843 299 863 331 875 C 362 887 401 893 449 893 C 499 893 542 886 578 873 C 614 859 643 838 666 809 C 689 780 706 743 717 697 C 727 651 733 595 733 530 L 733 354 C 733 291 726 237 714 192 C 702 146 682 109 656 79 C 630 49 596 27 554 13 C 512 0 461 -8 403 -8 Z M 403 147 C 436 147 463 151 483 161 C 503 171 519 184 530 202 C 541 220 548 241 552 267 C 555 292 557 320 557 352 L 557 539 C 557 573 555 603 552 629 C 548 654 541 675 531 692 C 520 708 504 721 484 729 C 464 737 437 741 403 741 C 372 741 347 737 327 729 C 307 721 291 708 279 692 C 267 675 259 654 255 628 C 250 602 248 572 248 537 L 248 352 C 248 316 250 286 255 260 C 259 234 267 213 279 196 C 291 179 307 167 327 159 C 347 151 372 147 403 147 Z" unicode="6" />
<glyph horiz-adv-x="643" d="M 406 1128 L 18 1128 L 18 1282 L 590 1282 L 590 1139 L 303 0 L 121 0 L 406 1128 Z" unicode="7" />
<glyph horiz-adv-x="819" d="M 408 -8 C 295 -8 211 18 155 71 C 99 124 72 201 72 303 L 72 444 C 72 506 82 558 102 600 C 122 641 153 673 193 697 C 157 717 129 746 110 782 C 91 818 82 865 82 922 L 82 1004 C 82 1101 110 1173 166 1221 C 222 1268 302 1292 408 1292 C 515 1292 597 1269 653 1223 C 709 1177 737 1105 737 1008 L 737 926 C 737 869 727 822 707 786 C 687 749 660 720 624 699 C 664 675 694 643 714 603 C 734 563 745 511 745 449 L 745 305 C 745 204 717 127 661 73 C 605 19 520 -8 408 -8 Z M 408 141 C 464 141 505 157 530 189 C 554 221 567 263 567 317 L 567 457 C 567 481 564 504 559 524 C 554 544 545 562 533 577 C 521 592 504 604 484 612 C 464 620 438 625 408 625 C 378 625 353 620 333 612 C 313 604 297 592 285 577 C 273 562 264 544 259 523 C 254 502 252 479 252 455 L 252 317 C 252 263 264 221 288 189 C 312 157 352 141 408 141 Z M 408 770 C 461 770 499 783 522 809 C 545 835 557 873 557 924 L 557 991 C 557 1041 546 1078 524 1103 C 502 1128 463 1141 408 1141 C 354 1141 315 1128 293 1102 C 271 1076 260 1038 260 989 L 260 924 C 260 873 272 835 296 809 C 320 783 357 770 408 770 Z" unicode="8" />
<glyph horiz-adv-x="795" d="M 387 -8 C 293 -8 221 12 171 52 C 121 92 88 149 74 225 L 258 274 C 262 234 274 202 296 180 C 317 158 351 147 397 147 C 427 147 451 151 471 160 C 490 168 505 181 517 197 C 528 213 536 232 540 256 C 544 279 547 306 547 336 L 547 468 C 523 440 495 420 464 408 C 432 396 393 391 346 391 C 295 391 251 397 215 411 C 179 424 149 445 126 475 C 103 504 86 542 75 588 C 64 634 59 690 59 756 L 59 930 C 59 992 65 1046 78 1092 C 90 1137 110 1174 137 1204 C 163 1234 198 1256 240 1270 C 282 1284 332 1292 391 1292 C 447 1292 495 1285 537 1272 C 579 1259 613 1238 640 1210 C 667 1181 687 1144 701 1099 C 714 1053 721 998 721 934 L 721 342 C 721 289 715 241 704 198 C 693 155 675 118 649 88 C 623 57 588 33 546 17 C 503 0 450 -8 387 -8 Z M 391 539 C 421 539 447 543 467 551 C 487 559 503 571 515 588 C 527 605 535 626 540 652 C 544 678 547 709 547 745 L 547 928 C 547 964 544 995 540 1021 C 535 1047 527 1068 515 1085 C 503 1102 487 1115 467 1123 C 447 1131 421 1135 391 1135 C 357 1135 331 1130 311 1120 C 291 1110 275 1096 264 1078 C 253 1060 246 1038 243 1013 C 239 987 238 959 238 928 L 238 743 C 238 707 239 677 243 651 C 246 625 253 604 264 588 C 274 571 290 559 310 551 C 330 543 357 539 391 539 Z" unicode="9" />
<glyph horiz-adv-x="297" d="M 61 203 L 233 203 L 233 0 L 61 0 L 61 203 Z M 61 895 L 233 895 L 233 692 L 61 692 L 61 895 Z" unicode=":" />
<glyph horiz-adv-x="297" d="M 61 -102 C 79 -100 93 -97 103 -93 C 113 -89 121 -83 127 -75 C 132 -67 135 -58 137 -46 C 138 -34 139 -18 139 0 L 61 0 L 61 203 L 233 203 L 233 0 C 233 -29 231 -55 228 -79 C 224 -102 217 -122 205 -139 C 193 -155 175 -168 153 -178 C 130 -187 99 -193 61 -195 L 61 -102 Z M 61 895 L 233 895 L 233 692 L 61 692 L 61 895 Z" unicode=";" />
<glyph horiz-adv-x="745" d="M 88 557 L 88 715 L 618 1006 L 618 846 L 240 633 L 618 426 L 618 264 L 88 557 Z" unicode="&#x3C;" />
<glyph horiz-adv-x="752" d="M 59 862 L 692 862 L 692 717 L 59 717 L 59 862 Z M 59 543 L 692 543 L 692 395 L 59 395 L 59 543 Z" unicode="=" />
<glyph horiz-adv-x="745" d="M 125 426 L 504 633 L 125 846 L 125 1006 L 655 715 L 655 557 L 125 264 L 125 426 Z" unicode="&#x3E;" />
<glyph horiz-adv-x="721" d="M 283 430 C 283 471 288 509 299 544 C 309 578 323 610 339 640 C 355 670 372 698 391 725 C 410 751 428 778 444 804 C 460 830 473 856 484 884 C 494 911 500 940 500 971 C 500 997 499 1020 497 1040 C 495 1060 489 1077 481 1091 C 472 1105 459 1115 442 1122 C 424 1129 401 1133 371 1133 C 345 1133 323 1129 305 1123 C 287 1116 273 1106 262 1092 C 251 1078 243 1061 237 1040 C 231 1018 227 993 225 965 L 43 989 C 47 1029 56 1068 69 1105 C 81 1141 100 1173 125 1201 C 150 1229 183 1251 223 1267 C 263 1283 313 1292 373 1292 C 430 1292 478 1285 517 1272 C 556 1259 587 1240 611 1214 C 635 1188 652 1155 662 1116 C 672 1076 678 1030 678 977 C 678 937 672 900 661 866 C 650 832 636 799 620 769 C 604 739 586 710 567 682 C 548 654 530 627 514 600 C 498 573 484 546 473 519 C 462 491 457 463 457 434 L 457 356 L 283 356 L 283 430 Z M 281 203 L 467 203 L 467 0 L 281 0 L 281 203 Z" unicode="?" />
<glyph horiz-adv-x="1073" d="M 537 -260 C 458 -260 390 -251 334 -234 C 277 -217 230 -191 194 -155 C 157 -119 130 -73 112 -18 C 94 37 86 103 86 180 L 86 809 C 86 875 94 935 110 989 C 126 1043 153 1088 189 1125 C 225 1162 271 1191 329 1211 C 386 1231 455 1241 537 1241 C 618 1241 687 1231 744 1212 C 801 1192 848 1164 884 1127 C 920 1090 946 1045 962 992 C 978 939 987 879 987 813 L 987 276 C 987 209 971 162 939 134 C 907 106 856 92 788 92 C 768 92 748 93 729 95 C 710 97 693 100 677 106 C 661 111 648 118 636 128 C 624 138 614 150 608 166 C 587 139 562 120 533 108 C 504 96 474 90 442 90 C 402 90 369 96 344 108 C 319 120 300 138 287 160 C 274 182 267 209 265 241 C 263 273 264 308 270 346 L 313 666 C 319 706 327 741 337 771 C 347 801 361 826 378 847 C 395 867 416 883 441 893 C 465 903 495 909 530 909 C 563 909 588 905 606 898 C 624 891 639 878 653 860 L 662 897 L 813 897 L 725 276 C 721 245 723 224 733 213 C 742 202 763 197 795 197 C 818 197 836 201 848 211 C 860 221 866 238 866 264 L 866 813 C 866 868 859 915 846 955 C 833 994 813 1026 786 1052 C 759 1077 725 1096 684 1108 C 642 1120 593 1126 537 1126 C 423 1126 339 1101 286 1051 C 233 1001 207 920 207 809 L 207 180 C 207 116 213 64 227 22 C 240 -19 260 -52 287 -77 C 314 -101 348 -119 390 -129 C 431 -139 480 -145 537 -145 C 592 -145 641 -140 684 -131 C 726 -121 760 -107 786 -88 L 864 -178 C 826 -208 780 -229 726 -241 C 672 -253 609 -260 537 -260 Z M 487 221 C 506 221 521 224 533 230 C 544 236 553 245 559 257 C 565 268 570 281 573 297 C 576 312 579 328 582 346 L 625 664 C 627 683 629 699 629 713 C 629 727 627 738 623 747 C 619 755 612 762 602 766 C 592 770 579 772 563 772 C 545 772 530 769 519 765 C 507 761 498 754 491 745 C 484 735 479 723 475 708 C 471 692 467 673 465 651 L 422 342 C 419 322 417 305 417 291 C 417 276 419 263 423 253 C 427 242 434 234 444 229 C 454 223 468 221 487 221 Z" unicode="@" />
<glyph horiz-adv-x="707" d="M 258 1290 L 449 1290 L 692 0 L 514 0 L 459 297 L 242 297 L 186 0 L 16 0 L 258 1290 Z M 440 442 L 389 748 L 352 971 L 315 748 L 262 442 L 440 442 Z" unicode="A" />
<glyph horiz-adv-x="739" d="M 74 1282 L 336 1282 C 393 1282 443 1278 486 1270 C 529 1262 565 1246 594 1224 C 622 1201 644 1169 658 1128 C 672 1087 680 1034 680 969 L 680 932 C 680 863 670 810 652 773 C 634 736 607 709 571 692 C 591 683 608 672 623 658 C 638 644 650 627 660 607 C 670 586 677 561 682 533 C 687 505 690 472 690 434 L 690 324 C 690 256 682 200 668 158 C 654 116 632 83 604 59 C 575 35 539 20 496 12 C 453 4 403 0 346 0 L 74 0 L 74 1282 Z M 352 152 C 387 152 415 155 437 161 C 458 167 474 178 486 192 C 497 206 504 223 508 245 C 512 267 514 293 514 324 L 514 438 C 514 472 512 499 508 521 C 504 543 497 560 486 573 C 474 586 458 595 437 600 C 415 605 387 608 352 608 L 252 608 L 252 152 L 352 152 Z M 344 760 C 378 760 406 762 427 768 C 448 773 464 782 476 796 C 487 809 494 827 498 849 C 502 871 504 898 504 932 L 504 961 C 504 991 502 1017 498 1039 C 494 1060 487 1077 476 1091 C 464 1104 448 1114 427 1120 C 405 1126 377 1130 342 1130 L 252 1130 L 252 760 L 344 760 Z" unicode="B" />
<glyph horiz-adv-x="733" d="M 375 -8 C 319 -8 270 -1 230 13 C 189 27 155 48 129 78 C 103 108 83 145 71 191 C 59 236 53 290 53 354 L 53 942 C 53 1060 79 1147 132 1205 C 185 1263 267 1292 379 1292 C 442 1292 494 1285 535 1271 C 576 1257 609 1235 633 1205 C 657 1174 675 1134 686 1085 C 696 1035 703 975 707 905 L 522 889 C 520 935 518 973 516 1004 C 514 1035 508 1060 499 1078 C 490 1096 476 1110 457 1118 C 438 1126 411 1130 377 1130 C 329 1130 293 1115 269 1087 C 245 1059 233 1011 233 944 L 233 352 C 233 318 235 288 239 263 C 243 237 250 216 261 200 C 272 183 287 170 307 162 C 327 154 352 150 383 150 C 414 150 439 153 457 160 C 475 166 489 179 499 197 C 509 215 516 240 520 272 C 524 304 528 345 532 397 L 711 381 C 707 316 699 259 689 211 C 678 162 660 121 636 89 C 612 57 579 32 537 16 C 495 0 441 -8 375 -8 Z" unicode="C" />
<glyph horiz-adv-x="784" d="M 74 1282 L 393 1282 C 460 1282 515 1273 559 1256 C 603 1239 637 1216 663 1187 C 688 1157 706 1122 716 1082 C 726 1042 731 998 731 952 L 731 352 C 731 298 725 250 714 207 C 703 163 685 126 659 96 C 633 65 598 41 555 25 C 512 8 459 0 395 0 L 74 0 L 74 1282 Z M 395 156 C 425 156 450 159 470 167 C 490 174 506 185 518 201 C 530 217 538 237 543 262 C 548 286 551 316 551 350 L 551 950 C 551 979 548 1004 543 1026 C 538 1048 530 1066 518 1081 C 506 1095 489 1106 469 1113 C 449 1120 423 1124 393 1124 L 252 1124 L 252 156 L 395 156 Z" unicode="D" />
<glyph horiz-adv-x="653" d="M 74 1282 L 618 1282 L 618 1120 L 252 1120 L 252 782 L 557 782 L 557 627 L 252 627 L 252 160 L 618 160 L 618 0 L 74 0 L 74 1282 Z" unicode="E" />
<glyph horiz-adv-x="639" d="M 74 1282 L 618 1282 L 618 1120 L 252 1120 L 252 772 L 557 772 L 557 616 L 252 616 L 252 0 L 74 0 L 74 1282 Z" unicode="F" />
<glyph horiz-adv-x="764" d="M 362 -8 C 306 -8 258 0 219 14 C 180 28 148 51 124 81 C 99 111 81 148 70 194 C 58 239 53 292 53 354 L 53 942 C 53 1003 60 1056 74 1100 C 88 1144 108 1181 136 1209 C 164 1237 198 1258 239 1272 C 279 1285 327 1292 381 1292 C 451 1292 507 1282 549 1264 C 591 1245 623 1219 645 1187 C 667 1155 682 1117 690 1073 C 698 1029 703 982 707 932 L 524 911 C 522 955 519 992 516 1020 C 512 1048 506 1071 496 1087 C 486 1103 471 1115 453 1121 C 434 1127 409 1130 377 1130 C 347 1130 323 1125 305 1117 C 286 1108 271 1095 261 1079 C 250 1063 243 1043 239 1020 C 235 997 233 972 233 944 L 233 352 C 233 320 234 291 238 266 C 242 240 249 219 260 202 C 271 185 287 172 307 163 C 327 154 354 150 387 150 C 422 150 450 155 470 165 C 490 175 505 192 515 218 C 525 244 531 278 534 321 C 536 364 538 419 539 485 L 539 545 L 383 545 L 383 700 L 707 700 L 707 0 L 575 0 L 561 68 C 538 42 511 23 479 11 C 447 -1 408 -8 362 -8 Z" unicode="G" />
<glyph horiz-adv-x="795" d="M 543 637 L 252 637 L 252 0 L 74 0 L 74 1282 L 252 1282 L 252 799 L 543 799 L 543 1282 L 719 1282 L 719 0 L 543 0 L 543 637 Z" unicode="H" />
<glyph horiz-adv-x="334" d="M 78 1282 L 254 1282 L 254 0 L 78 0 L 78 1282 Z" unicode="I" />
<glyph horiz-adv-x="639" d="M 293 -8 C 233 -8 184 0 148 16 C 112 32 84 57 64 90 C 44 122 31 163 25 212 C 19 260 16 317 16 383 L 193 391 C 193 339 195 297 198 265 C 200 233 205 209 213 192 C 220 175 230 164 244 158 C 257 152 275 150 297 150 C 321 150 340 153 354 159 C 368 165 378 176 385 192 C 391 207 395 227 397 253 C 398 279 399 311 399 350 L 399 1282 L 578 1282 L 578 346 C 578 293 575 245 570 201 C 565 157 553 120 534 89 C 514 58 486 34 448 17 C 410 0 358 -8 293 -8 Z" unicode="J" />
<glyph horiz-adv-x="727" d="M 332 660 L 252 521 L 252 0 L 74 0 L 74 1282 L 252 1282 L 252 806 L 518 1282 L 698 1282 L 462 858 L 715 0 L 528 0 L 332 660 Z" unicode="K" />
<glyph horiz-adv-x="629" d="M 74 1282 L 252 1282 L 252 160 L 608 160 L 608 0 L 74 0 L 74 1282 Z" unicode="L" />
<glyph horiz-adv-x="1026" d="M 74 1282 L 340 1282 L 514 391 L 686 1282 L 950 1282 L 950 0 L 778 0 L 778 1022 L 737 784 L 590 0 L 428 0 L 279 784 L 240 1022 L 240 0 L 74 0 L 74 1282 Z" unicode="M" />
<glyph horiz-adv-x="776" d="M 74 1282 L 303 1282 L 532 514 L 532 1282 L 700 1282 L 700 0 L 528 0 L 244 934 L 244 0 L 74 0 L 74 1282 Z" unicode="N" />
<glyph horiz-adv-x="778" d="M 387 -8 C 275 -8 192 20 136 77 C 80 133 53 226 53 354 L 53 942 C 53 996 59 1045 72 1089 C 84 1132 104 1169 131 1199 C 158 1229 193 1252 235 1268 C 277 1284 328 1292 387 1292 C 447 1292 499 1284 541 1269 C 583 1253 618 1231 645 1202 C 672 1172 692 1136 704 1094 C 716 1051 723 1002 723 948 L 723 356 C 723 291 716 236 702 190 C 688 144 668 106 640 77 C 612 47 577 26 535 12 C 493 -1 443 -8 387 -8 Z M 387 150 C 411 150 433 153 453 159 C 472 165 488 176 502 192 C 516 207 526 227 534 253 C 541 279 545 311 545 350 L 545 946 C 545 1012 532 1060 506 1088 C 480 1116 441 1130 387 1130 C 333 1130 294 1115 270 1087 C 245 1058 233 1010 233 944 L 233 352 C 233 312 236 280 242 254 C 248 228 257 207 269 192 C 281 176 297 165 317 159 C 336 153 359 150 387 150 Z" unicode="O" />
<glyph horiz-adv-x="713" d="M 74 1282 L 346 1282 C 403 1282 453 1277 496 1269 C 539 1260 575 1244 604 1220 C 632 1196 654 1162 668 1119 C 682 1076 690 1020 690 952 L 690 852 C 690 783 682 727 668 684 C 653 641 631 608 603 584 C 574 560 538 543 495 535 C 452 526 402 522 346 522 L 252 522 L 252 0 L 74 0 L 74 1282 Z M 352 676 C 387 676 415 678 437 684 C 458 689 474 698 486 711 C 497 724 504 741 508 763 C 512 785 514 812 514 846 L 514 954 C 514 984 512 1009 508 1031 C 504 1053 497 1071 486 1085 C 474 1099 458 1109 437 1116 C 415 1122 387 1126 352 1126 L 252 1126 L 252 676 L 352 676 Z" unicode="P" />
<glyph horiz-adv-x="778" d="M 430 -2 C 422 -2 415 -3 408 -3 C 401 -3 394 -4 387 -4 C 331 -4 282 2 240 16 C 198 29 164 50 136 79 C 108 107 88 144 74 190 C 60 235 53 290 53 354 L 53 942 C 53 996 59 1045 72 1089 C 84 1132 104 1169 131 1199 C 158 1229 193 1252 235 1268 C 277 1284 328 1292 387 1292 C 447 1292 499 1284 541 1269 C 583 1253 618 1231 645 1202 C 672 1172 692 1136 704 1094 C 716 1051 723 1002 723 948 L 723 356 C 723 279 713 216 693 166 C 673 116 644 78 604 50 L 723 -135 L 575 -225 L 430 -2 Z M 387 150 C 411 150 433 153 453 159 C 472 165 488 176 502 191 C 516 206 526 226 534 252 C 541 278 545 310 545 348 L 545 946 C 545 1012 532 1060 506 1088 C 480 1116 441 1130 387 1130 C 333 1130 294 1115 270 1087 C 245 1058 233 1010 233 944 L 233 350 C 233 311 236 279 242 253 C 248 227 257 207 269 192 C 281 176 297 165 317 159 C 336 153 359 150 387 150 Z" unicode="Q" />
<glyph horiz-adv-x="727" d="M 74 1282 L 338 1282 C 395 1282 445 1277 488 1269 C 531 1260 567 1244 596 1220 C 624 1196 646 1162 660 1119 C 674 1076 682 1020 682 952 L 682 866 C 682 820 678 780 671 746 C 664 712 654 684 641 660 C 627 636 610 616 590 601 C 570 585 546 573 520 565 L 678 0 L 496 0 L 344 543 L 338 543 L 252 543 L 252 0 L 74 0 L 74 1282 Z M 346 694 C 380 694 408 696 429 702 C 450 707 466 716 478 729 C 489 742 496 759 500 781 C 504 803 506 830 506 864 L 506 954 C 506 984 504 1009 500 1031 C 496 1053 489 1071 478 1085 C 466 1099 450 1109 429 1116 C 407 1122 379 1126 344 1126 L 252 1126 L 252 694 L 346 694 Z" unicode="R" />
<glyph horiz-adv-x="723" d="M 362 -8 C 296 -8 242 0 200 17 C 158 33 124 57 100 88 C 76 119 59 157 49 201 C 39 245 33 294 31 348 L 211 371 C 213 323 217 284 222 256 C 227 227 235 205 247 190 C 258 174 273 164 293 159 C 312 154 337 152 367 152 C 396 152 420 155 439 163 C 457 170 472 180 482 193 C 492 205 500 220 504 238 C 508 255 510 274 510 295 C 510 321 505 346 497 368 C 489 390 476 412 458 435 C 440 458 418 483 390 511 C 362 538 329 570 291 608 C 253 642 220 675 190 705 C 160 735 135 766 114 796 C 93 826 77 857 66 889 C 54 921 49 957 49 997 C 49 1095 76 1169 130 1218 C 184 1267 262 1292 362 1292 C 416 1292 462 1286 500 1274 C 538 1262 569 1243 594 1218 C 618 1193 637 1161 649 1123 C 661 1085 670 1039 674 987 L 494 969 C 491 1001 487 1027 483 1048 C 478 1069 471 1086 461 1098 C 451 1110 439 1118 424 1123 C 408 1127 389 1130 365 1130 C 338 1130 316 1127 298 1121 C 280 1115 266 1107 256 1096 C 245 1085 237 1072 233 1056 C 229 1040 227 1021 227 1001 C 227 979 230 959 237 941 C 243 923 254 904 269 884 C 283 864 302 843 326 820 C 349 797 377 770 410 739 C 454 695 494 656 528 622 C 562 588 591 554 615 521 C 639 487 657 453 669 417 C 681 381 688 339 688 293 C 688 245 681 202 669 165 C 657 127 637 96 611 70 C 585 44 551 25 510 12 C 468 -1 419 -8 362 -8 Z" unicode="S" />
<glyph horiz-adv-x="678" d="M 252 1120 L 18 1120 L 18 1282 L 659 1282 L 659 1120 L 430 1120 L 430 0 L 252 0 L 252 1120 Z" unicode="T" />
<glyph horiz-adv-x="774" d="M 389 -8 C 333 -8 284 -1 243 10 C 202 22 168 43 142 71 C 115 99 95 135 82 180 C 69 224 63 279 63 344 L 63 1282 L 242 1282 L 242 352 C 242 312 244 280 250 254 C 255 228 263 207 275 192 C 286 176 301 165 320 159 C 338 153 361 150 389 150 C 413 150 435 153 453 159 C 471 165 487 176 499 192 C 511 207 521 227 527 253 C 533 279 537 311 537 350 L 537 1282 L 711 1282 L 711 346 C 711 281 704 226 692 181 C 680 136 661 100 635 72 C 609 44 575 23 535 11 C 494 -1 445 -8 389 -8 Z" unicode="U" />
<glyph horiz-adv-x="707" d="M 16 1282 L 193 1282 L 309 647 L 358 348 L 403 645 L 520 1282 L 692 1282 L 449 -8 L 258 -8 L 16 1282 Z" unicode="V" />
<glyph horiz-adv-x="1098" d="M 35 1282 L 207 1282 L 289 705 L 326 422 L 369 705 L 463 1282 L 635 1282 L 727 705 L 768 422 L 807 705 L 893 1282 L 1063 1282 L 864 -6 L 684 -6 L 543 862 L 401 -6 L 223 -6 L 35 1282 Z" unicode="W" />
<glyph horiz-adv-x="713" d="M 349 463 L 180 0 L 6 0 L 265 682 L 37 1282 L 217 1282 L 365 896 L 504 1282 L 678 1282 L 448 679 L 709 0 L 526 0 L 349 463 Z" unicode="X" />
<glyph horiz-adv-x="735" d="M 279 518 L 16 1282 L 201 1282 L 369 760 L 543 1282 L 719 1282 L 455 518 L 455 0 L 279 0 L 279 518 Z" unicode="Y" />
<glyph horiz-adv-x="629" d="M 27 147 L 401 1120 L 33 1120 L 33 1282 L 596 1282 L 596 1130 L 221 160 L 602 160 L 602 0 L 27 0 L 27 147 Z" unicode="Z" />
<glyph horiz-adv-x="420" d="M 78 1282 L 387 1282 L 387 1120 L 254 1120 L 254 -166 L 387 -166 L 387 -324 L 78 -324 L 78 1282 Z" unicode="[" />
<glyph horiz-adv-x="516" d="M 0 1282 L 180 1282 L 516 0 L 336 0 L 0 1282 Z" unicode="\" />
<glyph horiz-adv-x="420" d="M 33 -164 L 166 -164 L 166 1122 L 33 1122 L 33 1282 L 342 1282 L 342 -324 L 33 -324 L 33 -164 Z" unicode="]" />
<glyph horiz-adv-x="766" d="M 283 1149 L 485 1149 L 610 895 L 465 895 L 381 1049 L 299 895 L 158 895 L 283 1149 Z" unicode="^" />
<glyph horiz-adv-x="489" d="M -45 -98 L 532 -98 L 532 -246 L -45 -246 L -45 -98 Z" unicode="_" />
<glyph horiz-adv-x="766" d="M 180 1262 L 360 1262 L 465 1008 L 309 1008 L 180 1262 Z" unicode="`" />
<glyph horiz-adv-x="623" d="M 242 -8 C 202 -8 170 -3 145 7 C 120 17 100 32 86 54 C 71 76 61 104 55 138 C 49 172 47 214 47 264 C 47 320 51 369 59 411 C 67 453 85 488 111 518 C 137 548 173 572 221 592 C 269 612 332 629 410 643 L 410 657 C 410 693 403 719 389 736 C 375 753 349 762 311 762 C 295 762 281 760 270 757 C 259 754 250 749 242 743 C 234 737 228 728 223 718 C 218 707 213 694 209 678 L 45 735 C 53 761 63 784 77 806 C 91 828 109 846 131 862 C 153 878 181 890 213 898 C 245 906 284 911 330 911 C 380 911 420 906 452 896 C 484 886 508 871 526 851 C 544 831 556 805 563 775 C 569 745 573 710 573 670 L 573 0 L 410 0 L 410 70 C 400 58 391 47 381 38 C 371 28 360 20 347 13 C 334 6 319 1 302 -2 C 285 -6 265 -8 242 -8 Z M 303 133 C 325 133 343 136 357 144 C 371 152 381 162 389 175 C 397 188 402 203 405 221 C 408 239 410 258 410 279 L 410 506 C 366 496 331 485 305 475 C 279 464 260 450 247 433 C 233 416 225 394 221 368 C 217 342 215 308 215 268 C 215 242 215 221 217 204 C 218 186 222 172 228 162 C 234 151 242 143 254 139 C 266 135 282 133 303 133 Z" unicode="a" />
<glyph horiz-adv-x="655" d="M 383 -8 C 349 -8 319 -4 293 2 C 267 9 244 24 225 47 L 225 0 L 57 0 L 57 1313 L 225 1313 L 225 840 C 241 862 262 880 288 892 C 313 904 345 911 385 911 C 425 911 460 904 489 891 C 517 878 541 860 559 836 C 577 812 590 782 598 747 C 606 712 610 673 610 629 L 610 281 C 610 235 606 194 598 158 C 590 122 578 92 561 68 C 543 43 520 24 491 11 C 461 -1 425 -8 383 -8 Z M 334 143 C 354 143 371 145 385 150 C 399 155 410 163 418 174 C 426 185 431 199 435 217 C 438 235 440 256 440 281 L 440 621 C 440 642 438 661 435 679 C 432 696 427 711 419 723 C 411 735 400 744 386 750 C 372 756 354 760 332 760 C 309 760 291 756 277 748 C 263 740 252 730 244 717 C 236 704 231 689 229 672 C 226 654 225 636 225 616 L 225 270 C 225 224 232 192 248 172 C 264 152 292 143 334 143 Z" unicode="b" />
<glyph horiz-adv-x="614" d="M 317 -8 C 229 -8 161 14 115 59 C 68 103 45 176 45 276 L 45 623 C 45 669 49 709 57 745 C 65 781 80 811 101 836 C 121 860 149 879 184 892 C 218 904 262 911 315 911 C 365 911 406 906 440 896 C 473 886 500 870 521 848 C 542 826 558 796 568 760 C 578 724 586 679 590 627 L 416 602 C 414 634 412 660 409 680 C 406 700 401 716 394 728 C 386 740 376 748 363 752 C 349 756 332 758 311 758 C 291 758 275 755 263 750 C 250 745 240 737 233 727 C 226 716 221 702 219 685 C 216 668 215 647 215 623 L 215 279 C 215 252 217 230 221 212 C 225 194 232 180 240 170 C 248 160 259 153 272 149 C 285 145 301 143 319 143 C 337 143 352 144 364 147 C 376 150 386 156 394 166 C 402 176 408 190 413 208 C 418 226 422 251 426 283 L 594 260 C 586 210 576 169 564 135 C 551 101 534 73 513 52 C 491 30 465 15 433 6 C 401 -3 363 -8 317 -8 Z" unicode="c" />
<glyph horiz-adv-x="655" d="M 270 -8 C 228 -8 193 -1 165 11 C 136 24 113 43 95 67 C 77 91 65 120 57 155 C 49 190 45 230 45 274 L 45 623 C 45 668 48 708 56 744 C 64 780 76 810 94 835 C 111 859 134 878 163 891 C 192 904 228 911 272 911 C 304 911 333 907 359 900 C 385 893 409 878 430 856 L 430 1313 L 598 1313 L 598 0 L 430 0 L 430 63 C 412 40 391 22 365 10 C 339 -1 308 -8 270 -8 Z M 324 143 C 344 143 360 146 373 152 C 386 158 397 166 405 177 C 413 188 418 201 422 216 C 426 230 428 246 430 264 L 430 639 C 430 682 421 713 405 731 C 388 749 360 758 322 758 C 280 758 251 747 237 726 C 222 704 215 669 215 621 L 215 281 C 215 259 216 240 219 223 C 222 206 228 192 236 180 C 244 168 256 158 270 152 C 284 146 302 143 324 143 Z" unicode="d" />
<glyph horiz-adv-x="625" d="M 322 -8 C 226 -8 156 14 112 60 C 67 106 45 178 45 276 L 45 623 C 45 669 49 711 58 747 C 67 783 82 813 104 837 C 126 861 154 880 190 892 C 225 904 269 911 322 911 C 375 911 418 904 452 890 C 486 876 512 857 532 832 C 551 807 564 777 571 743 C 578 708 582 669 582 627 L 582 397 L 211 397 L 211 279 C 211 226 219 189 236 167 C 253 145 281 135 319 135 C 339 135 356 137 368 141 C 380 145 389 152 395 162 C 401 172 406 185 409 201 C 412 217 415 238 418 264 L 575 240 C 569 204 563 170 555 140 C 547 110 535 84 518 62 C 500 40 476 22 445 10 C 414 -1 373 -8 322 -8 Z M 211 539 L 416 539 L 416 625 C 416 647 415 666 413 683 C 411 700 407 714 401 726 C 395 738 385 747 372 753 C 358 759 340 762 317 762 C 293 762 275 759 261 753 C 247 747 237 738 229 726 C 221 714 216 700 214 683 C 212 665 211 645 211 623 L 211 539 Z" unicode="e" />
<glyph horiz-adv-x="414" d="M 12 897 L 113 897 L 113 1108 C 113 1142 116 1171 123 1197 C 130 1222 142 1243 158 1261 C 174 1278 195 1291 221 1300 C 247 1308 279 1313 317 1313 L 403 1313 L 403 1161 L 360 1161 C 328 1161 307 1155 296 1144 C 284 1133 279 1111 279 1079 L 279 897 L 403 897 L 403 741 L 279 741 L 279 0 L 113 0 L 113 741 L 12 741 L 12 897 Z" unicode="f" />
<glyph horiz-adv-x="655" d="M 332 -334 C 281 -334 239 -329 206 -320 C 172 -310 145 -297 124 -279 C 103 -261 87 -240 76 -216 C 64 -191 55 -163 49 -133 L 209 -84 C 213 -105 218 -122 223 -135 C 227 -148 234 -158 243 -166 C 251 -174 262 -179 276 -182 C 289 -184 306 -186 328 -186 C 366 -186 393 -177 408 -159 C 422 -141 430 -112 430 -70 L 430 68 C 412 44 391 26 365 14 C 339 2 308 -4 270 -4 C 228 -4 193 2 165 14 C 136 26 113 45 95 69 C 77 93 65 122 57 156 C 49 190 45 230 45 274 L 45 623 C 45 668 48 708 56 744 C 64 780 76 810 94 835 C 111 859 134 878 163 891 C 192 904 228 911 272 911 C 304 911 333 907 359 900 C 385 893 409 878 430 856 L 430 897 L 598 897 L 598 -66 C 598 -104 594 -140 587 -173 C 579 -205 566 -234 547 -258 C 527 -282 500 -300 466 -314 C 431 -327 386 -334 332 -334 Z M 324 143 C 344 143 361 146 375 152 C 388 158 399 167 407 179 C 415 190 420 203 424 219 C 427 235 429 252 430 270 L 430 639 C 430 682 421 713 405 731 C 388 749 360 758 322 758 C 280 758 251 747 237 726 C 222 704 215 669 215 621 L 215 281 C 215 259 216 240 219 223 C 222 206 228 192 236 180 C 244 168 256 158 270 152 C 284 146 302 143 324 143 Z" unicode="g" />
<glyph horiz-adv-x="657" d="M 57 1313 L 225 1313 L 225 838 C 246 859 271 876 300 890 C 329 904 366 911 412 911 C 454 911 488 905 514 894 C 540 883 559 867 573 846 C 587 825 596 800 600 770 C 604 740 606 707 606 670 L 606 0 L 438 0 L 438 647 C 438 686 431 714 418 732 C 405 749 381 758 346 758 C 324 758 305 756 290 752 C 274 748 262 741 252 731 C 242 721 235 706 231 687 C 227 667 225 642 225 610 L 225 0 L 57 0 L 57 1313 Z" unicode="h" />
<glyph horiz-adv-x="289" d="M 61 897 L 227 897 L 227 0 L 61 0 L 61 897 Z M 57 1210 L 231 1210 L 231 1008 L 57 1008 L 57 1210 Z" unicode="i" />
<glyph horiz-adv-x="289" d="M -45 -174 L -25 -174 C -6 -174 8 -173 20 -171 C 31 -169 40 -164 46 -156 C 52 -148 56 -137 58 -123 C 60 -108 61 -88 61 -63 L 61 897 L 227 897 L 227 -72 C 227 -119 223 -159 217 -191 C 211 -223 199 -249 182 -269 C 164 -289 140 -303 109 -311 C 78 -319 38 -324 -10 -324 L -45 -324 L -45 -174 Z M 57 1210 L 231 1210 L 231 1008 L 57 1008 L 57 1210 Z" unicode="j" />
<glyph horiz-adv-x="573" d="M 288 429 L 225 308 L 225 0 L 57 0 L 57 1313 L 225 1313 L 225 593 L 391 897 L 555 897 L 408 629 L 557 0 L 387 0 L 288 429 Z" unicode="k" />
<glyph horiz-adv-x="289" d="M 61 1313 L 227 1313 L 227 0 L 61 0 L 61 1313 Z" unicode="l" />
<glyph horiz-adv-x="1004" d="M 57 897 L 225 897 L 225 842 C 245 862 270 879 299 892 C 328 904 363 911 403 911 C 450 911 486 904 511 890 C 536 876 555 857 567 831 C 589 855 617 874 650 889 C 683 903 722 911 766 911 C 808 911 842 905 867 894 C 892 883 911 867 923 846 C 935 825 943 800 947 770 C 950 740 952 707 952 670 L 952 0 L 784 0 L 784 647 C 784 666 782 683 780 697 C 778 711 774 722 768 731 C 762 740 753 747 742 751 C 731 755 717 758 700 758 C 678 758 660 756 646 752 C 632 748 620 741 612 731 C 604 721 598 706 595 687 C 591 667 590 642 590 610 L 590 0 L 420 0 L 420 647 C 420 666 419 683 417 697 C 415 711 411 722 405 731 C 399 740 390 747 380 751 C 369 755 355 758 338 758 C 316 758 297 756 283 752 C 268 748 256 741 248 731 C 240 721 234 706 230 687 C 226 667 225 642 225 610 L 225 0 L 57 0 L 57 897 Z" unicode="m" />
<glyph horiz-adv-x="657" d="M 57 897 L 225 897 L 225 838 C 246 859 272 876 303 890 C 334 904 370 911 412 911 C 454 911 488 905 514 894 C 540 883 559 867 573 846 C 587 825 596 800 600 770 C 604 740 606 707 606 670 L 606 0 L 438 0 L 438 647 C 438 686 431 714 418 732 C 405 749 381 758 346 758 C 324 758 305 756 290 752 C 274 748 262 741 252 731 C 242 721 235 706 231 687 C 227 667 225 642 225 610 L 225 0 L 57 0 L 57 897 Z" unicode="n" />
<glyph horiz-adv-x="643" d="M 322 -8 C 228 -8 159 14 113 59 C 67 104 45 176 45 276 L 45 623 C 45 673 50 717 60 754 C 70 790 87 820 109 843 C 131 866 159 883 194 894 C 229 905 272 911 322 911 C 371 911 413 905 448 895 C 483 885 512 868 534 846 C 556 823 572 794 582 758 C 592 722 598 679 598 629 L 598 281 C 598 180 575 107 529 61 C 483 15 414 -8 322 -8 Z M 322 143 C 360 143 388 153 404 173 C 420 193 428 228 428 279 L 428 625 C 428 650 426 671 423 688 C 419 705 413 719 405 729 C 397 739 386 747 372 751 C 358 755 342 758 322 758 C 302 758 285 755 271 751 C 257 746 246 738 238 728 C 230 718 224 704 220 687 C 216 669 215 648 215 623 L 215 279 C 215 228 223 193 240 173 C 256 153 284 143 322 143 Z" unicode="o" />
<glyph horiz-adv-x="655" d="M 57 897 L 225 897 L 225 840 C 241 862 262 880 288 892 C 313 904 345 911 385 911 C 425 911 460 904 489 891 C 517 878 541 860 559 836 C 577 812 590 782 598 747 C 606 712 610 673 610 629 L 610 283 C 610 237 606 196 598 160 C 590 124 578 94 561 70 C 543 45 520 26 491 13 C 461 0 425 -6 383 -6 C 349 -6 319 -2 293 5 C 267 12 244 27 225 51 L 225 -324 L 57 -324 L 57 897 Z M 334 145 C 354 145 371 147 385 152 C 399 157 410 165 418 177 C 426 188 431 202 435 220 C 438 238 440 259 440 285 L 440 621 C 440 642 438 661 435 679 C 432 696 427 711 419 723 C 411 735 400 744 386 750 C 372 756 354 760 332 760 C 311 760 294 756 281 750 C 267 744 256 735 248 724 C 240 713 234 700 231 685 C 227 670 225 654 225 637 L 225 272 C 225 248 226 229 230 213 C 234 197 240 184 248 174 C 256 164 268 156 282 152 C 296 147 313 145 334 145 Z" unicode="p" />
<glyph horiz-adv-x="655" d="M 430 63 C 412 40 391 22 365 10 C 339 -1 308 -8 270 -8 C 228 -8 193 -1 165 11 C 136 24 113 43 95 67 C 77 91 65 120 57 155 C 49 190 45 230 45 274 L 45 623 C 45 668 48 708 56 744 C 64 780 76 810 94 835 C 111 859 134 878 163 891 C 192 904 228 911 272 911 C 304 911 333 907 359 900 C 385 893 409 878 430 856 L 430 897 L 598 897 L 598 -324 L 430 -324 L 430 63 Z M 324 143 C 344 143 360 146 373 152 C 386 158 397 166 405 177 C 413 188 418 201 422 216 C 426 230 428 246 430 264 L 430 639 C 430 682 421 713 405 731 C 388 749 360 758 322 758 C 280 758 251 747 237 726 C 222 704 215 669 215 621 L 215 281 C 215 259 216 240 219 223 C 222 206 228 192 236 180 C 244 168 256 158 270 152 C 284 146 302 143 324 143 Z" unicode="q" />
<glyph horiz-adv-x="393" d="M 57 897 L 225 897 L 225 825 C 244 846 267 863 293 876 C 319 888 349 895 383 897 L 383 743 C 352 739 327 735 307 731 C 287 726 271 718 259 706 C 247 694 238 677 233 656 C 228 634 225 606 225 571 L 225 0 L 57 0 L 57 897 Z" unicode="r" />
<glyph horiz-adv-x="600" d="M 301 -8 C 255 -8 217 -3 185 6 C 153 15 126 29 105 49 C 83 69 67 94 56 125 C 44 155 37 192 35 236 L 195 264 C 197 237 200 215 204 198 C 208 181 213 168 220 158 C 227 148 237 142 249 138 C 261 134 277 133 297 133 C 333 133 358 139 372 152 C 386 164 393 187 393 221 C 393 236 389 250 383 263 C 377 275 367 289 354 303 C 340 317 323 332 303 349 C 282 365 257 386 229 410 C 203 428 180 447 159 465 C 138 483 120 503 104 523 C 88 543 76 566 68 590 C 59 614 55 642 55 672 C 55 706 58 737 65 766 C 72 795 85 820 104 842 C 122 863 147 880 179 892 C 211 904 251 911 301 911 C 345 911 382 906 413 897 C 444 888 470 875 490 857 C 510 839 526 816 536 789 C 546 762 553 730 557 694 L 395 670 C 393 686 392 700 390 712 C 388 724 384 734 378 742 C 372 750 363 756 351 760 C 339 764 323 766 303 766 C 272 766 251 759 240 746 C 228 732 223 712 223 684 C 223 668 225 654 231 642 C 236 629 244 616 255 604 C 265 592 279 579 295 565 C 311 551 331 536 354 520 C 384 496 412 473 438 453 C 463 432 485 411 503 389 C 521 367 534 343 544 317 C 554 291 559 261 559 227 C 559 146 538 87 496 49 C 454 11 389 -8 301 -8 Z" unicode="s" />
<glyph horiz-adv-x="440" d="M 6 897 L 106 897 L 106 1180 L 274 1180 L 274 897 L 399 897 L 399 741 L 274 741 L 274 233 C 274 217 275 203 277 193 C 279 182 284 174 290 168 C 296 162 305 157 316 155 C 326 153 340 152 356 152 L 399 152 L 399 0 L 313 0 C 237 0 184 16 153 50 C 121 83 106 133 106 201 L 106 741 L 6 741 L 6 897 Z" unicode="t" />
<glyph horiz-adv-x="655" d="M 244 -8 C 201 -8 167 -2 142 8 C 116 19 97 35 83 56 C 69 77 61 102 57 132 C 53 162 51 195 51 233 L 51 897 L 217 897 L 217 256 C 217 216 224 187 238 169 C 252 151 276 143 311 143 C 331 143 349 144 364 148 C 378 151 390 158 400 168 C 410 178 417 193 421 212 C 425 231 428 257 430 289 L 430 897 L 598 897 L 598 0 L 430 0 L 430 61 C 407 40 380 23 350 11 C 319 -1 284 -8 244 -8 Z" unicode="u" />
<glyph horiz-adv-x="586" d="M 12 897 L 184 897 L 262 487 L 295 299 L 328 485 L 408 897 L 575 897 L 383 -6 L 199 -6 L 12 897 Z" unicode="v" />
<glyph horiz-adv-x="967" d="M 16 897 L 184 897 L 254 512 L 287 307 L 326 510 L 406 897 L 569 897 L 647 512 L 686 307 L 721 512 L 788 897 L 952 897 L 774 -6 L 608 -6 L 481 563 L 356 -6 L 190 -6 L 16 897 Z" unicode="w" />
<glyph horiz-adv-x="584" d="M 205 471 L 33 897 L 207 897 L 301 664 L 387 897 L 547 897 L 376 477 L 569 0 L 395 0 L 281 283 L 174 0 L 12 0 L 205 471 Z" unicode="x" />
<glyph horiz-adv-x="586" d="M 78 -172 L 117 -172 C 127 -172 135 -171 143 -170 C 150 -169 156 -167 162 -164 C 168 -160 172 -155 176 -148 C 180 -140 183 -131 186 -119 L 209 -8 L 12 897 L 182 897 L 260 516 L 297 315 L 332 514 L 410 897 L 573 897 L 336 -158 C 330 -185 322 -209 313 -230 C 303 -250 291 -267 276 -281 C 260 -295 241 -305 218 -312 C 195 -318 167 -322 135 -322 L 78 -322 L 78 -172 Z" unicode="y" />
<glyph horiz-adv-x="551" d="M 37 141 L 307 741 L 49 741 L 49 897 L 500 897 L 500 752 L 229 152 L 514 152 L 514 0 L 37 0 L 37 141 Z" unicode="z" />
<glyph horiz-adv-x="492" d="M 395 -324 C 347 -324 306 -319 272 -309 C 238 -299 211 -282 191 -260 C 171 -237 157 -207 150 -171 C 142 -134 141 -89 147 -35 L 182 297 C 186 333 180 358 164 374 C 148 389 120 397 80 397 L 45 397 L 45 561 L 80 561 C 120 561 147 568 163 584 C 179 600 185 626 182 662 L 147 991 C 142 1044 143 1089 151 1126 C 158 1163 172 1193 192 1216 C 212 1239 239 1256 273 1266 C 307 1276 348 1282 397 1282 L 459 1282 L 459 1120 L 426 1120 C 408 1120 392 1118 378 1114 C 364 1110 353 1104 345 1095 C 337 1086 331 1074 328 1059 C 324 1043 324 1024 326 1001 L 362 649 C 366 609 361 575 346 548 C 331 520 306 498 270 481 C 308 463 334 440 348 411 C 362 382 366 348 362 309 L 326 -45 C 321 -91 327 -122 345 -139 C 363 -155 390 -164 426 -164 L 459 -164 L 459 -324 L 395 -324 Z" unicode="{" />
<glyph horiz-adv-x="422" d="M 123 1282 L 299 1282 L 299 -354 L 123 -354 L 123 1282 Z" unicode="|" />
<glyph horiz-adv-x="492" d="M 33 -164 L 68 -164 C 104 -164 130 -155 148 -139 C 165 -122 172 -91 168 -45 L 131 309 C 127 348 131 382 145 411 C 159 440 185 463 223 481 C 187 498 161 520 147 548 C 132 575 127 609 131 649 L 168 1001 C 170 1024 169 1043 165 1059 C 161 1074 155 1086 147 1095 C 139 1104 128 1110 115 1114 C 101 1118 86 1120 68 1120 L 33 1120 L 33 1282 L 96 1282 C 144 1282 186 1276 220 1266 C 254 1256 281 1239 301 1216 C 321 1193 334 1163 341 1126 C 348 1089 349 1044 344 991 L 309 662 C 305 626 312 600 328 584 C 344 568 372 561 412 561 L 449 561 L 449 397 L 412 397 C 372 397 344 389 328 374 C 312 358 305 333 309 297 L 344 -35 C 349 -89 348 -134 341 -171 C 334 -207 321 -237 301 -260 C 281 -282 254 -299 220 -309 C 186 -319 144 -324 96 -324 L 33 -324 L 33 -164 Z" unicode="}" />
<glyph horiz-adv-x="766" d="M 133 890 C 133 933 135 969 139 998 C 143 1027 151 1050 161 1068 C 171 1085 185 1097 203 1104 C 220 1111 242 1115 268 1115 C 290 1115 312 1110 332 1101 C 352 1091 371 1081 389 1070 C 406 1058 421 1048 435 1039 C 449 1029 461 1025 471 1025 C 477 1025 481 1026 485 1028 C 489 1030 492 1035 494 1042 C 496 1048 497 1058 497 1070 C 497 1082 498 1097 498 1117 L 631 1117 C 631 1079 629 1047 627 1019 C 624 991 618 967 609 949 C 599 930 586 916 568 906 C 550 896 527 892 498 892 C 476 892 455 896 435 905 C 415 914 396 924 378 935 C 360 946 343 956 329 966 C 315 975 303 980 293 980 C 280 980 272 973 269 961 C 265 948 264 924 264 890 L 133 890 Z" unicode="~" />
<glyph horiz-adv-x="639" d="M 319 -6 C 239 -6 180 13 141 53 C 101 93 82 158 82 248 L 82 657 C 82 695 86 730 95 760 C 104 790 118 816 137 837 C 156 858 181 874 211 886 C 241 897 277 903 319 903 C 362 903 399 897 429 887 C 459 876 484 860 504 840 C 523 819 537 794 546 764 C 554 734 559 700 559 662 L 559 250 C 559 204 554 165 544 133 C 534 101 520 74 500 54 C 480 33 455 18 425 8 C 395 -1 359 -6 319 -6 Z M 319 131 C 333 131 345 132 356 136 C 367 140 376 146 384 156 C 392 165 398 177 402 193 C 406 209 408 229 408 254 L 408 653 C 408 693 400 721 386 738 C 371 755 349 764 319 764 C 290 764 268 754 253 736 C 238 718 231 689 231 649 L 231 252 C 231 228 233 208 237 192 C 241 176 247 164 255 155 C 263 146 272 140 283 136 C 293 132 305 131 319 131 Z" unicode="₀" />
<glyph horiz-adv-x="526" d="M 211 754 L 88 754 L 88 895 L 365 895 L 365 0 L 211 0 L 211 754 Z" unicode="₁" />
<glyph horiz-adv-x="618" d="M 72 84 C 72 128 79 170 95 208 C 111 246 130 281 154 315 C 177 348 202 379 229 409 C 256 439 281 467 305 495 C 328 522 347 549 363 575 C 379 601 387 628 387 655 C 387 675 386 692 384 706 C 382 720 379 731 373 740 C 367 749 359 756 349 760 C 338 764 323 766 305 766 C 287 766 272 763 261 758 C 249 752 240 744 234 734 C 227 723 222 710 219 695 C 215 679 213 661 211 641 L 59 660 C 63 700 70 735 80 765 C 90 795 105 820 124 841 C 143 861 168 877 198 887 C 228 897 265 903 309 903 C 355 903 392 898 422 889 C 452 879 475 865 492 845 C 509 825 521 800 527 770 C 533 740 537 704 537 662 C 537 626 530 592 517 561 C 504 529 488 499 468 471 C 448 443 426 415 402 389 C 378 362 354 335 332 308 C 310 281 289 253 271 225 C 253 196 240 166 232 135 L 543 135 L 543 -2 L 72 -2 L 72 84 Z" unicode="₂" />
<glyph horiz-adv-x="641" d="M 324 -8 C 280 -8 244 -3 214 6 C 184 16 160 31 141 53 C 122 75 107 103 97 137 C 87 171 80 212 76 262 L 229 279 C 231 249 233 225 237 206 C 240 186 245 171 252 160 C 258 148 267 140 278 136 C 289 131 304 129 322 129 C 340 129 355 131 367 136 C 379 140 388 148 394 158 C 400 168 405 181 407 197 C 409 213 410 232 410 256 L 410 311 C 410 331 408 348 405 361 C 401 374 395 384 387 391 C 379 397 368 402 355 404 C 341 406 325 408 305 408 L 240 408 L 240 539 L 303 539 C 322 539 338 540 351 542 C 363 544 373 549 381 556 C 388 563 393 573 396 585 C 399 597 401 614 401 635 L 401 672 C 401 688 400 702 398 714 C 396 726 393 736 388 744 C 382 752 375 758 365 762 C 355 766 342 768 326 768 C 308 768 293 766 282 762 C 271 758 262 752 255 744 C 248 735 243 723 239 709 C 235 694 232 676 229 655 L 82 678 C 88 718 96 753 108 782 C 119 811 134 835 153 853 C 172 871 196 884 224 892 C 252 900 287 905 328 905 C 370 905 405 900 433 891 C 461 882 484 869 502 851 C 520 833 532 811 540 784 C 547 757 551 726 551 690 L 551 637 C 551 595 544 562 532 537 C 519 512 499 493 473 481 C 504 469 526 449 539 422 C 552 395 559 357 559 307 L 559 242 C 559 198 555 161 547 129 C 539 97 525 71 507 51 C 489 31 465 16 435 6 C 405 -3 368 -8 324 -8 Z" unicode="₃" />
<glyph horiz-adv-x="633" d="M 336 191 L 49 191 L 49 328 L 324 895 L 481 895 L 481 328 L 573 328 L 573 191 L 481 191 L 481 0 L 336 0 L 336 191 Z M 336 326 L 336 632 L 188 326 L 336 326 Z" unicode="₄" />
<glyph horiz-adv-x="612" d="M 309 -10 C 262 -10 224 -4 194 8 C 164 20 141 37 123 60 C 105 83 92 111 84 143 C 76 175 70 212 66 254 L 215 275 C 217 245 220 221 223 203 C 226 184 231 169 238 158 C 244 147 253 139 264 135 C 274 131 289 129 307 129 C 324 129 338 131 350 137 C 361 142 370 150 376 162 C 382 173 387 187 389 205 C 391 222 393 243 393 268 L 393 367 C 393 410 388 443 378 465 C 368 487 347 498 313 498 C 290 498 271 495 256 490 C 241 485 228 471 217 449 L 90 467 L 117 895 L 510 895 L 510 760 L 244 760 L 234 600 C 249 610 267 617 287 622 C 307 626 328 629 352 629 C 391 629 423 623 448 612 C 473 600 493 583 507 561 C 521 538 531 510 537 476 C 542 442 545 402 545 356 L 545 254 C 545 212 541 174 533 142 C 525 109 512 81 494 59 C 476 36 451 19 421 7 C 391 -4 353 -10 309 -10 Z" unicode="₅" />
<glyph horiz-adv-x="629" d="M 317 -6 C 235 -6 176 13 138 52 C 100 91 82 156 82 246 L 82 657 C 82 693 86 727 94 757 C 102 787 115 812 133 834 C 151 856 176 873 206 885 C 236 897 274 903 319 903 C 355 903 387 898 414 890 C 440 882 463 870 481 855 C 499 840 513 822 523 801 C 533 780 541 757 547 731 L 393 696 C 391 708 389 719 387 728 C 384 736 380 743 374 749 C 368 755 360 759 350 762 C 340 764 328 766 313 766 C 296 766 282 763 271 758 C 260 752 251 745 245 736 C 239 726 234 715 232 702 C 230 688 229 673 229 657 L 229 571 C 244 589 262 603 282 611 C 302 619 327 623 358 623 C 423 623 472 603 505 563 C 538 523 555 457 555 367 L 555 250 C 555 162 536 97 500 56 C 464 14 403 -6 317 -6 Z M 317 129 C 335 129 349 131 361 136 C 372 141 381 149 387 159 C 393 169 397 182 399 198 C 401 214 403 232 403 254 L 403 365 C 403 389 402 410 400 426 C 398 442 394 455 388 465 C 382 475 373 482 362 486 C 350 490 335 492 317 492 C 301 492 287 490 276 486 C 264 482 255 475 248 465 C 241 455 236 442 233 426 C 230 410 229 389 229 365 L 229 254 C 229 229 230 209 233 193 C 236 177 241 164 248 154 C 255 144 264 138 276 134 C 287 130 301 129 317 129 Z" unicode="₆" />
<glyph horiz-adv-x="524" d="M 311 754 L 45 754 L 45 895 L 465 895 L 465 762 L 262 0 L 111 0 L 311 754 Z" unicode="₇" />
<glyph horiz-adv-x="657" d="M 328 -6 C 284 -6 247 -1 216 8 C 185 18 160 32 140 50 C 120 68 105 91 96 119 C 86 146 82 177 82 213 L 82 303 C 82 347 89 383 105 412 C 121 441 144 464 174 480 C 147 495 126 515 112 541 C 97 566 90 599 90 639 L 90 700 C 90 835 169 903 328 903 C 408 903 468 886 508 854 C 548 822 569 771 569 703 L 569 639 C 569 599 561 567 546 542 C 531 516 511 496 485 482 C 515 466 538 443 554 415 C 570 387 578 351 578 307 L 578 215 C 578 144 558 89 519 51 C 479 13 416 -6 328 -6 Z M 328 125 C 367 125 394 132 408 148 C 422 163 430 189 430 225 L 430 311 C 430 328 428 343 426 357 C 423 371 418 382 410 392 C 402 402 392 409 379 414 C 365 419 348 422 328 422 C 308 422 292 419 279 414 C 266 408 256 401 249 391 C 241 381 236 370 233 356 C 230 342 229 326 229 309 L 229 225 C 229 189 236 163 250 148 C 264 132 290 125 328 125 Z M 328 539 C 362 539 386 546 401 560 C 416 574 424 599 424 633 L 424 680 C 424 714 416 738 402 751 C 388 763 363 770 328 770 C 294 770 270 763 256 751 C 242 738 236 714 236 680 L 236 633 C 236 599 243 574 257 560 C 271 546 294 539 328 539 Z" unicode="₈" />
<glyph horiz-adv-x="629" d="M 309 -6 C 272 -6 240 -1 214 6 C 188 14 166 26 148 41 C 130 56 115 74 105 96 C 94 117 86 140 82 166 L 236 201 C 238 189 240 178 243 169 C 245 160 249 153 255 147 C 261 141 268 136 278 133 C 288 130 301 129 317 129 C 349 129 371 138 382 158 C 393 178 399 204 399 236 L 399 326 C 383 306 366 293 347 286 C 328 278 303 275 272 275 C 238 275 209 279 185 289 C 160 298 140 313 124 333 C 108 353 96 380 88 412 C 80 444 76 482 76 528 L 76 647 C 76 735 94 799 130 841 C 166 882 227 903 313 903 C 353 903 388 898 418 889 C 448 879 472 865 491 845 C 510 825 524 799 533 767 C 542 735 547 696 547 651 L 547 240 C 547 203 543 170 535 140 C 527 110 513 84 495 62 C 476 40 451 24 421 12 C 391 0 353 -6 309 -6 Z M 313 401 C 329 401 343 403 354 407 C 365 411 374 417 381 427 C 387 437 392 450 395 466 C 397 482 399 503 399 528 L 399 639 C 399 663 397 684 395 701 C 392 717 387 730 381 740 C 374 749 365 756 354 760 C 343 764 329 766 313 766 C 295 766 280 763 268 758 C 256 753 247 745 241 735 C 235 725 230 712 228 696 C 226 680 225 661 225 639 L 225 528 C 225 503 226 482 228 466 C 230 450 234 437 240 427 C 246 417 255 411 267 407 C 279 403 294 401 313 401 Z" unicode="₉" />
<glyph horiz-adv-x="188" d="" unicode=" " />
<glyph horiz-adv-x="428" d="M 121 213 L 145 926 L 285 926 L 307 213 L 307 0 L 121 0 L 121 213 Z M 121 1282 L 307 1282 L 307 1081 L 121 1081 L 121 1282 Z" unicode="¡" />
<glyph horiz-adv-x="666" d="M 256 4 C 196 16 150 43 118 87 C 86 131 70 194 70 276 L 70 623 C 70 661 73 696 79 728 C 85 760 95 787 109 811 C 123 834 143 853 167 868 C 191 883 220 894 256 900 L 256 1081 L 420 1081 L 420 902 C 454 897 483 888 507 876 C 530 864 549 847 564 825 C 579 803 590 775 598 743 C 605 710 610 671 614 627 L 444 600 C 442 636 439 665 436 687 C 432 708 427 724 419 734 C 411 744 401 751 388 754 C 375 756 358 758 338 758 C 318 758 302 755 289 750 C 276 745 266 737 258 727 C 250 716 245 702 242 685 C 239 668 238 647 238 623 L 238 279 C 238 252 240 230 244 212 C 248 194 255 180 264 170 C 273 160 284 153 298 149 C 311 145 326 143 344 143 C 361 143 376 144 389 147 C 401 149 412 155 421 165 C 429 174 436 188 442 207 C 447 226 451 252 455 285 L 621 260 C 614 218 606 182 596 152 C 586 122 573 96 557 75 C 541 54 522 38 500 26 C 477 14 450 5 420 1 L 420 -225 L 256 -225 L 256 4 Z" unicode="¢" />
<glyph horiz-adv-x="782" d="M 45 700 L 157 700 C 146 750 136 798 128 846 C 119 893 115 935 115 971 C 115 1023 120 1068 131 1108 C 141 1148 158 1181 182 1209 C 206 1236 237 1257 275 1271 C 313 1285 359 1292 414 1292 C 472 1292 520 1284 560 1270 C 600 1256 632 1235 658 1209 C 684 1183 704 1151 718 1114 C 732 1076 742 1035 748 989 L 565 954 C 562 983 558 1009 553 1031 C 548 1053 540 1072 530 1087 C 519 1102 505 1113 487 1121 C 469 1129 446 1133 418 1133 C 391 1133 369 1129 353 1121 C 336 1113 323 1103 314 1089 C 305 1075 299 1057 296 1037 C 292 1016 291 993 291 967 C 291 933 295 893 305 846 C 314 799 324 750 336 700 L 569 700 L 569 553 L 367 553 C 371 527 375 502 378 479 C 381 456 383 435 383 416 C 383 384 381 356 378 332 C 375 307 370 284 364 264 C 357 243 349 224 339 208 C 329 191 318 175 305 160 L 737 160 L 737 0 L 76 0 L 76 129 C 100 150 120 170 137 190 C 153 209 167 229 177 251 C 187 272 195 295 200 321 C 204 347 207 377 207 412 C 207 430 205 451 202 475 C 198 499 194 525 189 553 L 45 553 L 45 700 Z" unicode="£" />
<glyph horiz-adv-x="752" d="M 76 575 L 269 575 L 31 1282 L 215 1282 L 377 745 L 543 1282 L 719 1282 L 476 575 L 672 575 L 672 446 L 457 446 L 457 313 L 672 313 L 672 184 L 457 184 L 457 0 L 289 0 L 289 184 L 76 184 L 76 313 L 289 313 L 289 446 L 76 446 L 76 575 Z" unicode="¥" />
<glyph horiz-adv-x="422" d="M 123 332 L 299 332 L 299 -354 L 123 -354 L 123 332 Z M 123 1282 L 299 1282 L 299 598 L 123 598 L 123 1282 Z" unicode="¦" />
<glyph horiz-adv-x="647" d="M 324 -8 C 280 -8 242 -3 211 5 C 179 13 153 27 133 45 C 112 63 96 85 86 112 C 75 139 68 171 66 209 L 227 233 C 227 214 229 198 232 186 C 234 173 239 163 246 155 C 252 147 262 141 274 138 C 286 134 303 133 324 133 C 352 133 373 140 386 155 C 399 169 406 191 406 219 C 406 243 397 265 379 286 C 361 306 339 327 313 347 C 287 367 258 389 227 411 C 196 433 167 456 141 482 C 115 508 93 536 75 568 C 57 600 49 636 49 676 C 49 730 57 773 75 804 C 93 834 121 857 159 873 C 137 897 119 923 105 951 C 91 979 84 1010 84 1044 C 84 1078 87 1109 95 1139 C 103 1168 116 1194 136 1216 C 155 1238 181 1255 213 1267 C 245 1279 286 1286 336 1286 C 380 1286 418 1281 450 1272 C 482 1262 508 1248 529 1230 C 550 1212 566 1189 577 1161 C 588 1133 595 1101 598 1065 L 436 1040 C 434 1059 432 1075 430 1088 C 427 1101 422 1111 416 1119 C 409 1127 399 1132 387 1136 C 375 1139 358 1141 338 1141 C 280 1141 252 1113 252 1057 C 252 1033 260 1010 278 990 C 296 970 318 949 345 929 C 371 908 400 887 432 865 C 463 843 492 820 519 794 C 545 768 567 739 585 707 C 603 675 612 640 612 600 C 612 545 602 502 584 471 C 565 439 536 416 498 401 C 519 377 536 351 550 323 C 564 295 571 265 571 231 C 571 197 567 165 560 136 C 552 107 539 82 521 61 C 502 39 477 22 445 10 C 413 -1 372 -8 324 -8 Z M 444 594 C 444 609 439 624 430 638 C 420 652 408 667 393 681 C 378 695 361 709 341 724 C 321 738 300 753 280 769 C 256 765 240 757 230 744 C 220 730 215 710 215 682 C 215 666 219 651 228 637 C 237 622 249 608 264 594 C 279 580 296 565 316 551 C 336 536 356 521 377 506 C 401 509 419 517 429 531 C 439 544 444 565 444 594 Z" unicode="§" />
<glyph horiz-adv-x="766" d="M 176 1198 L 334 1198 L 334 1008 L 176 1008 L 176 1198 Z M 432 1198 L 592 1198 L 592 1008 L 432 1008 L 432 1198 Z" unicode="¨" />
<glyph horiz-adv-x="1032" d="M 514 188 C 434 188 376 208 339 248 C 301 288 283 352 283 440 L 283 850 C 283 1011 360 1092 516 1092 C 561 1092 599 1087 629 1077 C 659 1067 684 1052 702 1031 C 720 1010 733 983 741 949 C 749 915 754 873 756 825 L 616 801 C 614 835 613 862 611 884 C 609 906 605 923 599 936 C 592 949 582 958 569 963 C 556 968 538 971 516 971 C 500 971 486 969 474 965 C 462 961 451 955 443 946 C 435 937 428 925 424 909 C 420 893 418 874 418 850 L 418 436 C 418 412 419 392 422 376 C 425 360 431 347 439 337 C 447 327 457 319 471 315 C 484 311 501 309 522 309 C 542 309 559 310 571 314 C 583 318 593 326 600 338 C 607 350 612 367 616 389 C 619 411 622 441 625 479 L 758 457 C 756 413 751 375 743 341 C 735 307 721 279 703 257 C 685 234 660 217 630 205 C 599 193 560 188 514 188 Z M 514 -8 C 368 -8 260 24 190 90 C 119 156 84 253 84 381 L 84 918 C 84 972 92 1023 108 1069 C 124 1115 150 1154 185 1187 C 219 1220 264 1246 318 1264 C 372 1282 438 1292 514 1292 C 592 1292 658 1283 713 1265 C 768 1247 813 1221 848 1189 C 883 1157 909 1118 925 1073 C 941 1027 950 978 950 924 L 950 383 C 950 253 914 156 842 90 C 770 24 661 -8 514 -8 Z M 514 94 C 624 94 706 117 761 164 C 816 210 844 283 844 383 L 844 924 C 844 964 837 1000 825 1033 C 813 1066 793 1094 767 1117 C 740 1140 706 1158 664 1171 C 622 1183 572 1190 514 1190 C 456 1190 407 1183 366 1170 C 325 1156 291 1138 265 1114 C 238 1090 218 1061 206 1028 C 194 994 188 958 188 918 L 188 381 C 188 282 215 209 270 163 C 325 117 406 94 514 94 Z" unicode="©" />
<glyph horiz-adv-x="625" d="M 244 473 C 210 473 182 477 160 486 C 138 495 120 509 107 529 C 94 549 85 574 80 604 C 74 634 72 671 72 715 C 72 765 75 809 83 847 C 90 884 105 916 128 943 C 150 969 183 992 225 1010 C 267 1028 322 1043 391 1055 L 391 1067 C 391 1097 385 1120 374 1136 C 362 1151 339 1159 305 1159 C 291 1159 279 1157 270 1155 C 260 1152 253 1148 247 1142 C 241 1136 235 1128 231 1118 C 227 1108 223 1097 219 1083 L 70 1137 C 76 1160 86 1181 98 1200 C 110 1219 126 1235 146 1249 C 166 1263 190 1273 219 1281 C 248 1288 282 1292 322 1292 C 366 1292 403 1287 431 1279 C 459 1270 481 1257 497 1239 C 513 1221 524 1199 530 1172 C 536 1145 539 1113 539 1077 L 539 481 L 391 481 L 391 543 C 383 532 374 522 366 514 C 357 505 347 498 336 492 C 325 486 312 481 297 478 C 282 474 264 473 244 473 Z M 297 602 C 317 602 333 605 345 611 C 357 617 367 626 374 638 C 380 649 385 662 387 678 C 389 693 391 710 391 729 L 391 933 C 353 923 322 914 300 904 C 278 894 261 882 250 867 C 238 852 231 833 228 810 C 224 786 223 757 223 721 C 223 697 223 678 225 663 C 226 648 229 636 234 627 C 239 617 246 611 256 607 C 266 603 279 602 297 602 Z" unicode="ª" />
<glyph horiz-adv-x="711" d="M 49 451 L 182 897 L 352 897 L 217 451 L 352 0 L 182 0 L 49 451 Z M 356 451 L 492 897 L 657 897 L 524 451 L 657 0 L 492 0 L 356 451 Z" unicode="«" />
<glyph horiz-adv-x="836" d="M 29 834 L 137 834 L 137 942 C 137 1060 163 1147 216 1205 C 269 1263 351 1292 463 1292 C 526 1292 578 1285 619 1271 C 660 1257 693 1234 717 1203 C 741 1172 759 1132 770 1083 C 780 1034 787 975 791 905 L 608 889 C 606 935 604 974 602 1006 C 600 1038 594 1063 584 1082 C 574 1101 560 1115 541 1123 C 521 1131 495 1135 461 1135 C 411 1135 373 1120 348 1090 C 323 1060 311 1012 311 944 L 311 834 L 520 834 L 520 705 L 311 705 L 311 571 L 520 571 L 520 442 L 311 442 L 311 352 C 311 318 313 288 318 262 C 322 236 330 215 342 198 C 353 181 369 168 389 160 C 409 151 434 147 465 147 C 497 147 522 150 541 157 C 560 164 575 177 585 196 C 595 214 603 240 607 273 C 611 305 615 347 618 399 L 793 381 C 789 317 781 261 771 213 C 761 164 743 123 719 91 C 694 58 661 33 619 17 C 577 0 523 -8 457 -8 C 401 -8 352 -1 312 13 C 272 27 239 48 213 78 C 187 108 167 145 155 191 C 143 236 137 290 137 354 L 137 442 L 29 442 L 29 571 L 137 571 L 137 705 L 29 705 L 29 834 Z" unicode="€" />
<glyph horiz-adv-x="424" d="M 14 610 L 410 610 L 410 459 L 14 459 L 14 610 Z" unicode="­" />
<glyph horiz-adv-x="1032" d="M 322 1081 L 498 1081 C 538 1081 573 1077 603 1071 C 633 1064 658 1052 679 1035 C 699 1018 715 995 725 966 C 735 936 741 899 741 854 L 741 793 C 741 733 732 687 714 655 C 696 623 669 601 633 588 L 731 223 L 598 223 L 508 569 L 451 569 L 451 223 L 322 223 L 322 1081 Z M 514 -8 C 368 -8 260 24 190 90 C 119 156 84 253 84 381 L 84 918 C 84 972 92 1023 108 1069 C 124 1115 150 1154 185 1187 C 219 1220 264 1246 318 1264 C 372 1282 438 1292 514 1292 C 592 1292 658 1283 713 1265 C 768 1247 813 1221 848 1189 C 883 1157 909 1118 925 1073 C 941 1027 950 978 950 924 L 950 383 C 950 253 914 156 842 90 C 770 24 661 -8 514 -8 Z M 514 94 C 624 94 706 117 761 164 C 816 210 844 283 844 383 L 844 924 C 844 964 837 1000 825 1033 C 813 1066 793 1094 767 1117 C 740 1140 706 1158 664 1171 C 622 1183 572 1190 514 1190 C 456 1190 407 1183 366 1170 C 325 1156 291 1138 265 1114 C 238 1090 218 1061 206 1028 C 194 994 188 958 188 918 L 188 381 C 188 282 215 209 270 163 C 325 117 406 94 514 94 Z M 504 680 C 527 680 546 681 560 684 C 574 687 585 693 593 701 C 601 709 606 721 608 735 C 610 749 612 768 612 791 L 612 856 C 612 876 610 894 608 908 C 606 922 601 934 593 943 C 585 951 573 957 559 961 C 545 965 526 967 502 967 L 451 967 L 451 680 L 504 680 Z" unicode="®" />
<glyph horiz-adv-x="766" d="M 158 1149 L 610 1149 L 610 1008 L 158 1008 L 158 1149 Z" unicode="¯" />
<glyph horiz-adv-x="635" d="M 317 463 C 241 463 183 481 144 517 C 105 553 86 609 86 684 L 86 1077 C 86 1109 90 1138 99 1165 C 108 1191 122 1214 141 1233 C 159 1251 183 1266 213 1276 C 242 1286 277 1292 317 1292 C 397 1292 456 1273 493 1235 C 530 1197 549 1145 549 1081 L 549 686 C 549 610 529 553 490 517 C 451 481 393 463 317 463 Z M 317 596 C 345 596 366 603 382 617 C 398 631 406 656 406 692 L 406 1073 C 406 1130 376 1159 317 1159 C 259 1159 231 1129 231 1071 L 231 690 C 231 655 238 631 253 617 C 267 603 289 596 317 596 Z" unicode="°" />
<glyph horiz-adv-x="745" d="M 39 721 L 291 721 L 291 1004 L 453 1004 L 453 721 L 707 721 L 707 569 L 453 569 L 453 291 L 291 291 L 291 569 L 39 569 L 39 721 Z M 39 152 L 707 152 L 707 0 L 39 0 L 39 152 Z" unicode="±" />
<glyph horiz-adv-x="618" d="M 72 471 C 72 515 79 557 95 595 C 111 633 130 668 154 702 C 177 735 202 766 229 796 C 256 826 281 854 305 882 C 328 909 347 936 363 962 C 379 988 387 1015 387 1042 C 387 1062 386 1079 384 1093 C 382 1107 379 1118 373 1127 C 367 1136 359 1143 349 1147 C 338 1151 323 1153 305 1153 C 287 1153 272 1150 261 1145 C 249 1139 240 1131 234 1121 C 227 1110 222 1097 219 1082 C 215 1066 213 1048 211 1028 L 59 1047 C 63 1087 70 1122 80 1152 C 90 1182 105 1207 124 1228 C 143 1248 168 1264 198 1274 C 228 1284 265 1290 309 1290 C 355 1290 392 1285 422 1276 C 452 1266 475 1252 492 1232 C 509 1212 521 1187 527 1157 C 533 1127 537 1091 537 1049 C 537 1013 530 979 517 948 C 504 916 488 886 468 858 C 448 830 426 802 402 776 C 378 749 354 722 332 695 C 310 668 289 640 271 612 C 253 583 240 553 232 522 L 543 522 L 543 385 L 72 385 L 72 471 Z" unicode="²" />
<glyph horiz-adv-x="641" d="M 324 379 C 280 379 244 383 214 393 C 184 403 160 418 141 440 C 122 462 107 490 97 524 C 87 558 80 599 76 649 L 229 666 C 231 636 233 612 237 593 C 240 573 245 558 252 547 C 258 535 267 527 278 523 C 289 518 304 516 322 516 C 340 516 355 518 367 523 C 379 527 388 535 394 545 C 400 555 405 568 407 584 C 409 600 410 619 410 643 L 410 698 C 410 718 408 735 405 748 C 401 761 395 771 387 778 C 379 784 368 789 355 791 C 341 793 325 795 305 795 L 240 795 L 240 926 L 303 926 C 322 926 338 927 351 929 C 363 931 373 936 381 943 C 388 950 393 960 396 972 C 399 984 401 1001 401 1022 L 401 1059 C 401 1075 400 1089 398 1101 C 396 1113 393 1123 388 1131 C 382 1139 375 1145 365 1149 C 355 1153 342 1155 326 1155 C 308 1155 293 1153 282 1149 C 271 1145 262 1139 255 1131 C 248 1122 243 1110 239 1096 C 235 1081 232 1063 229 1042 L 82 1065 C 88 1105 96 1140 108 1169 C 119 1198 134 1222 153 1240 C 172 1258 196 1271 224 1279 C 252 1287 287 1292 328 1292 C 370 1292 405 1287 433 1278 C 461 1269 484 1256 502 1238 C 520 1220 532 1198 540 1171 C 547 1144 551 1113 551 1077 L 551 1024 C 551 982 544 949 532 924 C 519 899 499 880 473 868 C 504 856 526 836 539 809 C 552 782 559 744 559 694 L 559 629 C 559 585 555 548 547 516 C 539 484 525 458 507 438 C 489 418 465 403 435 393 C 405 383 368 379 324 379 Z" unicode="³" />
<glyph horiz-adv-x="766" d="M 403 1262 L 586 1262 L 457 1008 L 301 1008 L 403 1262 Z" unicode="´" />
<glyph horiz-adv-x="662" d="M 57 897 L 225 897 L 225 256 C 225 216 231 187 245 169 C 258 151 282 143 317 143 C 339 143 358 144 374 148 C 389 151 401 158 410 170 C 419 181 426 197 430 218 C 434 239 436 267 436 303 L 436 897 L 604 897 L 604 0 L 436 0 L 436 66 C 419 49 397 35 371 24 C 345 13 317 7 287 6 C 275 6 264 7 254 9 C 243 11 233 16 225 23 L 225 -324 L 57 -324 L 57 897 Z" unicode="µ" />
<glyph horiz-adv-x="780" d="M 238 659 C 208 666 181 677 159 691 C 136 705 117 724 101 748 C 85 771 74 799 66 832 C 58 865 55 904 55 950 L 55 979 C 55 1039 61 1089 75 1129 C 89 1168 109 1199 136 1222 C 163 1244 197 1260 238 1269 C 279 1277 327 1282 381 1282 L 682 1282 L 682 0 L 506 0 L 506 645 L 414 645 L 414 0 L 238 0 L 238 659 Z" unicode="¶" />
<glyph horiz-adv-x="305" d="M 59 768 L 246 768 L 246 557 L 59 557 L 59 768 Z" unicode="·" />
<glyph horiz-adv-x="995" d="M 518 -375 C 480 -375 450 -371 428 -363 C 406 -355 389 -344 377 -330 C 365 -316 356 -299 352 -281 C 348 -263 344 -243 342 -223 L 457 -209 C 458 -221 460 -231 462 -240 C 464 -248 467 -255 471 -261 C 475 -266 481 -270 489 -272 C 496 -274 506 -276 518 -276 C 530 -276 540 -274 548 -272 C 556 -270 562 -266 566 -260 C 570 -254 572 -245 573 -235 C 574 -224 575 -211 575 -195 C 575 -165 572 -144 567 -133 C 562 -122 549 -117 528 -117 C 516 -117 508 -118 502 -120 C 496 -122 490 -125 485 -131 L 399 -102 L 453 41 L 559 41 L 526 -43 C 536 -40 550 -39 569 -39 C 590 -39 608 -41 624 -46 C 640 -51 653 -60 663 -72 C 673 -84 681 -100 686 -120 C 691 -140 694 -166 694 -197 C 694 -229 691 -257 687 -280 C 683 -302 674 -321 662 -335 C 649 -349 631 -359 608 -365 C 585 -371 555 -375 518 -375 Z" unicode="¸" />
<glyph horiz-adv-x="526" d="M 211 1141 L 88 1141 L 88 1282 L 365 1282 L 365 387 L 211 387 L 211 1141 Z" unicode="¹" />
<glyph horiz-adv-x="631" d="M 315 473 C 234 473 173 493 133 533 C 92 573 72 637 72 725 L 72 1034 C 72 1080 76 1119 85 1151 C 94 1183 108 1210 128 1231 C 147 1252 172 1267 203 1277 C 234 1287 271 1292 315 1292 C 359 1292 396 1287 428 1278 C 459 1268 484 1254 504 1234 C 524 1214 538 1188 547 1156 C 556 1124 561 1085 561 1040 L 561 729 C 561 639 540 574 500 534 C 460 493 398 473 315 473 Z M 315 610 C 333 610 348 612 360 616 C 372 620 381 626 388 636 C 395 645 400 657 403 672 C 406 687 408 706 408 729 L 408 1038 C 408 1060 406 1079 404 1094 C 401 1109 396 1121 389 1130 C 382 1139 373 1145 361 1149 C 349 1153 333 1155 315 1155 C 279 1155 255 1146 242 1129 C 229 1111 223 1080 223 1036 L 223 729 C 223 706 224 687 228 672 C 231 657 236 645 244 636 C 251 626 260 620 272 616 C 284 612 298 610 315 610 Z" unicode="º" />
<glyph horiz-adv-x="711" d="M 186 449 L 53 897 L 221 897 L 356 449 L 221 0 L 53 0 L 186 449 Z M 496 449 L 360 897 L 528 897 L 662 449 L 528 0 L 360 0 L 496 449 Z" unicode="»" />
<glyph horiz-adv-x="1274" d="M 948 190 L 662 190 L 662 326 L 936 895 L 1094 895 L 1094 326 L 1186 326 L 1186 190 L 1094 190 L 1094 0 L 948 0 L 948 190 Z M 698 1282 L 858 1282 L 463 0 L 303 0 L 698 1282 Z M 195 1141 L 74 1141 L 74 1282 L 350 1282 L 350 387 L 195 387 L 195 1141 Z M 948 326 L 948 632 L 801 326 L 948 326 Z" unicode="¼" />
<glyph horiz-adv-x="1307" d="M 758 86 C 758 130 765 172 781 210 C 797 248 816 283 840 317 C 863 350 888 381 915 410 C 942 439 967 467 991 495 C 1014 522 1033 548 1049 574 C 1065 600 1073 626 1073 653 C 1073 673 1072 691 1070 705 C 1068 719 1065 730 1059 739 C 1053 747 1045 754 1035 758 C 1024 762 1009 764 991 764 C 973 764 959 761 948 756 C 937 750 928 742 921 732 C 914 721 909 708 905 693 C 901 677 899 659 897 639 L 748 659 C 752 698 759 733 769 763 C 779 793 793 819 812 839 C 830 859 854 875 884 885 C 913 895 949 901 993 901 C 1040 901 1078 896 1108 887 C 1138 877 1161 863 1178 843 C 1195 823 1207 798 1213 768 C 1219 738 1223 701 1223 659 C 1223 623 1216 590 1203 559 C 1190 528 1174 499 1154 471 C 1134 443 1112 415 1088 389 C 1064 363 1040 336 1018 309 C 996 282 975 254 957 226 C 939 198 926 168 918 137 L 1229 137 L 1229 0 L 758 0 L 758 86 Z M 698 1282 L 858 1282 L 463 0 L 303 0 L 698 1282 Z M 195 1141 L 74 1141 L 74 1282 L 350 1282 L 350 387 L 195 387 L 195 1141 Z" unicode="½" />
<glyph horiz-adv-x="1438" d="M 1112 190 L 823 190 L 823 326 L 1100 895 L 1255 895 L 1255 326 L 1350 326 L 1350 190 L 1255 190 L 1255 0 L 1112 0 L 1112 190 Z M 315 379 C 271 379 235 383 206 393 C 176 403 152 418 133 440 C 114 462 100 490 90 524 C 80 558 73 599 70 649 L 219 666 C 221 636 224 612 228 593 C 231 573 236 558 243 547 C 249 535 258 527 269 523 C 280 518 295 516 313 516 C 331 516 346 518 358 523 C 370 527 379 535 385 545 C 391 555 396 568 398 584 C 400 600 401 619 401 643 L 401 698 C 401 718 399 735 396 748 C 392 761 387 771 379 778 C 371 784 360 789 347 791 C 333 793 317 795 297 795 L 231 795 L 231 926 L 295 926 C 315 926 331 927 344 929 C 356 931 366 936 374 943 C 381 950 386 960 389 972 C 391 984 393 1001 393 1022 L 393 1059 C 393 1075 392 1089 390 1101 C 388 1113 385 1123 380 1131 C 374 1139 367 1145 357 1149 C 347 1153 333 1155 317 1155 C 299 1155 284 1153 273 1149 C 262 1145 253 1139 247 1131 C 240 1122 235 1110 231 1096 C 227 1081 223 1063 221 1042 L 74 1065 C 80 1105 89 1140 101 1169 C 112 1198 127 1222 146 1240 C 165 1258 189 1271 217 1279 C 245 1287 280 1292 322 1292 C 363 1292 398 1287 426 1278 C 454 1269 476 1256 494 1238 C 511 1220 523 1198 531 1171 C 539 1144 543 1113 543 1077 L 543 1024 C 543 982 536 949 524 924 C 511 899 491 880 465 868 C 495 856 518 836 532 809 C 546 782 553 744 553 694 L 553 629 C 553 585 549 548 541 516 C 533 484 519 458 501 438 C 482 418 457 403 427 393 C 397 383 359 379 315 379 Z M 860 1282 L 1020 1282 L 627 0 L 465 0 L 860 1282 Z M 1112 326 L 1112 635 L 965 326 L 1112 326 Z" unicode="¾" />
<glyph horiz-adv-x="721" d="M 348 -10 C 290 -10 242 -3 203 9 C 164 22 133 42 109 68 C 85 94 68 126 58 166 C 48 205 43 251 43 305 C 43 344 48 381 59 415 C 70 449 84 482 100 512 C 116 542 134 572 153 600 C 172 628 190 655 206 682 C 222 709 236 736 247 764 C 258 791 264 820 264 850 L 264 926 L 440 926 L 440 854 C 440 812 434 773 424 739 C 413 705 399 673 383 643 C 367 613 349 584 330 558 C 311 531 293 505 277 479 C 261 453 247 426 237 399 C 226 371 221 342 221 311 C 221 285 222 263 224 243 C 226 223 231 206 240 192 C 248 178 261 168 279 161 C 296 153 320 150 350 150 C 376 150 397 153 415 160 C 433 166 447 177 458 191 C 469 205 477 222 483 243 C 489 264 493 289 496 319 L 678 293 C 672 252 663 213 651 177 C 639 140 620 108 595 80 C 570 52 538 30 498 14 C 458 -1 408 -10 348 -10 Z M 254 1282 L 442 1282 L 442 1081 L 254 1081 L 254 1282 Z" unicode="¿" />
<glyph horiz-adv-x="707" d="M 258 1290 L 449 1290 L 692 0 L 514 0 L 459 297 L 242 297 L 186 0 L 16 0 L 258 1290 Z M 440 442 L 389 748 L 352 971 L 315 748 L 262 442 L 440 442 Z M 154 1616 L 334 1616 L 439 1362 L 283 1362 L 154 1616 Z" unicode="À" />
<glyph horiz-adv-x="707" d="M 258 1290 L 449 1290 L 692 0 L 514 0 L 459 297 L 242 297 L 186 0 L 16 0 L 258 1290 Z M 440 442 L 389 748 L 352 971 L 315 748 L 262 442 L 440 442 Z M 377 1616 L 560 1616 L 431 1362 L 275 1362 L 377 1616 Z" unicode="Á" />
<glyph horiz-adv-x="707" d="M 258 1290 L 449 1290 L 692 0 L 514 0 L 459 297 L 242 297 L 186 0 L 16 0 L 258 1290 Z M 440 442 L 389 748 L 352 971 L 315 748 L 262 442 L 440 442 Z M 257 1616 L 459 1616 L 584 1362 L 439 1362 L 355 1515 L 273 1362 L 132 1362 L 257 1616 Z" unicode="Â" />
<glyph horiz-adv-x="707" d="M 258 1290 L 449 1290 L 692 0 L 514 0 L 459 297 L 242 297 L 186 0 L 16 0 L 258 1290 Z M 440 442 L 389 748 L 352 971 L 315 748 L 262 442 L 440 442 Z M 107 1362 C 107 1405 109 1441 113 1470 C 117 1499 125 1522 135 1540 C 145 1557 159 1569 177 1576 C 194 1583 216 1587 242 1587 C 264 1587 286 1582 306 1573 C 326 1563 345 1553 363 1542 C 380 1530 395 1520 409 1511 C 423 1501 435 1497 445 1497 C 451 1497 455 1498 459 1500 C 463 1502 466 1507 468 1514 C 470 1520 471 1530 471 1542 C 471 1554 472 1569 472 1589 L 605 1589 C 605 1551 603 1519 601 1491 C 598 1463 592 1439 583 1421 C 573 1402 560 1388 542 1378 C 524 1368 501 1364 472 1364 C 450 1364 429 1368 409 1377 C 389 1386 370 1396 352 1407 C 334 1418 317 1428 303 1438 C 289 1447 277 1452 267 1452 C 254 1452 246 1445 243 1433 C 239 1420 238 1396 238 1362 L 107 1362 Z" unicode="Ã" />
<glyph horiz-adv-x="707" d="M 258 1290 L 449 1290 L 692 0 L 514 0 L 459 297 L 242 297 L 186 0 L 16 0 L 258 1290 Z M 440 442 L 389 748 L 352 971 L 315 748 L 262 442 L 440 442 Z M 150 1552 L 308 1552 L 308 1362 L 150 1362 L 150 1552 Z M 406 1552 L 566 1552 L 566 1362 L 406 1362 L 406 1552 Z" unicode="Ä" />
<glyph horiz-adv-x="707" d="M 692 0 L 514 0 L 459 297 L 242 297 L 186 0 L 16 0 L 246 1228 C 236 1235 228 1243 222 1253 C 210 1269 203 1288 200 1310 C 196 1332 195 1354 195 1378 C 195 1401 196 1423 200 1445 C 203 1466 210 1485 222 1501 C 233 1517 249 1529 270 1539 C 291 1549 320 1554 356 1554 C 392 1554 420 1549 442 1539 C 463 1529 479 1517 491 1501 C 502 1485 509 1466 513 1445 C 516 1423 518 1401 518 1378 C 518 1354 516 1332 513 1310 C 509 1288 502 1269 491 1253 C 483 1242 473 1233 461 1225 L 692 0 Z M 440 442 L 389 748 L 352 971 L 315 748 L 262 442 L 440 442 Z M 356 1290 C 372 1290 384 1292 393 1296 C 401 1300 408 1307 412 1315 C 416 1323 418 1332 419 1343 C 419 1353 420 1365 420 1378 C 420 1390 419 1401 419 1412 C 418 1422 416 1432 412 1440 C 408 1448 401 1454 393 1459 C 384 1463 372 1466 356 1466 C 340 1466 327 1463 319 1459 C 311 1454 305 1448 301 1440 C 297 1432 294 1422 294 1412 C 293 1401 293 1390 293 1378 C 293 1365 293 1353 294 1343 C 294 1332 297 1323 301 1315 C 305 1307 311 1300 319 1296 C 327 1292 340 1290 356 1290 Z" unicode="Å" />
<glyph horiz-adv-x="1100" d="M 389 1282 L 1063 1282 L 1063 1120 L 698 1120 L 698 782 L 1001 782 L 1001 627 L 698 627 L 698 160 L 1063 160 L 1063 0 L 524 0 L 524 309 L 279 309 L 190 0 L 18 0 L 389 1282 Z M 524 457 L 524 1154 L 322 457 L 524 457 Z" unicode="Æ" />
<glyph horiz-adv-x="772" d="M 303 78 L 39 78 L 39 229 L 303 229 L 303 731 L 39 731 L 39 883 L 303 883 L 303 1282 L 469 1282 L 469 883 L 733 883 L 733 731 L 469 731 L 469 229 L 733 229 L 733 78 L 469 78 L 469 -322 L 303 -322 L 303 78 Z" unicode="‡" />
<glyph horiz-adv-x="653" d="M 74 1282 L 618 1282 L 618 1120 L 252 1120 L 252 782 L 557 782 L 557 627 L 252 627 L 252 160 L 618 160 L 618 0 L 74 0 L 74 1282 Z M 127 1616 L 307 1616 L 412 1362 L 256 1362 L 127 1616 Z" unicode="È" />
<glyph horiz-adv-x="653" d="M 74 1282 L 618 1282 L 618 1120 L 252 1120 L 252 782 L 557 782 L 557 627 L 252 627 L 252 160 L 618 160 L 618 0 L 74 0 L 74 1282 Z M 350 1616 L 533 1616 L 404 1362 L 248 1362 L 350 1616 Z" unicode="É" />
<glyph horiz-adv-x="653" d="M 74 1282 L 618 1282 L 618 1120 L 252 1120 L 252 782 L 557 782 L 557 627 L 252 627 L 252 160 L 618 160 L 618 0 L 74 0 L 74 1282 Z M 243 1616 L 445 1616 L 570 1362 L 425 1362 L 341 1515 L 259 1362 L 118 1362 L 243 1616 Z" unicode="Ê" />
<glyph horiz-adv-x="653" d="M 74 1282 L 618 1282 L 618 1120 L 252 1120 L 252 782 L 557 782 L 557 627 L 252 627 L 252 160 L 618 160 L 618 0 L 74 0 L 74 1282 Z M 133 1552 L 291 1552 L 291 1362 L 133 1362 L 133 1552 Z M 389 1552 L 549 1552 L 549 1362 L 389 1362 L 389 1552 Z" unicode="Ë" />
<glyph horiz-adv-x="334" d="M 78 1282 L 254 1282 L 254 0 L 78 0 L 78 1282 Z M -32 1616 L 148 1616 L 253 1362 L 97 1362 L -32 1616 Z" unicode="Ì" />
<glyph horiz-adv-x="334" d="M 78 1282 L 254 1282 L 254 0 L 78 0 L 78 1282 Z M 191 1616 L 374 1616 L 245 1362 L 89 1362 L 191 1616 Z" unicode="Í" />
<glyph horiz-adv-x="334" d="M 78 1282 L 254 1282 L 254 0 L 78 0 L 78 1282 Z M 71 1616 L 273 1616 L 398 1362 L 253 1362 L 169 1515 L 87 1362 L -54 1362 L 71 1616 Z" unicode="Î" />
<glyph horiz-adv-x="334" d="M 78 1282 L 254 1282 L 254 0 L 78 0 L 78 1282 Z M -36 1552 L 122 1552 L 122 1362 L -36 1362 L -36 1552 Z M 220 1552 L 380 1552 L 380 1362 L 220 1362 L 220 1552 Z" unicode="Ï" />
<glyph horiz-adv-x="784" d="M 0 797 L 74 797 L 74 1282 L 393 1282 C 460 1282 515 1273 559 1256 C 603 1239 637 1216 663 1187 C 688 1157 706 1122 716 1082 C 726 1042 731 998 731 952 L 731 352 C 731 298 725 250 714 207 C 703 163 685 126 659 96 C 633 65 598 41 555 25 C 512 8 459 0 395 0 L 74 0 L 74 645 L 0 645 L 0 797 Z M 395 156 C 425 156 450 159 470 167 C 490 174 506 185 518 201 C 530 217 538 237 543 262 C 548 286 551 316 551 350 L 551 950 C 551 979 548 1004 543 1026 C 538 1048 530 1066 518 1081 C 506 1095 489 1106 469 1113 C 449 1120 423 1124 393 1124 L 252 1124 L 252 797 L 430 797 L 430 645 L 252 645 L 252 156 L 395 156 Z" unicode="Ð" />
<glyph horiz-adv-x="776" d="M 74 1282 L 303 1282 L 532 514 L 532 1282 L 700 1282 L 700 0 L 528 0 L 244 934 L 244 0 L 74 0 L 74 1282 Z M 137 1362 C 137 1405 139 1441 143 1470 C 147 1499 155 1522 165 1540 C 175 1557 189 1569 207 1576 C 224 1583 246 1587 272 1587 C 294 1587 316 1582 336 1573 C 356 1563 375 1553 393 1542 C 410 1530 425 1520 439 1511 C 453 1501 465 1497 475 1497 C 481 1497 485 1498 489 1500 C 493 1502 496 1507 498 1514 C 500 1520 501 1530 501 1542 C 501 1554 502 1569 502 1589 L 635 1589 C 635 1551 633 1519 631 1491 C 628 1463 622 1439 613 1421 C 603 1402 590 1388 572 1378 C 554 1368 531 1364 502 1364 C 480 1364 459 1368 439 1377 C 419 1386 400 1396 382 1407 C 364 1418 347 1428 333 1438 C 319 1447 307 1452 297 1452 C 284 1452 276 1445 273 1433 C 269 1420 268 1396 268 1362 L 137 1362 Z" unicode="Ñ" />
<glyph horiz-adv-x="778" d="M 387 -8 C 275 -8 192 20 136 77 C 80 133 53 226 53 354 L 53 942 C 53 996 59 1045 72 1089 C 84 1132 104 1169 131 1199 C 158 1229 193 1252 235 1268 C 277 1284 328 1292 387 1292 C 447 1292 499 1284 541 1269 C 583 1253 618 1231 645 1202 C 672 1172 692 1136 704 1094 C 716 1051 723 1002 723 948 L 723 356 C 723 291 716 236 702 190 C 688 144 668 106 640 77 C 612 47 577 26 535 12 C 493 -1 443 -8 387 -8 Z M 387 150 C 411 150 433 153 453 159 C 472 165 488 176 502 192 C 516 207 526 227 534 253 C 541 279 545 311 545 350 L 545 946 C 545 1012 532 1060 506 1088 C 480 1116 441 1130 387 1130 C 333 1130 294 1115 270 1087 C 245 1058 233 1010 233 944 L 233 352 C 233 312 236 280 242 254 C 248 228 257 207 269 192 C 281 176 297 165 317 159 C 336 153 359 150 387 150 Z M 184 1616 L 364 1616 L 469 1362 L 313 1362 L 184 1616 Z" unicode="Ò" />
<glyph horiz-adv-x="778" d="M 387 -8 C 275 -8 192 20 136 77 C 80 133 53 226 53 354 L 53 942 C 53 996 59 1045 72 1089 C 84 1132 104 1169 131 1199 C 158 1229 193 1252 235 1268 C 277 1284 328 1292 387 1292 C 447 1292 499 1284 541 1269 C 583 1253 618 1231 645 1202 C 672 1172 692 1136 704 1094 C 716 1051 723 1002 723 948 L 723 356 C 723 291 716 236 702 190 C 688 144 668 106 640 77 C 612 47 577 26 535 12 C 493 -1 443 -8 387 -8 Z M 387 150 C 411 150 433 153 453 159 C 472 165 488 176 502 192 C 516 207 526 227 534 253 C 541 279 545 311 545 350 L 545 946 C 545 1012 532 1060 506 1088 C 480 1116 441 1130 387 1130 C 333 1130 294 1115 270 1087 C 245 1058 233 1010 233 944 L 233 352 C 233 312 236 280 242 254 C 248 228 257 207 269 192 C 281 176 297 165 317 159 C 336 153 359 150 387 150 Z M 407 1616 L 590 1616 L 461 1362 L 305 1362 L 407 1616 Z" unicode="Ó" />
<glyph horiz-adv-x="778" d="M 387 -8 C 275 -8 192 20 136 77 C 80 133 53 226 53 354 L 53 942 C 53 996 59 1045 72 1089 C 84 1132 104 1169 131 1199 C 158 1229 193 1252 235 1268 C 277 1284 328 1292 387 1292 C 447 1292 499 1284 541 1269 C 583 1253 618 1231 645 1202 C 672 1172 692 1136 704 1094 C 716 1051 723 1002 723 948 L 723 356 C 723 291 716 236 702 190 C 688 144 668 106 640 77 C 612 47 577 26 535 12 C 493 -1 443 -8 387 -8 Z M 387 150 C 411 150 433 153 453 159 C 472 165 488 176 502 192 C 516 207 526 227 534 253 C 541 279 545 311 545 350 L 545 946 C 545 1012 532 1060 506 1088 C 480 1116 441 1130 387 1130 C 333 1130 294 1115 270 1087 C 245 1058 233 1010 233 944 L 233 352 C 233 312 236 280 242 254 C 248 228 257 207 269 192 C 281 176 297 165 317 159 C 336 153 359 150 387 150 Z M 287 1616 L 489 1616 L 614 1362 L 469 1362 L 385 1515 L 303 1362 L 162 1362 L 287 1616 Z" unicode="Ô" />
<glyph horiz-adv-x="778" d="M 387 -8 C 275 -8 192 20 136 77 C 80 133 53 226 53 354 L 53 942 C 53 996 59 1045 72 1089 C 84 1132 104 1169 131 1199 C 158 1229 193 1252 235 1268 C 277 1284 328 1292 387 1292 C 447 1292 499 1284 541 1269 C 583 1253 618 1231 645 1202 C 672 1172 692 1136 704 1094 C 716 1051 723 1002 723 948 L 723 356 C 723 291 716 236 702 190 C 688 144 668 106 640 77 C 612 47 577 26 535 12 C 493 -1 443 -8 387 -8 Z M 387 150 C 411 150 433 153 453 159 C 472 165 488 176 502 192 C 516 207 526 227 534 253 C 541 279 545 311 545 350 L 545 946 C 545 1012 532 1060 506 1088 C 480 1116 441 1130 387 1130 C 333 1130 294 1115 270 1087 C 245 1058 233 1010 233 944 L 233 352 C 233 312 236 280 242 254 C 248 228 257 207 269 192 C 281 176 297 165 317 159 C 336 153 359 150 387 150 Z M 137 1362 C 137 1405 139 1441 143 1470 C 147 1499 155 1522 165 1540 C 175 1557 189 1569 207 1576 C 224 1583 246 1587 272 1587 C 294 1587 316 1582 336 1573 C 356 1563 375 1553 393 1542 C 410 1530 425 1520 439 1511 C 453 1501 465 1497 475 1497 C 481 1497 485 1498 489 1500 C 493 1502 496 1507 498 1514 C 500 1520 501 1530 501 1542 C 501 1554 502 1569 502 1589 L 635 1589 C 635 1551 633 1519 631 1491 C 628 1463 622 1439 613 1421 C 603 1402 590 1388 572 1378 C 554 1368 531 1364 502 1364 C 480 1364 459 1368 439 1377 C 419 1386 400 1396 382 1407 C 364 1418 347 1428 333 1438 C 319 1447 307 1452 297 1452 C 284 1452 276 1445 273 1433 C 269 1420 268 1396 268 1362 L 137 1362 Z" unicode="Õ" />
<glyph horiz-adv-x="778" d="M 387 -8 C 275 -8 192 20 136 77 C 80 133 53 226 53 354 L 53 942 C 53 996 59 1045 72 1089 C 84 1132 104 1169 131 1199 C 158 1229 193 1252 235 1268 C 277 1284 328 1292 387 1292 C 447 1292 499 1284 541 1269 C 583 1253 618 1231 645 1202 C 672 1172 692 1136 704 1094 C 716 1051 723 1002 723 948 L 723 356 C 723 291 716 236 702 190 C 688 144 668 106 640 77 C 612 47 577 26 535 12 C 493 -1 443 -8 387 -8 Z M 387 150 C 411 150 433 153 453 159 C 472 165 488 176 502 192 C 516 207 526 227 534 253 C 541 279 545 311 545 350 L 545 946 C 545 1012 532 1060 506 1088 C 480 1116 441 1130 387 1130 C 333 1130 294 1115 270 1087 C 245 1058 233 1010 233 944 L 233 352 C 233 312 236 280 242 254 C 248 228 257 207 269 192 C 281 176 297 165 317 159 C 336 153 359 150 387 150 Z M 180 1552 L 338 1552 L 338 1362 L 180 1362 L 180 1552 Z M 436 1552 L 596 1552 L 596 1362 L 436 1362 L 436 1552 Z" unicode="Ö" />
<glyph horiz-adv-x="782" d="M 72 420 L 285 633 L 72 848 L 176 952 L 389 737 L 604 952 L 711 848 L 496 633 L 709 420 L 606 315 L 391 528 L 178 315 L 72 420 Z" unicode="×" />
<glyph horiz-adv-x="778" d="M 146 67 C 114 96 91 134 76 181 C 60 227 53 285 53 354 L 53 942 C 53 996 59 1045 72 1089 C 84 1132 104 1169 131 1199 C 158 1229 193 1252 235 1268 C 277 1284 328 1292 387 1292 C 406 1292 424 1291 442 1289 C 460 1287 477 1285 493 1282 L 524 1384 L 680 1384 L 630 1217 C 662 1187 686 1149 701 1105 C 715 1060 723 1008 723 948 L 723 356 C 723 291 716 236 702 190 C 688 144 668 106 640 77 C 612 47 577 26 535 12 C 493 -1 443 -8 387 -8 C 349 -8 315 -5 285 1 L 248 -129 L 90 -129 L 146 67 Z M 387 147 C 411 147 433 150 453 156 C 473 162 489 173 503 189 C 517 205 527 225 534 251 C 541 277 545 309 545 348 L 545 950 C 545 1016 532 1063 507 1092 C 481 1120 441 1135 387 1135 C 333 1135 294 1120 269 1091 C 243 1061 231 1014 231 948 L 231 350 C 231 310 234 278 240 252 C 246 226 255 205 268 189 C 281 173 297 162 317 156 C 336 150 359 147 387 147 Z" unicode="Ø" />
<glyph horiz-adv-x="774" d="M 389 -8 C 333 -8 284 -1 243 10 C 202 22 168 43 142 71 C 115 99 95 135 82 180 C 69 224 63 279 63 344 L 63 1282 L 242 1282 L 242 352 C 242 312 244 280 250 254 C 255 228 263 207 275 192 C 286 176 301 165 320 159 C 338 153 361 150 389 150 C 413 150 435 153 453 159 C 471 165 487 176 499 192 C 511 207 521 227 527 253 C 533 279 537 311 537 350 L 537 1282 L 711 1282 L 711 346 C 711 281 704 226 692 181 C 680 136 661 100 635 72 C 609 44 575 23 535 11 C 494 -1 445 -8 389 -8 Z M 182 1616 L 362 1616 L 467 1362 L 311 1362 L 182 1616 Z" unicode="Ù" />
<glyph horiz-adv-x="774" d="M 389 -8 C 333 -8 284 -1 243 10 C 202 22 168 43 142 71 C 115 99 95 135 82 180 C 69 224 63 279 63 344 L 63 1282 L 242 1282 L 242 352 C 242 312 244 280 250 254 C 255 228 263 207 275 192 C 286 176 301 165 320 159 C 338 153 361 150 389 150 C 413 150 435 153 453 159 C 471 165 487 176 499 192 C 511 207 521 227 527 253 C 533 279 537 311 537 350 L 537 1282 L 711 1282 L 711 346 C 711 281 704 226 692 181 C 680 136 661 100 635 72 C 609 44 575 23 535 11 C 494 -1 445 -8 389 -8 Z M 405 1616 L 588 1616 L 459 1362 L 303 1362 L 405 1616 Z" unicode="Ú" />
<glyph horiz-adv-x="774" d="M 389 -8 C 333 -8 284 -1 243 10 C 202 22 168 43 142 71 C 115 99 95 135 82 180 C 69 224 63 279 63 344 L 63 1282 L 242 1282 L 242 352 C 242 312 244 280 250 254 C 255 228 263 207 275 192 C 286 176 301 165 320 159 C 338 153 361 150 389 150 C 413 150 435 153 453 159 C 471 165 487 176 499 192 C 511 207 521 227 527 253 C 533 279 537 311 537 350 L 537 1282 L 711 1282 L 711 346 C 711 281 704 226 692 181 C 680 136 661 100 635 72 C 609 44 575 23 535 11 C 494 -1 445 -8 389 -8 Z M 285 1616 L 487 1616 L 612 1362 L 467 1362 L 383 1515 L 301 1362 L 160 1362 L 285 1616 Z" unicode="Û" />
<glyph horiz-adv-x="774" d="M 389 -8 C 333 -8 284 -1 243 10 C 202 22 168 43 142 71 C 115 99 95 135 82 180 C 69 224 63 279 63 344 L 63 1282 L 242 1282 L 242 352 C 242 312 244 280 250 254 C 255 228 263 207 275 192 C 286 176 301 165 320 159 C 338 153 361 150 389 150 C 413 150 435 153 453 159 C 471 165 487 176 499 192 C 511 207 521 227 527 253 C 533 279 537 311 537 350 L 537 1282 L 711 1282 L 711 346 C 711 281 704 226 692 181 C 680 136 661 100 635 72 C 609 44 575 23 535 11 C 494 -1 445 -8 389 -8 Z M 178 1552 L 336 1552 L 336 1362 L 178 1362 L 178 1552 Z M 434 1552 L 594 1552 L 594 1362 L 434 1362 L 434 1552 Z" unicode="Ü" />
<glyph horiz-adv-x="735" d="M 279 518 L 16 1282 L 201 1282 L 369 760 L 543 1282 L 719 1282 L 455 518 L 455 0 L 279 0 L 279 518 Z M 389 1616 L 572 1616 L 443 1362 L 287 1362 L 389 1616 Z" unicode="Ý" />
<glyph horiz-adv-x="713" d="M 74 1282 L 252 1282 L 252 1053 L 346 1053 C 403 1053 453 1048 496 1040 C 539 1031 575 1015 604 991 C 632 967 654 933 668 890 C 682 847 690 791 690 723 L 690 623 C 690 554 682 498 668 455 C 653 412 631 379 603 355 C 574 331 538 314 495 306 C 452 297 402 293 346 293 L 252 293 L 252 0 L 74 0 L 74 1282 Z M 352 446 C 387 446 415 448 437 454 C 458 459 474 468 486 481 C 497 494 504 512 508 534 C 512 556 514 584 514 618 L 514 725 C 514 755 512 780 508 802 C 504 824 497 842 486 856 C 474 870 458 880 437 887 C 415 893 387 897 352 897 L 252 897 L 252 446 L 352 446 Z" unicode="Þ" />
<glyph horiz-adv-x="651" d="M 57 1079 C 57 1121 62 1156 72 1186 C 82 1216 97 1240 119 1259 C 140 1277 167 1291 201 1300 C 234 1308 274 1313 322 1313 C 410 1313 477 1294 521 1258 C 565 1222 588 1161 588 1075 L 588 920 C 588 892 586 867 584 845 C 581 823 576 803 569 787 C 562 770 553 756 541 744 C 529 732 513 722 494 715 C 514 710 531 703 545 693 C 559 683 570 669 579 652 C 588 635 595 614 599 589 C 603 563 606 533 606 498 L 606 287 C 606 237 601 194 593 158 C 585 122 570 92 548 69 C 526 45 497 28 461 17 C 424 5 378 0 322 0 L 287 0 L 287 147 L 324 147 C 347 147 366 150 381 156 C 396 162 408 170 416 182 C 424 194 430 208 433 226 C 436 243 438 263 438 287 L 438 496 C 438 518 436 538 433 555 C 430 572 424 586 416 598 C 407 609 395 617 379 623 C 363 628 343 631 319 631 L 287 631 L 287 782 L 322 782 C 360 782 386 792 400 812 C 413 832 420 865 420 911 L 420 1065 C 420 1099 412 1123 398 1138 C 383 1153 358 1161 322 1161 C 286 1161 261 1154 247 1141 C 232 1127 225 1105 225 1073 L 225 0 L 57 0 L 57 1079 Z" unicode="ß" />
<glyph horiz-adv-x="623" d="M 242 -8 C 202 -8 170 -3 145 7 C 120 17 100 32 86 54 C 71 76 61 104 55 138 C 49 172 47 214 47 264 C 47 320 51 369 59 411 C 67 453 85 488 111 518 C 137 548 173 572 221 592 C 269 612 332 629 410 643 L 410 657 C 410 693 403 719 389 736 C 375 753 349 762 311 762 C 295 762 281 760 270 757 C 259 754 250 749 242 743 C 234 737 228 728 223 718 C 218 707 213 694 209 678 L 45 735 C 53 761 63 784 77 806 C 91 828 109 846 131 862 C 153 878 181 890 213 898 C 245 906 284 911 330 911 C 380 911 420 906 452 896 C 484 886 508 871 526 851 C 544 831 556 805 563 775 C 569 745 573 710 573 670 L 573 0 L 410 0 L 410 70 C 400 58 391 47 381 38 C 371 28 360 20 347 13 C 334 6 319 1 302 -2 C 285 -6 265 -8 242 -8 Z M 303 133 C 325 133 343 136 357 144 C 371 152 381 162 389 175 C 397 188 402 203 405 221 C 408 239 410 258 410 279 L 410 506 C 366 496 331 485 305 475 C 279 464 260 450 247 433 C 233 416 225 394 221 368 C 217 342 215 308 215 268 C 215 242 215 221 217 204 C 218 186 222 172 228 162 C 234 151 242 143 254 139 C 266 135 282 133 303 133 Z M 111 1262 L 291 1262 L 396 1008 L 240 1008 L 111 1262 Z" unicode="à" />
<glyph horiz-adv-x="623" d="M 242 -8 C 202 -8 170 -3 145 7 C 120 17 100 32 86 54 C 71 76 61 104 55 138 C 49 172 47 214 47 264 C 47 320 51 369 59 411 C 67 453 85 488 111 518 C 137 548 173 572 221 592 C 269 612 332 629 410 643 L 410 657 C 410 693 403 719 389 736 C 375 753 349 762 311 762 C 295 762 281 760 270 757 C 259 754 250 749 242 743 C 234 737 228 728 223 718 C 218 707 213 694 209 678 L 45 735 C 53 761 63 784 77 806 C 91 828 109 846 131 862 C 153 878 181 890 213 898 C 245 906 284 911 330 911 C 380 911 420 906 452 896 C 484 886 508 871 526 851 C 544 831 556 805 563 775 C 569 745 573 710 573 670 L 573 0 L 410 0 L 410 70 C 400 58 391 47 381 38 C 371 28 360 20 347 13 C 334 6 319 1 302 -2 C 285 -6 265 -8 242 -8 Z M 303 133 C 325 133 343 136 357 144 C 371 152 381 162 389 175 C 397 188 402 203 405 221 C 408 239 410 258 410 279 L 410 506 C 366 496 331 485 305 475 C 279 464 260 450 247 433 C 233 416 225 394 221 368 C 217 342 215 308 215 268 C 215 242 215 221 217 204 C 218 186 222 172 228 162 C 234 151 242 143 254 139 C 266 135 282 133 303 133 Z M 334 1262 L 517 1262 L 388 1008 L 232 1008 L 334 1262 Z" unicode="á" />
<glyph horiz-adv-x="623" d="M 242 -8 C 202 -8 170 -3 145 7 C 120 17 100 32 86 54 C 71 76 61 104 55 138 C 49 172 47 214 47 264 C 47 320 51 369 59 411 C 67 453 85 488 111 518 C 137 548 173 572 221 592 C 269 612 332 629 410 643 L 410 657 C 410 693 403 719 389 736 C 375 753 349 762 311 762 C 295 762 281 760 270 757 C 259 754 250 749 242 743 C 234 737 228 728 223 718 C 218 707 213 694 209 678 L 45 735 C 53 761 63 784 77 806 C 91 828 109 846 131 862 C 153 878 181 890 213 898 C 245 906 284 911 330 911 C 380 911 420 906 452 896 C 484 886 508 871 526 851 C 544 831 556 805 563 775 C 569 745 573 710 573 670 L 573 0 L 410 0 L 410 70 C 400 58 391 47 381 38 C 371 28 360 20 347 13 C 334 6 319 1 302 -2 C 285 -6 265 -8 242 -8 Z M 303 133 C 325 133 343 136 357 144 C 371 152 381 162 389 175 C 397 188 402 203 405 221 C 408 239 410 258 410 279 L 410 506 C 366 496 331 485 305 475 C 279 464 260 450 247 433 C 233 416 225 394 221 368 C 217 342 215 308 215 268 C 215 242 215 221 217 204 C 218 186 222 172 228 162 C 234 151 242 143 254 139 C 266 135 282 133 303 133 Z M 214 1262 L 416 1262 L 541 1008 L 396 1008 L 312 1161 L 230 1008 L 89 1008 L 214 1262 Z" unicode="â" />
<glyph horiz-adv-x="623" d="M 242 -8 C 202 -8 170 -3 145 7 C 120 17 100 32 86 54 C 71 76 61 104 55 138 C 49 172 47 214 47 264 C 47 320 51 369 59 411 C 67 453 85 488 111 518 C 137 548 173 572 221 592 C 269 612 332 629 410 643 L 410 657 C 410 693 403 719 389 736 C 375 753 349 762 311 762 C 295 762 281 760 270 757 C 259 754 250 749 242 743 C 234 737 228 728 223 718 C 218 707 213 694 209 678 L 45 735 C 53 761 63 784 77 806 C 91 828 109 846 131 862 C 153 878 181 890 213 898 C 245 906 284 911 330 911 C 380 911 420 906 452 896 C 484 886 508 871 526 851 C 544 831 556 805 563 775 C 569 745 573 710 573 670 L 573 0 L 410 0 L 410 70 C 400 58 391 47 381 38 C 371 28 360 20 347 13 C 334 6 319 1 302 -2 C 285 -6 265 -8 242 -8 Z M 303 133 C 325 133 343 136 357 144 C 371 152 381 162 389 175 C 397 188 402 203 405 221 C 408 239 410 258 410 279 L 410 506 C 366 496 331 485 305 475 C 279 464 260 450 247 433 C 233 416 225 394 221 368 C 217 342 215 308 215 268 C 215 242 215 221 217 204 C 218 186 222 172 228 162 C 234 151 242 143 254 139 C 266 135 282 133 303 133 Z M 64 1008 C 64 1051 66 1087 70 1116 C 74 1145 82 1168 92 1186 C 102 1203 116 1215 134 1222 C 151 1229 173 1233 199 1233 C 221 1233 243 1228 263 1219 C 283 1209 302 1199 320 1188 C 337 1176 352 1166 366 1157 C 380 1147 392 1143 402 1143 C 408 1143 412 1144 416 1146 C 420 1148 423 1153 425 1160 C 427 1166 428 1176 428 1188 C 428 1200 429 1215 429 1235 L 562 1235 C 562 1197 560 1165 558 1137 C 555 1109 549 1085 540 1067 C 530 1048 517 1034 499 1024 C 481 1014 458 1010 429 1010 C 407 1010 386 1014 366 1023 C 346 1032 327 1042 309 1053 C 291 1064 274 1074 260 1084 C 246 1093 234 1098 224 1098 C 211 1098 203 1091 200 1079 C 196 1066 195 1042 195 1008 L 64 1008 Z" unicode="ã" />
<glyph horiz-adv-x="623" d="M 242 -8 C 202 -8 170 -3 145 7 C 120 17 100 32 86 54 C 71 76 61 104 55 138 C 49 172 47 214 47 264 C 47 320 51 369 59 411 C 67 453 85 488 111 518 C 137 548 173 572 221 592 C 269 612 332 629 410 643 L 410 657 C 410 693 403 719 389 736 C 375 753 349 762 311 762 C 295 762 281 760 270 757 C 259 754 250 749 242 743 C 234 737 228 728 223 718 C 218 707 213 694 209 678 L 45 735 C 53 761 63 784 77 806 C 91 828 109 846 131 862 C 153 878 181 890 213 898 C 245 906 284 911 330 911 C 380 911 420 906 452 896 C 484 886 508 871 526 851 C 544 831 556 805 563 775 C 569 745 573 710 573 670 L 573 0 L 410 0 L 410 70 C 400 58 391 47 381 38 C 371 28 360 20 347 13 C 334 6 319 1 302 -2 C 285 -6 265 -8 242 -8 Z M 303 133 C 325 133 343 136 357 144 C 371 152 381 162 389 175 C 397 188 402 203 405 221 C 408 239 410 258 410 279 L 410 506 C 366 496 331 485 305 475 C 279 464 260 450 247 433 C 233 416 225 394 221 368 C 217 342 215 308 215 268 C 215 242 215 221 217 204 C 218 186 222 172 228 162 C 234 151 242 143 254 139 C 266 135 282 133 303 133 Z M 107 1198 L 265 1198 L 265 1008 L 107 1008 L 107 1198 Z M 363 1198 L 523 1198 L 523 1008 L 363 1008 L 363 1198 Z" unicode="ä" />
<glyph horiz-adv-x="623" d="M 242 -8 C 202 -8 170 -3 145 7 C 120 17 100 32 86 54 C 71 76 61 104 55 138 C 49 172 47 214 47 264 C 47 320 51 369 59 411 C 67 453 85 488 111 518 C 137 548 173 572 221 592 C 269 612 332 629 410 643 L 410 657 C 410 693 403 719 389 736 C 375 753 349 762 311 762 C 295 762 281 760 270 757 C 259 754 250 749 242 743 C 234 737 228 728 223 718 C 218 707 213 694 209 678 L 45 735 C 53 761 63 784 77 806 C 91 828 109 846 131 862 C 153 878 181 890 213 898 C 245 906 284 911 330 911 C 380 911 420 906 452 896 C 484 886 508 871 526 851 C 544 831 556 805 563 775 C 569 745 573 710 573 670 L 573 0 L 410 0 L 410 70 C 400 58 391 47 381 38 C 371 28 360 20 347 13 C 334 6 319 1 302 -2 C 285 -6 265 -8 242 -8 Z M 303 133 C 325 133 343 136 357 144 C 371 152 381 162 389 175 C 397 188 402 203 405 221 C 408 239 410 258 410 279 L 410 506 C 366 496 331 485 305 475 C 279 464 260 450 247 433 C 233 416 225 394 221 368 C 217 342 215 308 215 268 C 215 242 215 221 217 204 C 218 186 222 172 228 162 C 234 151 242 143 254 139 C 266 135 282 133 303 133 Z M 313 1006 C 277 1006 248 1010 227 1020 C 206 1030 190 1043 179 1059 C 167 1075 160 1094 157 1116 C 153 1138 152 1160 152 1184 C 152 1207 153 1229 157 1251 C 160 1272 167 1291 179 1307 C 190 1323 206 1335 227 1345 C 248 1355 277 1360 313 1360 C 349 1360 377 1355 399 1345 C 420 1335 436 1323 448 1307 C 459 1291 466 1272 470 1251 C 473 1229 475 1207 475 1184 C 475 1160 473 1138 470 1116 C 466 1094 459 1075 448 1059 C 436 1043 420 1030 399 1020 C 377 1010 349 1006 313 1006 Z M 313 1096 C 329 1096 341 1098 350 1102 C 358 1106 365 1113 369 1121 C 373 1129 375 1138 376 1149 C 376 1159 377 1171 377 1184 C 377 1196 376 1207 376 1218 C 375 1228 373 1238 369 1246 C 365 1254 358 1260 350 1265 C 341 1269 329 1272 313 1272 C 297 1272 284 1269 276 1265 C 268 1260 262 1254 258 1246 C 254 1238 251 1228 251 1218 C 250 1207 250 1196 250 1184 C 250 1171 250 1159 251 1149 C 251 1138 254 1129 258 1121 C 262 1113 268 1106 276 1102 C 284 1098 297 1096 313 1096 Z" unicode="å" />
<glyph horiz-adv-x="975" d="M 672 -8 C 616 -8 571 0 536 14 C 501 28 474 51 455 82 C 435 55 409 33 375 17 C 341 0 297 -8 242 -8 C 202 -8 170 -3 145 7 C 120 17 100 32 86 54 C 71 76 61 104 55 138 C 49 172 47 214 47 264 C 47 320 51 369 59 411 C 67 453 85 488 111 518 C 137 548 173 572 221 592 C 269 612 332 629 410 643 L 410 657 C 410 693 403 719 389 736 C 375 753 349 762 311 762 C 295 762 281 760 270 757 C 259 754 250 749 242 743 C 234 737 228 728 223 718 C 218 707 213 694 209 678 L 45 735 C 53 761 63 784 77 806 C 91 828 109 846 131 862 C 153 878 181 890 213 898 C 245 906 284 911 330 911 C 372 911 406 907 433 900 C 459 893 481 883 499 869 C 537 897 595 911 672 911 C 725 911 768 904 802 890 C 836 876 862 857 882 832 C 901 807 914 777 921 743 C 928 708 932 669 932 627 L 932 397 L 561 397 L 561 279 C 561 226 569 189 586 167 C 602 145 630 135 670 135 C 688 135 703 136 715 139 C 726 142 735 148 742 158 C 749 167 754 180 758 197 C 761 214 764 236 768 264 L 926 240 C 921 204 915 171 907 141 C 899 111 887 85 869 63 C 851 41 827 23 796 11 C 765 -1 724 -8 672 -8 Z M 303 133 C 325 133 343 136 357 144 C 371 152 381 162 389 175 C 397 188 402 203 405 221 C 408 239 410 258 410 279 L 410 506 C 366 496 331 485 305 475 C 279 464 260 450 247 433 C 233 416 225 394 221 368 C 217 342 215 308 215 268 C 215 242 215 221 217 204 C 218 186 222 172 228 162 C 234 151 242 143 254 139 C 266 135 282 133 303 133 Z M 561 539 L 766 539 L 766 625 C 766 647 765 666 764 683 C 762 700 758 714 752 726 C 746 738 736 747 723 753 C 709 759 691 762 668 762 C 644 762 626 759 612 753 C 598 747 587 738 579 726 C 571 714 566 700 564 683 C 562 665 561 645 561 623 L 561 539 Z" unicode="æ" />
<glyph horiz-adv-x="614" d="M 317 -8 C 229 -8 161 14 115 59 C 68 103 45 176 45 276 L 45 623 C 45 669 49 709 57 745 C 65 781 80 811 101 836 C 121 860 149 879 184 892 C 218 904 262 911 315 911 C 365 911 406 906 440 896 C 473 886 500 870 521 848 C 542 826 558 796 568 760 C 578 724 586 679 590 627 L 416 602 C 414 634 412 660 409 680 C 406 700 401 716 394 728 C 386 740 376 748 363 752 C 349 756 332 758 311 758 C 291 758 275 755 263 750 C 250 745 240 737 233 727 C 226 716 221 702 219 685 C 216 668 215 647 215 623 L 215 279 C 215 252 217 230 221 212 C 225 194 232 180 240 170 C 248 160 259 153 272 149 C 285 145 301 143 319 143 C 337 143 352 144 364 147 C 376 150 386 156 394 166 C 402 176 408 190 413 208 C 418 226 422 251 426 283 L 594 260 C 586 210 576 169 564 135 C 551 101 534 73 513 52 C 491 30 465 15 433 6 C 401 -3 363 -8 317 -8 Z M 330 -375 C 292 -375 262 -371 240 -363 C 218 -355 201 -344 189 -330 C 177 -316 168 -299 164 -281 C 160 -263 156 -243 154 -223 L 269 -209 C 270 -221 272 -231 274 -240 C 276 -248 279 -255 283 -261 C 287 -266 293 -270 301 -272 C 308 -274 318 -276 330 -276 C 342 -276 352 -274 360 -272 C 368 -270 374 -266 378 -260 C 382 -254 384 -245 385 -235 C 386 -224 387 -211 387 -195 C 387 -165 384 -144 379 -133 C 374 -122 361 -117 340 -117 C 328 -117 320 -118 314 -120 C 308 -122 302 -125 297 -131 L 211 -102 L 265 41 L 371 41 L 338 -43 C 348 -40 362 -39 381 -39 C 402 -39 420 -41 436 -46 C 452 -51 465 -60 475 -72 C 485 -84 493 -100 498 -120 C 503 -140 506 -166 506 -197 C 506 -229 503 -257 499 -280 C 495 -302 486 -321 474 -335 C 461 -349 443 -359 420 -365 C 397 -371 367 -375 330 -375 Z" unicode="ç" />
<glyph horiz-adv-x="625" d="M 322 -8 C 226 -8 156 14 112 60 C 67 106 45 178 45 276 L 45 623 C 45 669 49 711 58 747 C 67 783 82 813 104 837 C 126 861 154 880 190 892 C 225 904 269 911 322 911 C 375 911 418 904 452 890 C 486 876 512 857 532 832 C 551 807 564 777 571 743 C 578 708 582 669 582 627 L 582 397 L 211 397 L 211 279 C 211 226 219 189 236 167 C 253 145 281 135 319 135 C 339 135 356 137 368 141 C 380 145 389 152 395 162 C 401 172 406 185 409 201 C 412 217 415 238 418 264 L 575 240 C 569 204 563 170 555 140 C 547 110 535 84 518 62 C 500 40 476 22 445 10 C 414 -1 373 -8 322 -8 Z M 211 539 L 416 539 L 416 625 C 416 647 415 666 413 683 C 411 700 407 714 401 726 C 395 738 385 747 372 753 C 358 759 340 762 317 762 C 293 762 275 759 261 753 C 247 747 237 738 229 726 C 221 714 216 700 214 683 C 212 665 211 645 211 623 L 211 539 Z M 113 1262 L 293 1262 L 398 1008 L 242 1008 L 113 1262 Z" unicode="è" />
<glyph horiz-adv-x="625" d="M 322 -8 C 226 -8 156 14 112 60 C 67 106 45 178 45 276 L 45 623 C 45 669 49 711 58 747 C 67 783 82 813 104 837 C 126 861 154 880 190 892 C 225 904 269 911 322 911 C 375 911 418 904 452 890 C 486 876 512 857 532 832 C 551 807 564 777 571 743 C 578 708 582 669 582 627 L 582 397 L 211 397 L 211 279 C 211 226 219 189 236 167 C 253 145 281 135 319 135 C 339 135 356 137 368 141 C 380 145 389 152 395 162 C 401 172 406 185 409 201 C 412 217 415 238 418 264 L 575 240 C 569 204 563 170 555 140 C 547 110 535 84 518 62 C 500 40 476 22 445 10 C 414 -1 373 -8 322 -8 Z M 211 539 L 416 539 L 416 625 C 416 647 415 666 413 683 C 411 700 407 714 401 726 C 395 738 385 747 372 753 C 358 759 340 762 317 762 C 293 762 275 759 261 753 C 247 747 237 738 229 726 C 221 714 216 700 214 683 C 212 665 211 645 211 623 L 211 539 Z M 336 1262 L 519 1262 L 390 1008 L 234 1008 L 336 1262 Z" unicode="é" />
<glyph horiz-adv-x="625" d="M 322 -8 C 226 -8 156 14 112 60 C 67 106 45 178 45 276 L 45 623 C 45 669 49 711 58 747 C 67 783 82 813 104 837 C 126 861 154 880 190 892 C 225 904 269 911 322 911 C 375 911 418 904 452 890 C 486 876 512 857 532 832 C 551 807 564 777 571 743 C 578 708 582 669 582 627 L 582 397 L 211 397 L 211 279 C 211 226 219 189 236 167 C 253 145 281 135 319 135 C 339 135 356 137 368 141 C 380 145 389 152 395 162 C 401 172 406 185 409 201 C 412 217 415 238 418 264 L 575 240 C 569 204 563 170 555 140 C 547 110 535 84 518 62 C 500 40 476 22 445 10 C 414 -1 373 -8 322 -8 Z M 211 539 L 416 539 L 416 625 C 416 647 415 666 413 683 C 411 700 407 714 401 726 C 395 738 385 747 372 753 C 358 759 340 762 317 762 C 293 762 275 759 261 753 C 247 747 237 738 229 726 C 221 714 216 700 214 683 C 212 665 211 645 211 623 L 211 539 Z M 216 1262 L 418 1262 L 543 1008 L 398 1008 L 314 1161 L 232 1008 L 91 1008 L 216 1262 Z" unicode="ê" />
<glyph horiz-adv-x="625" d="M 322 -8 C 226 -8 156 14 112 60 C 67 106 45 178 45 276 L 45 623 C 45 669 49 711 58 747 C 67 783 82 813 104 837 C 126 861 154 880 190 892 C 225 904 269 911 322 911 C 375 911 418 904 452 890 C 486 876 512 857 532 832 C 551 807 564 777 571 743 C 578 708 582 669 582 627 L 582 397 L 211 397 L 211 279 C 211 226 219 189 236 167 C 253 145 281 135 319 135 C 339 135 356 137 368 141 C 380 145 389 152 395 162 C 401 172 406 185 409 201 C 412 217 415 238 418 264 L 575 240 C 569 204 563 170 555 140 C 547 110 535 84 518 62 C 500 40 476 22 445 10 C 414 -1 373 -8 322 -8 Z M 211 539 L 416 539 L 416 625 C 416 647 415 666 413 683 C 411 700 407 714 401 726 C 395 738 385 747 372 753 C 358 759 340 762 317 762 C 293 762 275 759 261 753 C 247 747 237 738 229 726 C 221 714 216 700 214 683 C 212 665 211 645 211 623 L 211 539 Z M 109 1198 L 267 1198 L 267 1008 L 109 1008 L 109 1198 Z M 365 1198 L 525 1198 L 525 1008 L 365 1008 L 365 1198 Z" unicode="ë" />
<glyph horiz-adv-x="289" d="M 61 897 L 227 897 L 227 0 L 61 0 L 61 897 Z M -57 1262 L 123 1262 L 228 1008 L 72 1008 L -57 1262 Z" unicode="ì" />
<glyph horiz-adv-x="289" d="M 61 897 L 227 897 L 227 0 L 61 0 L 61 897 Z M 166 1262 L 349 1262 L 220 1008 L 64 1008 L 166 1262 Z" unicode="í" />
<glyph horiz-adv-x="289" d="M 61 897 L 227 897 L 227 0 L 61 0 L 61 897 Z M 46 1262 L 248 1262 L 373 1008 L 228 1008 L 144 1161 L 62 1008 L -79 1008 L 46 1262 Z" unicode="î" />
<glyph horiz-adv-x="289" d="M 61 897 L 227 897 L 227 0 L 61 0 L 61 897 Z M -61 1198 L 97 1198 L 97 1008 L -61 1008 L -61 1198 Z M 195 1198 L 355 1198 L 355 1008 L 195 1008 L 195 1198 Z" unicode="ï" />
<glyph horiz-adv-x="645" d="M 199 1085 L 313 1116 C 297 1134 281 1152 263 1169 C 245 1185 226 1203 205 1221 L 324 1325 C 358 1301 389 1276 416 1250 C 442 1224 466 1195 487 1165 L 598 1196 L 598 1063 L 545 1048 C 563 996 577 935 585 867 C 593 799 598 719 598 629 L 598 281 C 598 180 575 107 529 61 C 483 15 414 -8 322 -8 C 228 -8 159 14 113 59 C 67 104 45 176 45 276 L 45 623 C 45 673 50 716 61 752 C 72 787 88 816 109 838 C 130 860 156 876 187 886 C 218 896 253 901 293 901 C 315 901 337 897 358 891 C 379 884 398 874 416 862 C 407 916 395 962 380 1002 L 199 952 L 199 1085 Z M 322 143 C 360 143 388 153 404 173 C 420 193 428 228 428 279 L 428 625 C 428 650 426 671 423 688 C 419 705 413 719 405 729 C 397 739 386 747 372 751 C 358 755 342 758 322 758 C 302 758 285 755 271 751 C 257 746 246 738 238 728 C 230 718 224 704 220 687 C 216 669 215 648 215 623 L 215 279 C 215 228 223 193 240 173 C 256 153 284 143 322 143 Z" unicode="ð" />
<glyph horiz-adv-x="657" d="M 57 897 L 225 897 L 225 838 C 246 859 272 876 303 890 C 334 904 370 911 412 911 C 454 911 488 905 514 894 C 540 883 559 867 573 846 C 587 825 596 800 600 770 C 604 740 606 707 606 670 L 606 0 L 438 0 L 438 647 C 438 686 431 714 418 732 C 405 749 381 758 346 758 C 324 758 305 756 290 752 C 274 748 262 741 252 731 C 242 721 235 706 231 687 C 227 667 225 642 225 610 L 225 0 L 57 0 L 57 897 Z M 82 1008 C 82 1051 84 1087 88 1116 C 92 1145 100 1168 110 1186 C 120 1203 134 1215 152 1222 C 169 1229 191 1233 217 1233 C 239 1233 261 1228 281 1219 C 301 1209 320 1199 338 1188 C 355 1176 370 1166 384 1157 C 398 1147 410 1143 420 1143 C 426 1143 430 1144 434 1146 C 438 1148 441 1153 443 1160 C 445 1166 446 1176 446 1188 C 446 1200 447 1215 447 1235 L 580 1235 C 580 1197 578 1165 576 1137 C 573 1109 567 1085 558 1067 C 548 1048 535 1034 517 1024 C 499 1014 476 1010 447 1010 C 425 1010 404 1014 384 1023 C 364 1032 345 1042 327 1053 C 309 1064 292 1074 278 1084 C 264 1093 252 1098 242 1098 C 229 1098 221 1091 218 1079 C 214 1066 213 1042 213 1008 L 82 1008 Z" unicode="ñ" />
<glyph horiz-adv-x="643" d="M 322 -8 C 228 -8 159 14 113 59 C 67 104 45 176 45 276 L 45 623 C 45 673 50 717 60 754 C 70 790 87 820 109 843 C 131 866 159 883 194 894 C 229 905 272 911 322 911 C 371 911 413 905 448 895 C 483 885 512 868 534 846 C 556 823 572 794 582 758 C 592 722 598 679 598 629 L 598 281 C 598 180 575 107 529 61 C 483 15 414 -8 322 -8 Z M 322 143 C 360 143 388 153 404 173 C 420 193 428 228 428 279 L 428 625 C 428 650 426 671 423 688 C 419 705 413 719 405 729 C 397 739 386 747 372 751 C 358 755 342 758 322 758 C 302 758 285 755 271 751 C 257 746 246 738 238 728 C 230 718 224 704 220 687 C 216 669 215 648 215 623 L 215 279 C 215 228 223 193 240 173 C 256 153 284 143 322 143 Z M 121 1262 L 301 1262 L 406 1008 L 250 1008 L 121 1262 Z" unicode="ò" />
<glyph horiz-adv-x="643" d="M 322 -8 C 228 -8 159 14 113 59 C 67 104 45 176 45 276 L 45 623 C 45 673 50 717 60 754 C 70 790 87 820 109 843 C 131 866 159 883 194 894 C 229 905 272 911 322 911 C 371 911 413 905 448 895 C 483 885 512 868 534 846 C 556 823 572 794 582 758 C 592 722 598 679 598 629 L 598 281 C 598 180 575 107 529 61 C 483 15 414 -8 322 -8 Z M 322 143 C 360 143 388 153 404 173 C 420 193 428 228 428 279 L 428 625 C 428 650 426 671 423 688 C 419 705 413 719 405 729 C 397 739 386 747 372 751 C 358 755 342 758 322 758 C 302 758 285 755 271 751 C 257 746 246 738 238 728 C 230 718 224 704 220 687 C 216 669 215 648 215 623 L 215 279 C 215 228 223 193 240 173 C 256 153 284 143 322 143 Z M 344 1262 L 527 1262 L 398 1008 L 242 1008 L 344 1262 Z" unicode="ó" />
<glyph horiz-adv-x="643" d="M 322 -8 C 228 -8 159 14 113 59 C 67 104 45 176 45 276 L 45 623 C 45 673 50 717 60 754 C 70 790 87 820 109 843 C 131 866 159 883 194 894 C 229 905 272 911 322 911 C 371 911 413 905 448 895 C 483 885 512 868 534 846 C 556 823 572 794 582 758 C 592 722 598 679 598 629 L 598 281 C 598 180 575 107 529 61 C 483 15 414 -8 322 -8 Z M 322 143 C 360 143 388 153 404 173 C 420 193 428 228 428 279 L 428 625 C 428 650 426 671 423 688 C 419 705 413 719 405 729 C 397 739 386 747 372 751 C 358 755 342 758 322 758 C 302 758 285 755 271 751 C 257 746 246 738 238 728 C 230 718 224 704 220 687 C 216 669 215 648 215 623 L 215 279 C 215 228 223 193 240 173 C 256 153 284 143 322 143 Z M 224 1262 L 426 1262 L 551 1008 L 406 1008 L 322 1161 L 240 1008 L 99 1008 L 224 1262 Z" unicode="ô" />
<glyph horiz-adv-x="643" d="M 322 -8 C 228 -8 159 14 113 59 C 67 104 45 176 45 276 L 45 623 C 45 673 50 717 60 754 C 70 790 87 820 109 843 C 131 866 159 883 194 894 C 229 905 272 911 322 911 C 371 911 413 905 448 895 C 483 885 512 868 534 846 C 556 823 572 794 582 758 C 592 722 598 679 598 629 L 598 281 C 598 180 575 107 529 61 C 483 15 414 -8 322 -8 Z M 322 143 C 360 143 388 153 404 173 C 420 193 428 228 428 279 L 428 625 C 428 650 426 671 423 688 C 419 705 413 719 405 729 C 397 739 386 747 372 751 C 358 755 342 758 322 758 C 302 758 285 755 271 751 C 257 746 246 738 238 728 C 230 718 224 704 220 687 C 216 669 215 648 215 623 L 215 279 C 215 228 223 193 240 173 C 256 153 284 143 322 143 Z M 74 1008 C 74 1051 76 1087 80 1116 C 84 1145 92 1168 102 1186 C 112 1203 126 1215 144 1222 C 161 1229 183 1233 209 1233 C 231 1233 253 1228 273 1219 C 293 1209 312 1199 330 1188 C 347 1176 362 1166 376 1157 C 390 1147 402 1143 412 1143 C 418 1143 422 1144 426 1146 C 430 1148 433 1153 435 1160 C 437 1166 438 1176 438 1188 C 438 1200 439 1215 439 1235 L 572 1235 C 572 1197 570 1165 568 1137 C 565 1109 559 1085 550 1067 C 540 1048 527 1034 509 1024 C 491 1014 468 1010 439 1010 C 417 1010 396 1014 376 1023 C 356 1032 337 1042 319 1053 C 301 1064 284 1074 270 1084 C 256 1093 244 1098 234 1098 C 221 1098 213 1091 210 1079 C 206 1066 205 1042 205 1008 L 74 1008 Z" unicode="õ" />
<glyph horiz-adv-x="643" d="M 322 -8 C 228 -8 159 14 113 59 C 67 104 45 176 45 276 L 45 623 C 45 673 50 717 60 754 C 70 790 87 820 109 843 C 131 866 159 883 194 894 C 229 905 272 911 322 911 C 371 911 413 905 448 895 C 483 885 512 868 534 846 C 556 823 572 794 582 758 C 592 722 598 679 598 629 L 598 281 C 598 180 575 107 529 61 C 483 15 414 -8 322 -8 Z M 322 143 C 360 143 388 153 404 173 C 420 193 428 228 428 279 L 428 625 C 428 650 426 671 423 688 C 419 705 413 719 405 729 C 397 739 386 747 372 751 C 358 755 342 758 322 758 C 302 758 285 755 271 751 C 257 746 246 738 238 728 C 230 718 224 704 220 687 C 216 669 215 648 215 623 L 215 279 C 215 228 223 193 240 173 C 256 153 284 143 322 143 Z M 117 1198 L 275 1198 L 275 1008 L 117 1008 L 117 1198 Z M 373 1198 L 533 1198 L 533 1008 L 373 1008 L 373 1198 Z" unicode="ö" />
<glyph horiz-adv-x="752" d="M 39 713 L 713 713 L 713 559 L 39 559 L 39 713 Z M 285 442 L 467 442 L 467 252 L 285 252 L 285 442 Z M 285 1020 L 467 1020 L 467 829 L 285 829 L 285 1020 Z" unicode="÷" />
<glyph horiz-adv-x="643" d="M 131 44 C 73 88 45 166 45 276 L 45 623 C 45 673 50 717 60 754 C 70 790 87 820 109 843 C 131 866 159 883 194 894 C 229 905 272 911 322 911 C 342 911 362 910 380 908 L 412 1014 L 555 1014 L 510 866 C 540 844 563 814 577 776 C 591 737 598 688 598 629 L 598 281 C 598 180 575 107 529 61 C 483 15 414 -8 322 -8 C 310 -8 299 -7 289 -7 C 279 -6 269 -5 260 -4 L 231 -102 L 86 -102 L 131 44 Z M 322 141 C 360 141 388 151 405 172 C 421 192 430 228 430 279 L 430 625 C 430 650 429 671 427 689 C 425 706 420 720 413 730 C 405 740 394 748 380 753 C 366 757 346 760 322 760 C 301 760 284 757 270 753 C 256 748 244 740 236 730 C 228 719 222 705 218 687 C 214 669 213 648 213 623 L 213 279 C 213 253 214 232 217 215 C 219 197 224 183 232 172 C 240 161 251 153 265 148 C 279 143 298 141 322 141 Z" unicode="ø" />
<glyph horiz-adv-x="655" d="M 244 -8 C 201 -8 167 -2 142 8 C 116 19 97 35 83 56 C 69 77 61 102 57 132 C 53 162 51 195 51 233 L 51 897 L 217 897 L 217 256 C 217 216 224 187 238 169 C 252 151 276 143 311 143 C 331 143 349 144 364 148 C 378 151 390 158 400 168 C 410 178 417 193 421 212 C 425 231 428 257 430 289 L 430 897 L 598 897 L 598 0 L 430 0 L 430 61 C 407 40 380 23 350 11 C 319 -1 284 -8 244 -8 Z M 127 1262 L 307 1262 L 412 1008 L 256 1008 L 127 1262 Z" unicode="ù" />
<glyph horiz-adv-x="655" d="M 244 -8 C 201 -8 167 -2 142 8 C 116 19 97 35 83 56 C 69 77 61 102 57 132 C 53 162 51 195 51 233 L 51 897 L 217 897 L 217 256 C 217 216 224 187 238 169 C 252 151 276 143 311 143 C 331 143 349 144 364 148 C 378 151 390 158 400 168 C 410 178 417 193 421 212 C 425 231 428 257 430 289 L 430 897 L 598 897 L 598 0 L 430 0 L 430 61 C 407 40 380 23 350 11 C 319 -1 284 -8 244 -8 Z M 350 1262 L 533 1262 L 404 1008 L 248 1008 L 350 1262 Z" unicode="ú" />
<glyph horiz-adv-x="655" d="M 244 -8 C 201 -8 167 -2 142 8 C 116 19 97 35 83 56 C 69 77 61 102 57 132 C 53 162 51 195 51 233 L 51 897 L 217 897 L 217 256 C 217 216 224 187 238 169 C 252 151 276 143 311 143 C 331 143 349 144 364 148 C 378 151 390 158 400 168 C 410 178 417 193 421 212 C 425 231 428 257 430 289 L 430 897 L 598 897 L 598 0 L 430 0 L 430 61 C 407 40 380 23 350 11 C 319 -1 284 -8 244 -8 Z M 230 1262 L 432 1262 L 557 1008 L 412 1008 L 328 1161 L 246 1008 L 105 1008 L 230 1262 Z" unicode="û" />
<glyph horiz-adv-x="655" d="M 244 -8 C 201 -8 167 -2 142 8 C 116 19 97 35 83 56 C 69 77 61 102 57 132 C 53 162 51 195 51 233 L 51 897 L 217 897 L 217 256 C 217 216 224 187 238 169 C 252 151 276 143 311 143 C 331 143 349 144 364 148 C 378 151 390 158 400 168 C 410 178 417 193 421 212 C 425 231 428 257 430 289 L 430 897 L 598 897 L 598 0 L 430 0 L 430 61 C 407 40 380 23 350 11 C 319 -1 284 -8 244 -8 Z M 123 1198 L 281 1198 L 281 1008 L 123 1008 L 123 1198 Z M 379 1198 L 539 1198 L 539 1008 L 379 1008 L 379 1198 Z" unicode="ü" />
<glyph horiz-adv-x="586" d="M 78 -172 L 117 -172 C 127 -172 135 -171 143 -170 C 150 -169 156 -167 162 -164 C 168 -160 172 -155 176 -148 C 180 -140 183 -131 186 -119 L 209 -8 L 12 897 L 182 897 L 260 516 L 297 315 L 332 514 L 410 897 L 573 897 L 336 -158 C 330 -185 322 -209 313 -230 C 303 -250 291 -267 276 -281 C 260 -295 241 -305 218 -312 C 195 -318 167 -322 135 -322 L 78 -322 L 78 -172 Z M 313 1262 L 496 1262 L 367 1008 L 211 1008 L 313 1262 Z" unicode="ý" />
<glyph horiz-adv-x="655" d="M 57 1313 L 225 1313 L 225 840 C 241 862 262 880 288 892 C 313 904 345 911 385 911 C 425 911 460 904 489 891 C 517 878 541 860 559 836 C 577 812 590 782 598 747 C 606 712 610 673 610 629 L 610 283 C 610 237 606 196 598 160 C 590 124 578 94 561 70 C 543 45 520 26 491 13 C 461 0 425 -6 383 -6 C 349 -6 319 -2 293 5 C 267 12 244 27 225 51 L 225 -324 L 57 -324 L 57 1313 Z M 334 145 C 354 145 371 147 385 152 C 399 157 410 165 418 177 C 426 188 431 202 435 220 C 438 238 440 259 440 285 L 440 621 C 440 642 438 661 435 679 C 432 696 427 711 419 723 C 411 735 400 744 386 750 C 372 756 354 760 332 760 C 311 760 294 756 281 750 C 267 744 256 735 248 724 C 240 713 234 700 231 685 C 227 670 225 654 225 637 L 225 272 C 225 248 226 229 230 213 C 234 197 240 184 248 174 C 256 164 268 156 282 152 C 296 147 313 145 334 145 Z" unicode="þ" />
<glyph horiz-adv-x="586" d="M 78 -172 L 117 -172 C 127 -172 135 -171 143 -170 C 150 -169 156 -167 162 -164 C 168 -160 172 -155 176 -148 C 180 -140 183 -131 186 -119 L 209 -8 L 12 897 L 182 897 L 260 516 L 297 315 L 332 514 L 410 897 L 573 897 L 336 -158 C 330 -185 322 -209 313 -230 C 303 -250 291 -267 276 -281 C 260 -295 241 -305 218 -312 C 195 -318 167 -322 135 -322 L 78 -322 L 78 -172 Z M 86 1198 L 244 1198 L 244 1008 L 86 1008 L 86 1198 Z M 342 1198 L 502 1198 L 502 1008 L 342 1008 L 342 1198 Z" unicode="ÿ" />
<glyph horiz-adv-x="707" d="M 258 1290 L 449 1290 L 692 0 L 514 0 L 459 297 L 242 297 L 186 0 L 16 0 L 258 1290 Z M 440 442 L 389 748 L 352 971 L 315 748 L 262 442 L 440 442 Z M 130 1505 L 582 1505 L 582 1364 L 130 1364 L 130 1505 Z" unicode="Ā" />
<glyph horiz-adv-x="623" d="M 242 -8 C 202 -8 170 -3 145 7 C 120 17 100 32 86 54 C 71 76 61 104 55 138 C 49 172 47 214 47 264 C 47 320 51 369 59 411 C 67 453 85 488 111 518 C 137 548 173 572 221 592 C 269 612 332 629 410 643 L 410 657 C 410 693 403 719 389 736 C 375 753 349 762 311 762 C 295 762 281 760 270 757 C 259 754 250 749 242 743 C 234 737 228 728 223 718 C 218 707 213 694 209 678 L 45 735 C 53 761 63 784 77 806 C 91 828 109 846 131 862 C 153 878 181 890 213 898 C 245 906 284 911 330 911 C 380 911 420 906 452 896 C 484 886 508 871 526 851 C 544 831 556 805 563 775 C 569 745 573 710 573 670 L 573 0 L 410 0 L 410 70 C 400 58 391 47 381 38 C 371 28 360 20 347 13 C 334 6 319 1 302 -2 C 285 -6 265 -8 242 -8 Z M 303 133 C 325 133 343 136 357 144 C 371 152 381 162 389 175 C 397 188 402 203 405 221 C 408 239 410 258 410 279 L 410 506 C 366 496 331 485 305 475 C 279 464 260 450 247 433 C 233 416 225 394 221 368 C 217 342 215 308 215 268 C 215 242 215 221 217 204 C 218 186 222 172 228 162 C 234 151 242 143 254 139 C 266 135 282 133 303 133 Z M 87 1149 L 539 1149 L 539 1008 L 87 1008 L 87 1149 Z" unicode="ā" />
<glyph horiz-adv-x="707" d="M 258 1290 L 449 1290 L 692 0 L 514 0 L 459 297 L 242 297 L 186 0 L 16 0 L 258 1290 Z M 440 442 L 389 748 L 352 971 L 315 748 L 262 442 L 440 442 Z M 343 1364 C 290 1364 248 1370 218 1384 C 187 1398 164 1417 148 1441 C 132 1465 122 1494 118 1528 C 114 1562 112 1598 112 1638 L 269 1638 C 269 1612 270 1589 271 1571 C 272 1552 275 1537 280 1525 C 284 1513 291 1505 301 1499 C 311 1493 325 1491 343 1491 C 361 1491 376 1493 386 1499 C 396 1505 403 1513 408 1525 C 412 1537 415 1552 416 1571 C 417 1589 418 1612 419 1638 L 576 1638 C 576 1598 573 1562 569 1528 C 565 1494 555 1465 539 1441 C 523 1417 499 1398 468 1384 C 437 1370 395 1364 343 1364 Z" unicode="Ă" />
<glyph horiz-adv-x="623" d="M 242 -8 C 202 -8 170 -3 145 7 C 120 17 100 32 86 54 C 71 76 61 104 55 138 C 49 172 47 214 47 264 C 47 320 51 369 59 411 C 67 453 85 488 111 518 C 137 548 173 572 221 592 C 269 612 332 629 410 643 L 410 657 C 410 693 403 719 389 736 C 375 753 349 762 311 762 C 295 762 281 760 270 757 C 259 754 250 749 242 743 C 234 737 228 728 223 718 C 218 707 213 694 209 678 L 45 735 C 53 761 63 784 77 806 C 91 828 109 846 131 862 C 153 878 181 890 213 898 C 245 906 284 911 330 911 C 380 911 420 906 452 896 C 484 886 508 871 526 851 C 544 831 556 805 563 775 C 569 745 573 710 573 670 L 573 0 L 410 0 L 410 70 C 400 58 391 47 381 38 C 371 28 360 20 347 13 C 334 6 319 1 302 -2 C 285 -6 265 -8 242 -8 Z M 303 133 C 325 133 343 136 357 144 C 371 152 381 162 389 175 C 397 188 402 203 405 221 C 408 239 410 258 410 279 L 410 506 C 366 496 331 485 305 475 C 279 464 260 450 247 433 C 233 416 225 394 221 368 C 217 342 215 308 215 268 C 215 242 215 221 217 204 C 218 186 222 172 228 162 C 234 151 242 143 254 139 C 266 135 282 133 303 133 Z M 300 1008 C 247 1008 205 1014 175 1028 C 144 1042 121 1061 105 1085 C 89 1109 79 1138 75 1172 C 71 1206 69 1242 69 1282 L 226 1282 C 226 1256 227 1233 228 1215 C 229 1196 232 1181 237 1169 C 241 1157 248 1149 258 1143 C 268 1137 282 1135 300 1135 C 318 1135 333 1137 343 1143 C 353 1149 360 1157 365 1169 C 369 1181 372 1196 373 1215 C 374 1233 375 1256 376 1282 L 533 1282 C 533 1242 530 1206 526 1172 C 522 1138 512 1109 496 1085 C 480 1061 456 1042 425 1028 C 394 1014 352 1008 300 1008 Z" unicode="ă" />
<glyph horiz-adv-x="707" d="M 590 -305 C 560 -305 534 -302 512 -297 C 490 -291 473 -282 459 -270 C 445 -257 435 -240 429 -220 C 423 -199 420 -173 420 -143 C 420 -100 428 -64 444 -36 C 460 -8 484 19 518 47 L 649 41 C 628 21 611 4 598 -10 C 585 -25 575 -39 568 -53 C 560 -66 555 -79 553 -93 C 550 -106 549 -121 549 -137 C 549 -161 551 -178 557 -187 C 562 -196 575 -201 596 -201 C 606 -201 614 -200 621 -199 C 628 -197 634 -194 639 -190 C 643 -186 647 -180 650 -172 C 653 -164 656 -154 659 -141 L 780 -176 C 772 -197 765 -216 757 -232 C 749 -248 738 -262 725 -273 C 711 -283 694 -291 673 -297 C 651 -302 624 -305 590 -305 Z M 258 1290 L 449 1290 L 692 0 L 514 0 L 459 297 L 242 297 L 186 0 L 16 0 L 258 1290 Z M 440 442 L 389 748 L 352 971 L 315 748 L 262 442 L 440 442 Z" unicode="Ą" />
<glyph horiz-adv-x="623" d="M 496 -305 C 466 -305 440 -302 418 -297 C 396 -291 379 -282 365 -270 C 351 -257 341 -240 335 -220 C 329 -199 326 -173 326 -143 C 326 -121 328 -102 332 -85 C 336 -68 343 -52 351 -38 C 359 -24 369 -10 381 2 C 393 14 408 27 424 41 L 555 41 C 534 21 517 4 504 -10 C 491 -25 481 -39 474 -53 C 466 -66 461 -79 459 -93 C 456 -106 455 -121 455 -137 C 455 -161 457 -178 462 -187 C 467 -196 480 -201 502 -201 C 512 -201 520 -200 527 -199 C 533 -197 539 -194 544 -190 C 549 -186 553 -180 556 -172 C 559 -164 562 -154 565 -141 L 686 -176 C 678 -197 671 -216 663 -232 C 655 -248 644 -262 630 -273 C 616 -283 599 -291 578 -297 C 557 -302 530 -305 496 -305 Z M 242 -8 C 202 -8 170 -3 145 7 C 120 17 100 32 86 54 C 71 76 61 104 55 138 C 49 172 47 214 47 264 C 47 320 51 369 59 411 C 67 453 85 488 111 518 C 137 548 173 572 221 592 C 269 612 332 629 410 643 L 410 657 C 410 693 403 719 389 736 C 375 753 349 762 311 762 C 295 762 281 760 270 757 C 259 754 250 749 242 743 C 234 737 228 728 223 718 C 218 707 213 694 209 678 L 45 735 C 53 761 63 784 77 806 C 91 828 109 846 131 862 C 153 878 181 890 213 898 C 245 906 284 911 330 911 C 380 911 420 906 452 896 C 484 886 508 871 526 851 C 544 831 556 805 563 775 C 569 745 573 710 573 670 L 573 0 L 410 0 L 410 70 C 400 58 391 47 381 38 C 371 28 360 20 347 13 C 334 6 319 1 302 -2 C 285 -6 265 -8 242 -8 Z M 303 133 C 325 133 343 136 357 144 C 371 152 381 162 389 175 C 397 188 402 203 405 221 C 408 239 410 258 410 279 L 410 506 C 366 496 331 485 305 475 C 279 464 260 450 247 433 C 233 416 225 394 221 368 C 217 342 215 308 215 268 C 215 242 215 221 217 204 C 218 186 222 172 228 162 C 234 151 242 143 254 139 C 266 135 282 133 303 133 Z" unicode="ą" />
<glyph horiz-adv-x="733" d="M 375 -8 C 319 -8 270 -1 230 13 C 189 27 155 48 129 78 C 103 108 83 145 71 191 C 59 236 53 290 53 354 L 53 942 C 53 1060 79 1147 132 1205 C 185 1263 267 1292 379 1292 C 442 1292 494 1285 535 1271 C 576 1257 609 1235 633 1205 C 657 1174 675 1134 686 1085 C 696 1035 703 975 707 905 L 522 889 C 520 935 518 973 516 1004 C 514 1035 508 1060 499 1078 C 490 1096 476 1110 457 1118 C 438 1126 411 1130 377 1130 C 329 1130 293 1115 269 1087 C 245 1059 233 1011 233 944 L 233 352 C 233 318 235 288 239 263 C 243 237 250 216 261 200 C 272 183 287 170 307 162 C 327 154 352 150 383 150 C 414 150 439 153 457 160 C 475 166 489 179 499 197 C 509 215 516 240 520 272 C 524 304 528 345 532 397 L 711 381 C 707 316 699 259 689 211 C 678 162 660 121 636 89 C 612 57 579 32 537 16 C 495 0 441 -8 375 -8 Z M 387 1618 L 570 1618 L 441 1364 L 285 1364 L 387 1618 Z" unicode="Ć" />
<glyph horiz-adv-x="614" d="M 317 -8 C 229 -8 161 14 115 59 C 68 103 45 176 45 276 L 45 623 C 45 669 49 709 57 745 C 65 781 80 811 101 836 C 121 860 149 879 184 892 C 218 904 262 911 315 911 C 365 911 406 906 440 896 C 473 886 500 870 521 848 C 542 826 558 796 568 760 C 578 724 586 679 590 627 L 416 602 C 414 634 412 660 409 680 C 406 700 401 716 394 728 C 386 740 376 748 363 752 C 349 756 332 758 311 758 C 291 758 275 755 263 750 C 250 745 240 737 233 727 C 226 716 221 702 219 685 C 216 668 215 647 215 623 L 215 279 C 215 252 217 230 221 212 C 225 194 232 180 240 170 C 248 160 259 153 272 149 C 285 145 301 143 319 143 C 337 143 352 144 364 147 C 376 150 386 156 394 166 C 402 176 408 190 413 208 C 418 226 422 251 426 283 L 594 260 C 586 210 576 169 564 135 C 551 101 534 73 513 52 C 491 30 465 15 433 6 C 401 -3 363 -8 317 -8 Z M 328 1262 L 511 1262 L 382 1008 L 226 1008 L 328 1262 Z" unicode="ć" />
<glyph horiz-adv-x="733" d="M 375 -8 C 319 -8 270 -1 230 13 C 189 27 155 48 129 78 C 103 108 83 145 71 191 C 59 236 53 290 53 354 L 53 942 C 53 1060 79 1147 132 1205 C 185 1263 267 1292 379 1292 C 442 1292 494 1285 535 1271 C 576 1257 609 1235 633 1205 C 657 1174 675 1134 686 1085 C 696 1035 703 975 707 905 L 522 889 C 520 935 518 973 516 1004 C 514 1035 508 1060 499 1078 C 490 1096 476 1110 457 1118 C 438 1126 411 1130 377 1130 C 329 1130 293 1115 269 1087 C 245 1059 233 1011 233 944 L 233 352 C 233 318 235 288 239 263 C 243 237 250 216 261 200 C 272 183 287 170 307 162 C 327 154 352 150 383 150 C 414 150 439 153 457 160 C 475 166 489 179 499 197 C 509 215 516 240 520 272 C 524 304 528 345 532 397 L 711 381 C 707 316 699 259 689 211 C 678 162 660 121 636 89 C 612 57 579 32 537 16 C 495 0 441 -8 375 -8 Z M 142 1618 L 287 1618 L 371 1464 L 453 1618 L 594 1618 L 469 1364 L 267 1364 L 142 1618 Z" unicode="Č" />
<glyph horiz-adv-x="614" d="M 317 -8 C 229 -8 161 14 115 59 C 68 103 45 176 45 276 L 45 623 C 45 669 49 709 57 745 C 65 781 80 811 101 836 C 121 860 149 879 184 892 C 218 904 262 911 315 911 C 365 911 406 906 440 896 C 473 886 500 870 521 848 C 542 826 558 796 568 760 C 578 724 586 679 590 627 L 416 602 C 414 634 412 660 409 680 C 406 700 401 716 394 728 C 386 740 376 748 363 752 C 349 756 332 758 311 758 C 291 758 275 755 263 750 C 250 745 240 737 233 727 C 226 716 221 702 219 685 C 216 668 215 647 215 623 L 215 279 C 215 252 217 230 221 212 C 225 194 232 180 240 170 C 248 160 259 153 272 149 C 285 145 301 143 319 143 C 337 143 352 144 364 147 C 376 150 386 156 394 166 C 402 176 408 190 413 208 C 418 226 422 251 426 283 L 594 260 C 586 210 576 169 564 135 C 551 101 534 73 513 52 C 491 30 465 15 433 6 C 401 -3 363 -8 317 -8 Z M 83 1262 L 228 1262 L 312 1108 L 394 1262 L 535 1262 L 410 1008 L 208 1008 L 83 1262 Z" unicode="č" />
<glyph horiz-adv-x="784" d="M 74 1282 L 393 1282 C 460 1282 515 1273 559 1256 C 603 1239 637 1216 663 1187 C 688 1157 706 1122 716 1082 C 726 1042 731 998 731 952 L 731 352 C 731 298 725 250 714 207 C 703 163 685 126 659 96 C 633 65 598 41 555 25 C 512 8 459 0 395 0 L 74 0 L 74 1282 Z M 395 156 C 425 156 450 159 470 167 C 490 174 506 185 518 201 C 530 217 538 237 543 262 C 548 286 551 316 551 350 L 551 950 C 551 979 548 1004 543 1026 C 538 1048 530 1066 518 1081 C 506 1095 489 1106 469 1113 C 449 1120 423 1124 393 1124 L 252 1124 L 252 156 L 395 156 Z M 166 1618 L 311 1618 L 395 1464 L 477 1618 L 618 1618 L 493 1364 L 291 1364 L 166 1618 Z" unicode="Ď" />
<glyph horiz-adv-x="764" d="M 650 1024 C 668 1026 683 1030 695 1034 C 706 1038 714 1043 720 1051 C 726 1059 729 1069 731 1081 C 733 1093 734 1108 734 1126 L 650 1126 L 650 1310 L 825 1310 L 825 1132 C 825 1104 822 1078 818 1056 C 814 1033 805 1014 793 998 C 781 982 763 969 740 960 C 717 950 687 945 650 944 L 650 1024 Z M 270 -8 C 228 -8 193 -1 165 11 C 136 24 113 43 95 67 C 77 91 65 120 57 155 C 49 190 45 230 45 274 L 45 623 C 45 668 48 708 56 744 C 64 780 76 810 94 835 C 111 859 134 878 163 891 C 192 904 228 911 272 911 C 304 911 333 907 359 900 C 385 893 409 878 430 856 L 430 1313 L 598 1313 L 598 0 L 430 0 L 430 63 C 412 40 391 22 365 10 C 339 -1 308 -8 270 -8 Z M 324 143 C 344 143 360 146 373 152 C 386 158 397 166 405 177 C 413 188 418 201 422 216 C 426 230 428 246 430 264 L 430 639 C 430 682 421 713 405 731 C 388 749 360 758 322 758 C 280 758 251 747 237 726 C 222 704 215 669 215 621 L 215 281 C 215 259 216 240 219 223 C 222 206 228 192 236 180 C 244 168 256 158 270 152 C 284 146 302 143 324 143 Z" unicode="ď" />
<glyph horiz-adv-x="784" d="M 0 797 L 74 797 L 74 1282 L 393 1282 C 460 1282 515 1273 559 1256 C 603 1239 637 1216 663 1187 C 688 1157 706 1122 716 1082 C 726 1042 731 998 731 952 L 731 352 C 731 298 725 250 714 207 C 703 163 685 126 659 96 C 633 65 598 41 555 25 C 512 8 459 0 395 0 L 74 0 L 74 645 L 0 645 L 0 797 Z M 395 156 C 425 156 450 159 470 167 C 490 174 506 185 518 201 C 530 217 538 237 543 262 C 548 286 551 316 551 350 L 551 950 C 551 979 548 1004 543 1026 C 538 1048 530 1066 518 1081 C 506 1095 489 1106 469 1113 C 449 1120 423 1124 393 1124 L 252 1124 L 252 797 L 430 797 L 430 645 L 252 645 L 252 156 L 395 156 Z" unicode="Đ" />
<glyph horiz-adv-x="655" d="M 297 1176 L 430 1176 L 430 1313 L 598 1313 L 598 1176 L 655 1176 L 655 1018 L 598 1018 L 598 0 L 430 0 L 430 63 C 412 40 391 22 365 10 C 339 -1 308 -8 270 -8 C 228 -8 193 -1 165 11 C 136 24 113 43 95 67 C 77 91 65 120 57 155 C 49 190 45 230 45 274 L 45 623 C 45 668 48 708 56 744 C 64 780 76 810 94 835 C 111 859 134 878 163 891 C 192 904 228 911 272 911 C 304 911 333 907 359 900 C 385 893 409 878 430 856 L 430 1018 L 297 1018 L 297 1176 Z M 324 143 C 344 143 360 146 373 152 C 386 158 397 166 405 177 C 413 188 418 201 422 216 C 426 230 428 246 430 264 L 430 639 C 430 682 421 713 405 731 C 388 749 360 758 322 758 C 280 758 251 747 237 726 C 222 704 215 669 215 621 L 215 281 C 215 259 216 240 219 223 C 222 206 228 192 236 180 C 244 168 256 158 270 152 C 284 146 302 143 324 143 Z" unicode="đ" />
<glyph horiz-adv-x="653" d="M 74 1282 L 618 1282 L 618 1120 L 252 1120 L 252 782 L 557 782 L 557 627 L 252 627 L 252 160 L 618 160 L 618 0 L 74 0 L 74 1282 Z M 103 1505 L 555 1505 L 555 1364 L 103 1364 L 103 1505 Z" unicode="Ē" />
<glyph horiz-adv-x="625" d="M 322 -8 C 226 -8 156 14 112 60 C 67 106 45 178 45 276 L 45 623 C 45 669 49 711 58 747 C 67 783 82 813 104 837 C 126 861 154 880 190 892 C 225 904 269 911 322 911 C 375 911 418 904 452 890 C 486 876 512 857 532 832 C 551 807 564 777 571 743 C 578 708 582 669 582 627 L 582 397 L 211 397 L 211 279 C 211 226 219 189 236 167 C 253 145 281 135 319 135 C 339 135 356 137 368 141 C 380 145 389 152 395 162 C 401 172 406 185 409 201 C 412 217 415 238 418 264 L 575 240 C 569 204 563 170 555 140 C 547 110 535 84 518 62 C 500 40 476 22 445 10 C 414 -1 373 -8 322 -8 Z M 211 539 L 416 539 L 416 625 C 416 647 415 666 413 683 C 411 700 407 714 401 726 C 395 738 385 747 372 753 C 358 759 340 762 317 762 C 293 762 275 759 261 753 C 247 747 237 738 229 726 C 221 714 216 700 214 683 C 212 665 211 645 211 623 L 211 539 Z M 89 1149 L 541 1149 L 541 1008 L 89 1008 L 89 1149 Z" unicode="ē" />
<glyph horiz-adv-x="653" d="M 74 1282 L 618 1282 L 618 1120 L 252 1120 L 252 782 L 557 782 L 557 627 L 252 627 L 252 160 L 618 160 L 618 0 L 74 0 L 74 1282 Z M 242 1560 L 416 1560 L 416 1364 L 242 1364 L 242 1560 Z" unicode="Ė" />
<glyph horiz-adv-x="1032" d="M 514 -8 C 368 -8 260 24 190 90 C 119 156 84 253 84 381 L 84 918 C 84 972 92 1023 108 1069 C 124 1115 150 1154 185 1187 C 219 1220 264 1246 318 1264 C 372 1282 438 1292 514 1292 C 592 1292 658 1283 713 1265 C 768 1247 813 1221 848 1189 C 883 1157 909 1118 925 1073 C 941 1027 950 978 950 924 L 950 383 C 950 253 914 156 842 90 C 770 24 661 -8 514 -8 Z M 514 94 C 624 94 706 117 761 164 C 816 210 844 283 844 383 L 844 924 C 844 964 837 1000 825 1033 C 813 1066 793 1094 767 1117 C 740 1140 706 1158 664 1171 C 622 1183 572 1190 514 1190 C 456 1190 407 1183 366 1170 C 325 1156 291 1138 265 1114 C 238 1090 218 1061 206 1028 C 194 994 188 958 188 918 L 188 381 C 188 282 215 209 270 163 C 325 117 406 94 514 94 Z M 324 1079 L 508 1079 C 548 1079 584 1075 616 1069 C 648 1062 674 1050 696 1033 C 718 1015 734 991 745 961 C 756 931 762 892 762 846 L 762 774 C 762 727 756 689 745 659 C 734 629 718 605 696 587 C 674 569 648 557 616 551 C 584 544 548 541 508 541 L 457 541 L 457 190 L 324 190 L 324 1079 Z M 514 659 C 538 659 558 660 573 663 C 587 666 599 672 607 680 C 615 688 620 700 623 715 C 625 729 627 748 627 772 L 627 846 C 627 868 625 886 623 901 C 620 915 615 927 607 936 C 599 945 587 951 573 955 C 558 959 538 961 514 961 L 457 961 L 457 659 L 514 659 Z" unicode="℗" />
<glyph horiz-adv-x="653" d="M 496 -305 C 466 -305 440 -302 418 -297 C 396 -291 379 -282 365 -270 C 351 -257 341 -240 335 -220 C 329 -199 326 -173 326 -143 C 326 -121 328 -102 332 -85 C 336 -68 343 -52 351 -38 C 359 -24 369 -10 381 2 C 393 14 408 27 424 41 L 555 41 C 534 21 517 4 504 -10 C 491 -25 481 -39 474 -53 C 466 -66 461 -79 459 -93 C 456 -106 455 -121 455 -137 C 455 -161 457 -178 463 -187 C 468 -196 481 -201 502 -201 C 512 -201 520 -200 527 -199 C 534 -197 540 -194 545 -190 C 549 -186 553 -180 556 -172 C 559 -164 562 -154 565 -141 L 686 -176 C 678 -197 671 -216 663 -232 C 655 -248 644 -262 630 -273 C 616 -283 599 -291 578 -297 C 557 -302 530 -305 496 -305 Z M 74 1282 L 618 1282 L 618 1120 L 252 1120 L 252 782 L 557 782 L 557 627 L 252 627 L 252 160 L 618 160 L 618 0 L 74 0 L 74 1282 Z" unicode="Ę" />
<glyph horiz-adv-x="625" d="M 396 -305 C 366 -305 340 -302 318 -297 C 296 -291 279 -282 265 -270 C 251 -257 241 -240 235 -220 C 229 -199 226 -173 226 -143 C 226 -121 228 -102 232 -85 C 236 -68 243 -52 251 -38 C 259 -24 269 -10 281 2 C 293 14 308 27 324 41 L 455 41 C 434 21 417 4 404 -10 C 391 -25 381 -39 374 -53 C 366 -66 361 -79 359 -93 C 356 -106 355 -121 355 -137 C 355 -161 357 -178 363 -187 C 368 -196 381 -201 402 -201 C 412 -201 420 -200 427 -199 C 434 -197 440 -194 445 -190 C 449 -186 453 -180 456 -172 C 459 -164 462 -154 465 -141 L 586 -176 C 578 -197 571 -216 563 -232 C 555 -248 544 -262 530 -273 C 516 -283 499 -291 478 -297 C 457 -302 430 -305 396 -305 Z M 322 -8 C 226 -8 156 14 112 60 C 67 106 45 178 45 276 L 45 623 C 45 669 49 711 58 747 C 67 783 82 813 104 837 C 126 861 154 880 190 892 C 225 904 269 911 322 911 C 375 911 418 904 452 890 C 486 876 512 857 532 832 C 551 807 564 777 571 743 C 578 708 582 669 582 627 L 582 397 L 211 397 L 211 279 C 211 226 219 189 236 167 C 253 145 281 135 319 135 C 339 135 356 137 368 141 C 380 145 389 152 395 162 C 401 172 406 185 409 201 C 412 217 415 238 418 264 L 575 240 C 569 204 563 170 555 140 C 547 110 535 84 518 62 C 500 40 476 22 445 10 C 414 -1 373 -8 322 -8 Z M 211 539 L 416 539 L 416 625 C 416 647 415 666 413 683 C 411 700 407 714 401 726 C 395 738 385 747 372 753 C 358 759 340 762 317 762 C 293 762 275 759 261 753 C 247 747 237 738 229 726 C 221 714 216 700 214 683 C 212 665 211 645 211 623 L 211 539 Z" unicode="ę" />
<glyph horiz-adv-x="653" d="M 74 1282 L 618 1282 L 618 1120 L 252 1120 L 252 782 L 557 782 L 557 627 L 252 627 L 252 160 L 618 160 L 618 0 L 74 0 L 74 1282 Z M 103 1618 L 248 1618 L 332 1464 L 414 1618 L 555 1618 L 430 1364 L 228 1364 L 103 1618 Z" unicode="Ě" />
<glyph horiz-adv-x="625" d="M 322 -8 C 226 -8 156 14 112 60 C 67 106 45 178 45 276 L 45 623 C 45 669 49 711 58 747 C 67 783 82 813 104 837 C 126 861 154 880 190 892 C 225 904 269 911 322 911 C 375 911 418 904 452 890 C 486 876 512 857 532 832 C 551 807 564 777 571 743 C 578 708 582 669 582 627 L 582 397 L 211 397 L 211 279 C 211 226 219 189 236 167 C 253 145 281 135 319 135 C 339 135 356 137 368 141 C 380 145 389 152 395 162 C 401 172 406 185 409 201 C 412 217 415 238 418 264 L 575 240 C 569 204 563 170 555 140 C 547 110 535 84 518 62 C 500 40 476 22 445 10 C 414 -1 373 -8 322 -8 Z M 211 539 L 416 539 L 416 625 C 416 647 415 666 413 683 C 411 700 407 714 401 726 C 395 738 385 747 372 753 C 358 759 340 762 317 762 C 293 762 275 759 261 753 C 247 747 237 738 229 726 C 221 714 216 700 214 683 C 212 665 211 645 211 623 L 211 539 Z M 89 1262 L 234 1262 L 318 1108 L 400 1262 L 541 1262 L 416 1008 L 214 1008 L 89 1262 Z" unicode="ě" />
<glyph horiz-adv-x="764" d="M 362 -8 C 306 -8 258 0 219 14 C 180 28 148 51 124 81 C 99 111 81 148 70 194 C 58 239 53 292 53 354 L 53 942 C 53 1003 60 1056 74 1100 C 88 1144 108 1181 136 1209 C 164 1237 198 1258 239 1272 C 279 1285 327 1292 381 1292 C 451 1292 507 1282 549 1264 C 591 1245 623 1219 645 1187 C 667 1155 682 1117 690 1073 C 698 1029 703 982 707 932 L 524 911 C 522 955 519 992 516 1020 C 512 1048 506 1071 496 1087 C 486 1103 471 1115 453 1121 C 434 1127 409 1130 377 1130 C 347 1130 323 1125 305 1117 C 286 1108 271 1095 261 1079 C 250 1063 243 1043 239 1020 C 235 997 233 972 233 944 L 233 352 C 233 320 234 291 238 266 C 242 240 249 219 260 202 C 271 185 287 172 307 163 C 327 154 354 150 387 150 C 422 150 450 155 470 165 C 490 175 505 192 515 218 C 525 244 531 278 534 321 C 536 364 538 419 539 485 L 539 545 L 383 545 L 383 700 L 707 700 L 707 0 L 575 0 L 561 68 C 538 42 511 23 479 11 C 447 -1 408 -8 362 -8 Z M 369 1364 C 316 1364 274 1370 244 1384 C 213 1398 190 1417 174 1441 C 158 1465 148 1494 144 1528 C 140 1562 138 1598 138 1638 L 295 1638 C 295 1612 296 1589 297 1571 C 298 1552 301 1537 306 1525 C 310 1513 317 1505 327 1499 C 337 1493 351 1491 369 1491 C 387 1491 402 1493 412 1499 C 422 1505 429 1513 434 1525 C 438 1537 441 1552 442 1571 C 443 1589 444 1612 445 1638 L 602 1638 C 602 1598 599 1562 595 1528 C 591 1494 581 1465 565 1441 C 549 1417 525 1398 494 1384 C 463 1370 421 1364 369 1364 Z" unicode="Ğ" />
<glyph horiz-adv-x="655" d="M 332 -334 C 281 -334 239 -329 206 -320 C 172 -310 145 -297 124 -279 C 103 -261 87 -240 76 -216 C 64 -191 55 -163 49 -133 L 209 -84 C 213 -105 218 -122 223 -135 C 227 -148 234 -158 243 -166 C 251 -174 262 -179 276 -182 C 289 -184 306 -186 328 -186 C 366 -186 393 -177 408 -159 C 422 -141 430 -112 430 -70 L 430 68 C 412 44 391 26 365 14 C 339 2 308 -4 270 -4 C 228 -4 193 2 165 14 C 136 26 113 45 95 69 C 77 93 65 122 57 156 C 49 190 45 230 45 274 L 45 623 C 45 668 48 708 56 744 C 64 780 76 810 94 835 C 111 859 134 878 163 891 C 192 904 228 911 272 911 C 304 911 333 907 359 900 C 385 893 409 878 430 856 L 430 897 L 598 897 L 598 -66 C 598 -104 594 -140 587 -173 C 579 -205 566 -234 547 -258 C 527 -282 500 -300 466 -314 C 431 -327 386 -334 332 -334 Z M 324 143 C 344 143 361 146 375 152 C 388 158 399 167 407 179 C 415 190 420 203 424 219 C 427 235 429 252 430 270 L 430 639 C 430 682 421 713 405 731 C 388 749 360 758 322 758 C 280 758 251 747 237 726 C 222 704 215 669 215 621 L 215 281 C 215 259 216 240 219 223 C 222 206 228 192 236 180 C 244 168 256 158 270 152 C 284 146 302 143 324 143 Z M 316 1008 C 263 1008 221 1014 191 1028 C 160 1042 137 1061 121 1085 C 105 1109 95 1138 91 1172 C 87 1206 85 1242 85 1282 L 242 1282 C 242 1256 243 1233 244 1215 C 245 1196 248 1181 253 1169 C 257 1157 264 1149 274 1143 C 284 1137 298 1135 316 1135 C 334 1135 349 1137 359 1143 C 369 1149 376 1157 381 1169 C 385 1181 388 1196 389 1215 C 390 1233 391 1256 392 1282 L 549 1282 C 549 1242 546 1206 542 1172 C 538 1138 528 1109 512 1085 C 496 1061 472 1042 441 1028 C 410 1014 368 1008 316 1008 Z" unicode="ğ" />
<glyph horiz-adv-x="1837" d="M 285 514 C 208 514 150 531 111 567 C 72 603 53 658 53 733 L 53 1077 C 53 1109 57 1138 66 1165 C 75 1191 89 1214 108 1233 C 127 1251 151 1266 180 1276 C 209 1286 244 1292 285 1292 C 325 1292 359 1287 389 1277 C 418 1267 442 1252 461 1234 C 479 1216 493 1194 502 1168 C 511 1142 516 1113 516 1081 L 516 735 C 516 659 496 603 457 567 C 418 531 361 514 285 514 Z M 285 645 C 311 645 333 652 349 666 C 365 680 373 705 373 741 L 373 1073 C 373 1130 343 1159 285 1159 C 226 1159 197 1129 197 1071 L 197 741 C 197 705 204 680 220 666 C 235 652 257 645 285 645 Z M 1034 -8 C 959 -8 902 10 863 46 C 824 82 805 137 805 213 L 805 557 C 805 589 809 618 818 645 C 827 671 841 694 859 713 C 877 731 901 746 930 756 C 959 766 994 772 1034 772 C 1114 772 1173 753 1211 715 C 1249 677 1268 625 1268 561 L 1268 215 C 1268 138 1248 82 1209 46 C 1169 10 1111 -8 1034 -8 Z M 1034 125 C 1062 125 1083 132 1099 146 C 1114 160 1122 185 1122 221 L 1122 553 C 1122 609 1092 637 1034 637 C 976 637 948 607 948 549 L 948 219 C 948 184 955 160 970 146 C 984 132 1006 125 1034 125 Z M 1554 -8 C 1478 -8 1420 10 1380 46 C 1340 82 1321 137 1321 213 L 1321 557 C 1321 589 1325 618 1335 645 C 1344 671 1358 694 1377 713 C 1396 731 1420 746 1450 756 C 1479 766 1514 772 1554 772 C 1634 772 1692 753 1730 715 C 1767 677 1786 625 1786 561 L 1786 215 C 1786 138 1766 82 1727 46 C 1688 10 1630 -8 1554 -8 Z M 1554 125 C 1581 125 1602 132 1617 146 C 1632 160 1640 185 1640 221 L 1640 553 C 1640 609 1611 637 1554 637 C 1495 637 1466 607 1466 549 L 1466 219 C 1466 184 1473 160 1488 146 C 1503 132 1525 125 1554 125 Z M 776 1282 L 936 1282 L 543 0 L 381 0 L 776 1282 Z" unicode="‰" />
<glyph horiz-adv-x="971" d="M 395 1282 L 578 1282 L 649 874 L 723 1282 L 907 1282 L 907 641 L 784 641 L 784 1069 L 707 641 L 590 641 L 512 1069 L 512 641 L 395 641 L 395 1282 Z M 129 1167 L 31 1167 L 31 1282 L 362 1282 L 362 1167 L 260 1167 L 260 641 L 129 641 L 129 1167 Z" unicode="™" />
<glyph horiz-adv-x="655" d="M 332 -334 C 281 -334 239 -329 206 -320 C 172 -310 145 -297 124 -279 C 103 -261 87 -240 76 -216 C 64 -191 55 -163 49 -133 L 209 -84 C 213 -105 218 -122 223 -135 C 227 -148 234 -158 243 -166 C 251 -174 262 -179 276 -182 C 289 -184 306 -186 328 -186 C 366 -186 393 -177 408 -159 C 422 -141 430 -112 430 -70 L 430 68 C 412 44 391 26 365 14 C 339 2 308 -4 270 -4 C 228 -4 193 2 165 14 C 136 26 113 45 95 69 C 77 93 65 122 57 156 C 49 190 45 230 45 274 L 45 623 C 45 668 48 708 56 744 C 64 780 76 810 94 835 C 111 859 134 878 163 891 C 192 904 228 911 272 911 C 304 911 333 907 359 900 C 385 893 409 878 430 856 L 430 897 L 598 897 L 598 -66 C 598 -104 594 -140 587 -173 C 579 -205 566 -234 547 -258 C 527 -282 500 -300 466 -314 C 431 -327 386 -334 332 -334 Z M 324 143 C 344 143 361 146 375 152 C 388 158 399 167 407 179 C 415 190 420 203 424 219 C 427 235 429 252 430 270 L 430 639 C 430 682 421 713 405 731 C 388 749 360 758 322 758 C 280 758 251 747 237 726 C 222 704 215 669 215 621 L 215 281 C 215 259 216 240 219 223 C 222 206 228 192 236 180 C 244 168 256 158 270 152 C 284 146 302 143 324 143 Z M 239 1186 C 239 1214 241 1239 245 1262 C 249 1284 257 1304 270 1320 C 282 1336 300 1348 323 1358 C 346 1367 376 1372 414 1374 L 414 1294 C 394 1291 379 1288 368 1284 C 357 1280 349 1274 343 1267 C 337 1259 334 1250 332 1238 C 330 1226 330 1210 330 1192 L 414 1192 L 414 1008 L 239 1008 L 239 1186 Z" unicode="ģ" />
<glyph horiz-adv-x="334" d="M 78 1282 L 254 1282 L 254 0 L 78 0 L 78 1282 Z M -57 1505 L 395 1505 L 395 1364 L -57 1364 L -57 1505 Z" unicode="Ī" />
<glyph horiz-adv-x="289" d="M 61 897 L 227 897 L 227 0 L 61 0 L 61 897 Z M -79 1149 L 373 1149 L 373 1008 L -79 1008 L -79 1149 Z" unicode="ī" />
<glyph horiz-adv-x="334" d="M 162 -305 C 132 -305 106 -302 84 -297 C 62 -291 45 -282 31 -270 C 17 -257 7 -240 1 -220 C -4 -199 -8 -173 -8 -143 C -8 -99 0 -63 17 -33 C 33 -3 58 24 90 51 L 221 41 C 200 21 183 4 170 -10 C 157 -25 147 -39 140 -53 C 132 -66 127 -79 125 -93 C 122 -106 121 -121 121 -137 C 121 -161 123 -178 129 -187 C 134 -196 147 -201 168 -201 C 178 -201 186 -200 193 -199 C 200 -197 206 -194 211 -190 C 215 -186 219 -180 222 -172 C 225 -164 228 -154 231 -141 L 352 -176 C 344 -197 337 -216 329 -232 C 321 -248 310 -262 297 -273 C 283 -283 266 -291 245 -297 C 223 -302 196 -305 162 -305 Z M 78 1282 L 254 1282 L 254 0 L 78 0 L 78 1282 Z" unicode="Į" />
<glyph horiz-adv-x="289" d="M 145 -305 C 115 -305 89 -302 68 -297 C 46 -291 29 -282 16 -270 C 2 -257 -7 -240 -13 -220 C -19 -199 -23 -173 -23 -143 C -23 -99 -15 -63 0 -33 C 16 -3 40 24 72 51 L 207 41 C 185 21 168 4 155 -10 C 141 -25 131 -39 124 -53 C 116 -66 111 -79 108 -93 C 105 -106 104 -121 104 -137 C 104 -161 106 -178 112 -187 C 118 -196 131 -201 152 -201 C 162 -201 170 -200 177 -199 C 184 -197 190 -194 195 -190 C 200 -186 204 -180 207 -172 C 210 -164 213 -154 217 -141 L 336 -176 C 328 -197 321 -216 313 -232 C 305 -248 294 -262 280 -273 C 266 -283 249 -291 228 -297 C 206 -302 179 -305 145 -305 Z M 61 897 L 227 897 L 227 0 L 61 0 L 61 897 Z M 57 1210 L 231 1210 L 231 1008 L 57 1008 L 57 1210 Z" unicode="į" />
<glyph horiz-adv-x="334" d="M 78 1282 L 254 1282 L 254 0 L 78 0 L 78 1282 Z M 82 1560 L 256 1560 L 256 1364 L 82 1364 L 82 1560 Z" unicode="İ" />
<glyph horiz-adv-x="289" d="M 61 897 L 227 897 L 227 0 L 61 0 L 61 897 Z" unicode="ı" />
<glyph horiz-adv-x="727" d="M 276 -356 C 294 -353 309 -350 321 -346 C 332 -342 340 -336 346 -328 C 352 -320 355 -311 357 -299 C 359 -287 360 -272 360 -254 L 276 -254 L 276 -70 L 451 -70 L 451 -248 C 451 -276 448 -301 444 -324 C 440 -346 431 -366 419 -382 C 407 -398 389 -410 366 -420 C 343 -429 313 -434 276 -436 L 276 -356 Z M 332 660 L 252 521 L 252 0 L 74 0 L 74 1282 L 252 1282 L 252 806 L 518 1282 L 698 1282 L 462 858 L 715 0 L 528 0 L 332 660 Z" unicode="Ķ" />
<glyph horiz-adv-x="573" d="M 198 -356 C 216 -353 231 -350 243 -346 C 254 -342 262 -336 268 -328 C 274 -320 277 -311 279 -299 C 281 -287 282 -272 282 -254 L 198 -254 L 198 -70 L 373 -70 L 373 -248 C 373 -276 370 -301 366 -324 C 362 -346 353 -366 341 -382 C 329 -398 311 -410 288 -420 C 265 -429 235 -434 198 -436 L 198 -356 Z M 288 429 L 225 308 L 225 0 L 57 0 L 57 1313 L 225 1313 L 225 593 L 391 897 L 555 897 L 408 629 L 557 0 L 387 0 L 288 429 Z" unicode="ķ" />
<glyph horiz-adv-x="629" d="M 74 1282 L 252 1282 L 252 160 L 608 160 L 608 0 L 74 0 L 74 1282 Z M 188 1618 L 371 1618 L 242 1364 L 86 1364 L 188 1618 Z" unicode="Ĺ" />
<glyph horiz-adv-x="289" d="M 61 1313 L 227 1313 L 227 0 L 61 0 L 61 1313 Z M 168 1616 L 351 1616 L 222 1362 L 66 1362 L 168 1616 Z" unicode="ĺ" />
<glyph horiz-adv-x="629" d="M 226 -356 C 244 -353 259 -350 271 -346 C 282 -342 290 -336 296 -328 C 302 -320 305 -311 307 -299 C 309 -287 310 -272 310 -254 L 226 -254 L 226 -70 L 401 -70 L 401 -248 C 401 -276 398 -301 394 -324 C 390 -346 381 -366 369 -382 C 357 -398 339 -410 316 -420 C 293 -429 263 -434 226 -436 L 226 -356 Z M 74 1282 L 252 1282 L 252 160 L 608 160 L 608 0 L 74 0 L 74 1282 Z" unicode="Ļ" />
<glyph horiz-adv-x="289" d="M 59 -356 C 77 -353 92 -350 104 -346 C 115 -342 123 -336 129 -328 C 135 -320 138 -311 140 -299 C 142 -287 143 -272 143 -254 L 59 -254 L 59 -70 L 234 -70 L 234 -248 C 234 -276 231 -301 227 -324 C 223 -346 214 -366 202 -382 C 190 -398 172 -410 149 -420 C 126 -429 96 -434 59 -436 L 59 -356 Z M 61 1313 L 227 1313 L 227 0 L 61 0 L 61 1313 Z" unicode="ļ" />
<glyph horiz-adv-x="629" d="M 353 993 C 371 995 386 999 398 1003 C 409 1007 417 1012 423 1020 C 429 1028 432 1038 434 1050 C 436 1062 437 1077 437 1095 L 353 1095 L 353 1279 L 528 1279 L 528 1101 C 528 1073 525 1047 521 1025 C 517 1002 508 983 496 967 C 484 951 466 938 443 929 C 420 919 390 914 353 913 L 353 993 Z M 74 1282 L 252 1282 L 252 160 L 608 160 L 608 0 L 74 0 L 74 1282 Z" unicode="Ľ" />
<glyph horiz-adv-x="395" d="M 282 1024 C 300 1026 315 1030 327 1034 C 338 1038 346 1043 352 1051 C 358 1059 361 1069 363 1081 C 365 1093 366 1108 366 1126 L 282 1126 L 282 1310 L 457 1310 L 457 1132 C 457 1104 454 1078 450 1056 C 446 1033 437 1014 425 998 C 413 982 395 969 372 960 C 349 950 319 945 282 944 L 282 1024 Z M 61 1313 L 227 1313 L 227 0 L 61 0 L 61 1313 Z" unicode="ľ" />
<glyph horiz-adv-x="629" d="M 0 739 L 74 760 L 74 1282 L 252 1282 L 252 812 L 410 858 L 410 702 L 252 655 L 252 160 L 608 160 L 608 0 L 74 0 L 74 603 L 0 582 L 0 739 Z" unicode="Ł" />
<glyph horiz-adv-x="377" d="M 2 877 L 104 905 L 104 1313 L 272 1313 L 272 951 L 375 979 L 375 821 L 272 793 L 272 0 L 104 0 L 104 747 L 2 719 L 2 877 Z" unicode="ł" />
<glyph horiz-adv-x="776" d="M 74 1282 L 303 1282 L 532 514 L 532 1282 L 700 1282 L 700 0 L 528 0 L 244 934 L 244 0 L 74 0 L 74 1282 Z M 407 1618 L 590 1618 L 461 1364 L 305 1364 L 407 1618 Z" unicode="Ń" />
<glyph horiz-adv-x="657" d="M 57 897 L 225 897 L 225 838 C 246 859 272 876 303 890 C 334 904 370 911 412 911 C 454 911 488 905 514 894 C 540 883 559 867 573 846 C 587 825 596 800 600 770 C 604 740 606 707 606 670 L 606 0 L 438 0 L 438 647 C 438 686 431 714 418 732 C 405 749 381 758 346 758 C 324 758 305 756 290 752 C 274 748 262 741 252 731 C 242 721 235 706 231 687 C 227 667 225 642 225 610 L 225 0 L 57 0 L 57 897 Z M 350 1262 L 533 1262 L 404 1008 L 248 1008 L 350 1262 Z" unicode="ń" />
<glyph horiz-adv-x="776" d="M 298 -356 C 316 -353 331 -350 343 -346 C 354 -342 362 -336 368 -328 C 374 -320 377 -311 379 -299 C 381 -287 382 -272 382 -254 L 298 -254 L 298 -70 L 473 -70 L 473 -248 C 473 -276 470 -301 466 -324 C 462 -346 453 -366 441 -382 C 429 -398 411 -410 388 -420 C 365 -429 335 -434 298 -436 L 298 -356 Z M 74 1282 L 303 1282 L 532 514 L 532 1282 L 700 1282 L 700 0 L 528 0 L 244 934 L 244 0 L 74 0 L 74 1282 Z" unicode="Ņ" />
<glyph horiz-adv-x="657" d="M 241 -356 C 259 -353 274 -350 286 -346 C 297 -342 305 -336 311 -328 C 317 -320 320 -311 322 -299 C 324 -287 325 -272 325 -254 L 241 -254 L 241 -70 L 416 -70 L 416 -248 C 416 -276 413 -301 409 -324 C 405 -346 396 -366 384 -382 C 372 -398 354 -410 331 -420 C 308 -429 278 -434 241 -436 L 241 -356 Z M 57 897 L 225 897 L 225 838 C 246 859 272 876 303 890 C 334 904 370 911 412 911 C 454 911 488 905 514 894 C 540 883 559 867 573 846 C 587 825 596 800 600 770 C 604 740 606 707 606 670 L 606 0 L 438 0 L 438 647 C 438 686 431 714 418 732 C 405 749 381 758 346 758 C 324 758 305 756 290 752 C 274 748 262 741 252 731 C 242 721 235 706 231 687 C 227 667 225 642 225 610 L 225 0 L 57 0 L 57 897 Z" unicode="ņ" />
<glyph horiz-adv-x="776" d="M 74 1282 L 303 1282 L 532 514 L 532 1282 L 700 1282 L 700 0 L 528 0 L 244 934 L 244 0 L 74 0 L 74 1282 Z M 162 1618 L 307 1618 L 391 1464 L 473 1618 L 614 1618 L 489 1364 L 287 1364 L 162 1618 Z" unicode="Ň" />
<glyph horiz-adv-x="657" d="M 57 897 L 225 897 L 225 838 C 246 859 272 876 303 890 C 334 904 370 911 412 911 C 454 911 488 905 514 894 C 540 883 559 867 573 846 C 587 825 596 800 600 770 C 604 740 606 707 606 670 L 606 0 L 438 0 L 438 647 C 438 686 431 714 418 732 C 405 749 381 758 346 758 C 324 758 305 756 290 752 C 274 748 262 741 252 731 C 242 721 235 706 231 687 C 227 667 225 642 225 610 L 225 0 L 57 0 L 57 897 Z M 105 1262 L 250 1262 L 334 1108 L 416 1262 L 557 1262 L 432 1008 L 230 1008 L 105 1262 Z" unicode="ň" />
<glyph horiz-adv-x="778" d="M 387 -8 C 275 -8 192 20 136 77 C 80 133 53 226 53 354 L 53 942 C 53 996 59 1045 72 1089 C 84 1132 104 1169 131 1199 C 158 1229 193 1252 235 1268 C 277 1284 328 1292 387 1292 C 447 1292 499 1284 541 1269 C 583 1253 618 1231 645 1202 C 672 1172 692 1136 704 1094 C 716 1051 723 1002 723 948 L 723 356 C 723 291 716 236 702 190 C 688 144 668 106 640 77 C 612 47 577 26 535 12 C 493 -1 443 -8 387 -8 Z M 387 150 C 411 150 433 153 453 159 C 472 165 488 176 502 192 C 516 207 526 227 534 253 C 541 279 545 311 545 350 L 545 946 C 545 1012 532 1060 506 1088 C 480 1116 441 1130 387 1130 C 333 1130 294 1115 270 1087 C 245 1058 233 1010 233 944 L 233 352 C 233 312 236 280 242 254 C 248 228 257 207 269 192 C 281 176 297 165 317 159 C 336 153 359 150 387 150 Z M 164 1505 L 616 1505 L 616 1364 L 164 1364 L 164 1505 Z" unicode="Ō" />
<glyph horiz-adv-x="643" d="M 322 -8 C 228 -8 159 14 113 59 C 67 104 45 176 45 276 L 45 623 C 45 673 50 717 60 754 C 70 790 87 820 109 843 C 131 866 159 883 194 894 C 229 905 272 911 322 911 C 371 911 413 905 448 895 C 483 885 512 868 534 846 C 556 823 572 794 582 758 C 592 722 598 679 598 629 L 598 281 C 598 180 575 107 529 61 C 483 15 414 -8 322 -8 Z M 322 143 C 360 143 388 153 404 173 C 420 193 428 228 428 279 L 428 625 C 428 650 426 671 423 688 C 419 705 413 719 405 729 C 397 739 386 747 372 751 C 358 755 342 758 322 758 C 302 758 285 755 271 751 C 257 746 246 738 238 728 C 230 718 224 704 220 687 C 216 669 215 648 215 623 L 215 279 C 215 228 223 193 240 173 C 256 153 284 143 322 143 Z M 99 1149 L 551 1149 L 551 1008 L 99 1008 L 99 1149 Z" unicode="ō" />
<glyph horiz-adv-x="778" d="M 387 -8 C 275 -8 192 20 136 77 C 80 133 53 226 53 354 L 53 942 C 53 996 59 1045 72 1089 C 84 1132 104 1169 131 1199 C 158 1229 193 1252 235 1268 C 277 1284 328 1292 387 1292 C 447 1292 499 1284 541 1269 C 583 1253 618 1231 645 1202 C 672 1172 692 1136 704 1094 C 716 1051 723 1002 723 948 L 723 356 C 723 291 716 236 702 190 C 688 144 668 106 640 77 C 612 47 577 26 535 12 C 493 -1 443 -8 387 -8 Z M 387 150 C 411 150 433 153 453 159 C 472 165 488 176 502 192 C 516 207 526 227 534 253 C 541 279 545 311 545 350 L 545 946 C 545 1012 532 1060 506 1088 C 480 1116 441 1130 387 1130 C 333 1130 294 1115 270 1087 C 245 1058 233 1010 233 944 L 233 352 C 233 312 236 280 242 254 C 248 228 257 207 269 192 C 281 176 297 165 317 159 C 336 153 359 150 387 150 Z M 266 1638 L 432 1638 L 309 1364 L 170 1364 L 266 1638 Z M 528 1638 L 694 1638 L 571 1364 L 432 1364 L 528 1638 Z" unicode="Ő" />
<glyph horiz-adv-x="643" d="M 322 -8 C 228 -8 159 14 113 59 C 67 104 45 176 45 276 L 45 623 C 45 673 50 717 60 754 C 70 790 87 820 109 843 C 131 866 159 883 194 894 C 229 905 272 911 322 911 C 371 911 413 905 448 895 C 483 885 512 868 534 846 C 556 823 572 794 582 758 C 592 722 598 679 598 629 L 598 281 C 598 180 575 107 529 61 C 483 15 414 -8 322 -8 Z M 322 143 C 360 143 388 153 404 173 C 420 193 428 228 428 279 L 428 625 C 428 650 426 671 423 688 C 419 705 413 719 405 729 C 397 739 386 747 372 751 C 358 755 342 758 322 758 C 302 758 285 755 271 751 C 257 746 246 738 238 728 C 230 718 224 704 220 687 C 216 669 215 648 215 623 L 215 279 C 215 228 223 193 240 173 C 256 153 284 143 322 143 Z M 210 1282 L 376 1282 L 253 1008 L 114 1008 L 210 1282 Z M 472 1282 L 638 1282 L 515 1008 L 376 1008 L 472 1282 Z" unicode="ő" />
<glyph horiz-adv-x="1120" d="M 559 41 C 535 23 509 10 479 3 C 449 -4 417 -8 381 -8 C 271 -8 189 20 135 77 C 80 133 53 226 53 354 L 53 942 C 53 996 59 1045 72 1089 C 84 1132 104 1169 131 1199 C 157 1229 191 1252 233 1268 C 274 1284 323 1292 381 1292 C 454 1292 513 1275 559 1241 L 559 1282 L 1085 1282 L 1085 1120 L 717 1120 L 717 782 L 1024 782 L 1024 627 L 717 627 L 717 160 L 1085 160 L 1085 0 L 559 0 L 559 41 Z M 387 150 C 411 150 433 153 453 159 C 472 165 488 176 502 192 C 516 207 526 227 534 253 C 541 279 545 311 545 350 L 545 946 C 545 1012 532 1060 506 1088 C 480 1116 441 1130 387 1130 C 333 1130 294 1115 270 1087 C 245 1058 233 1010 233 944 L 233 352 C 233 312 236 280 242 254 C 248 228 257 207 269 192 C 281 176 297 165 317 159 C 336 153 359 150 387 150 Z" unicode="Œ" />
<glyph horiz-adv-x="1004" d="M 700 -8 C 656 -8 618 -3 587 6 C 556 15 530 30 510 50 C 469 11 406 -8 322 -8 C 228 -8 159 14 113 59 C 67 104 45 176 45 276 L 45 623 C 45 673 50 717 60 754 C 70 790 87 820 109 843 C 131 866 159 883 194 894 C 229 905 272 911 322 911 C 409 911 473 893 513 858 C 532 875 557 888 588 897 C 618 906 656 911 700 911 C 753 911 796 904 830 890 C 864 876 890 857 910 832 C 929 807 942 777 950 743 C 957 708 961 669 961 627 L 961 397 L 590 397 L 590 279 C 590 226 598 189 615 167 C 631 145 659 135 698 135 C 716 135 731 136 743 139 C 755 142 764 148 771 158 C 777 167 782 180 786 197 C 790 214 793 236 797 264 L 954 240 C 949 204 943 171 935 141 C 927 111 915 85 897 63 C 879 41 855 23 824 11 C 793 -1 752 -8 700 -8 Z M 322 143 C 360 143 388 153 404 173 C 420 193 428 228 428 279 L 428 625 C 428 650 426 671 423 688 C 419 705 413 719 405 729 C 397 739 386 747 372 751 C 358 755 342 758 322 758 C 302 758 285 755 271 751 C 257 746 246 738 238 728 C 230 718 224 704 220 687 C 216 669 215 648 215 623 L 215 279 C 215 228 223 193 240 173 C 256 153 284 143 322 143 Z M 590 539 L 795 539 L 795 625 C 795 647 794 666 793 683 C 791 700 787 714 781 726 C 774 738 764 747 751 753 C 738 759 720 762 696 762 C 672 762 654 759 640 753 C 626 747 616 738 608 726 C 600 714 595 700 593 683 C 591 665 590 645 590 623 L 590 539 Z" unicode="œ" />
<glyph horiz-adv-x="727" d="M 74 1282 L 338 1282 C 395 1282 445 1277 488 1269 C 531 1260 567 1244 596 1220 C 624 1196 646 1162 660 1119 C 674 1076 682 1020 682 952 L 682 866 C 682 820 678 780 671 746 C 664 712 654 684 641 660 C 627 636 610 616 590 601 C 570 585 546 573 520 565 L 678 0 L 496 0 L 344 543 L 338 543 L 252 543 L 252 0 L 74 0 L 74 1282 Z M 346 694 C 380 694 408 696 429 702 C 450 707 466 716 478 729 C 489 742 496 759 500 781 C 504 803 506 830 506 864 L 506 954 C 506 984 504 1009 500 1031 C 496 1053 489 1071 478 1085 C 466 1099 450 1109 429 1116 C 407 1122 379 1126 344 1126 L 252 1126 L 252 694 L 346 694 Z M 385 1618 L 568 1618 L 439 1364 L 283 1364 L 385 1618 Z" unicode="Ŕ" />
<glyph horiz-adv-x="393" d="M 57 897 L 225 897 L 225 825 C 244 846 267 863 293 876 C 319 888 349 895 383 897 L 383 743 C 352 739 327 735 307 731 C 287 726 271 718 259 706 C 247 694 238 677 233 656 C 228 634 225 606 225 571 L 225 0 L 57 0 L 57 897 Z M 219 1262 L 402 1262 L 273 1008 L 117 1008 L 219 1262 Z" unicode="ŕ" />
<glyph horiz-adv-x="727" d="M 276 -356 C 294 -353 309 -350 321 -346 C 332 -342 340 -336 346 -328 C 352 -320 355 -311 357 -299 C 359 -287 360 -272 360 -254 L 276 -254 L 276 -70 L 451 -70 L 451 -248 C 451 -276 448 -301 444 -324 C 440 -346 431 -366 419 -382 C 407 -398 389 -410 366 -420 C 343 -429 313 -434 276 -436 L 276 -356 Z M 74 1282 L 338 1282 C 395 1282 445 1277 488 1269 C 531 1260 567 1244 596 1220 C 624 1196 646 1162 660 1119 C 674 1076 682 1020 682 952 L 682 866 C 682 820 678 780 671 746 C 664 712 654 684 641 660 C 627 636 610 616 590 601 C 570 585 546 573 520 565 L 678 0 L 496 0 L 344 543 L 338 543 L 252 543 L 252 0 L 74 0 L 74 1282 Z M 346 694 C 380 694 408 696 429 702 C 450 707 466 716 478 729 C 489 742 496 759 500 781 C 504 803 506 830 506 864 L 506 954 C 506 984 504 1009 500 1031 C 496 1053 489 1071 478 1085 C 466 1099 450 1109 429 1116 C 407 1122 379 1126 344 1126 L 252 1126 L 252 694 L 346 694 Z" unicode="Ŗ" />
<glyph horiz-adv-x="393" d="M 59 -356 C 77 -353 92 -350 104 -346 C 115 -342 123 -336 129 -328 C 135 -320 138 -311 140 -299 C 142 -287 143 -272 143 -254 L 59 -254 L 59 -70 L 234 -70 L 234 -248 C 234 -276 231 -301 227 -324 C 223 -346 214 -366 202 -382 C 190 -398 172 -410 149 -420 C 126 -429 96 -434 59 -436 L 59 -356 Z M 57 897 L 225 897 L 225 825 C 244 846 267 863 293 876 C 319 888 349 895 383 897 L 383 743 C 352 739 327 735 307 731 C 287 726 271 718 259 706 C 247 694 238 677 233 656 C 228 634 225 606 225 571 L 225 0 L 57 0 L 57 897 Z" unicode="ŗ" />
<glyph horiz-adv-x="727" d="M 74 1282 L 338 1282 C 395 1282 445 1277 488 1269 C 531 1260 567 1244 596 1220 C 624 1196 646 1162 660 1119 C 674 1076 682 1020 682 952 L 682 866 C 682 820 678 780 671 746 C 664 712 654 684 641 660 C 627 636 610 616 590 601 C 570 585 546 573 520 565 L 678 0 L 496 0 L 344 543 L 338 543 L 252 543 L 252 0 L 74 0 L 74 1282 Z M 346 694 C 380 694 408 696 429 702 C 450 707 466 716 478 729 C 489 742 496 759 500 781 C 504 803 506 830 506 864 L 506 954 C 506 984 504 1009 500 1031 C 496 1053 489 1071 478 1085 C 466 1099 450 1109 429 1116 C 407 1122 379 1126 344 1126 L 252 1126 L 252 694 L 346 694 Z M 140 1618 L 285 1618 L 369 1464 L 451 1618 L 592 1618 L 467 1364 L 265 1364 L 140 1618 Z" unicode="Ř" />
<glyph horiz-adv-x="393" d="M 57 897 L 225 897 L 225 825 C 244 846 267 863 293 876 C 319 888 349 895 383 897 L 383 743 C 352 739 327 735 307 731 C 287 726 271 718 259 706 C 247 694 238 677 233 656 C 228 634 225 606 225 571 L 225 0 L 57 0 L 57 897 Z M -26 1262 L 119 1262 L 203 1108 L 285 1262 L 426 1262 L 301 1008 L 99 1008 L -26 1262 Z" unicode="ř" />
<glyph horiz-adv-x="723" d="M 362 -8 C 296 -8 242 0 200 17 C 158 33 124 57 100 88 C 76 119 59 157 49 201 C 39 245 33 294 31 348 L 211 371 C 213 323 217 284 222 256 C 227 227 235 205 247 190 C 258 174 273 164 293 159 C 312 154 337 152 367 152 C 396 152 420 155 439 163 C 457 170 472 180 482 193 C 492 205 500 220 504 238 C 508 255 510 274 510 295 C 510 321 505 346 497 368 C 489 390 476 412 458 435 C 440 458 418 483 390 511 C 362 538 329 570 291 608 C 253 642 220 675 190 705 C 160 735 135 766 114 796 C 93 826 77 857 66 889 C 54 921 49 957 49 997 C 49 1095 76 1169 130 1218 C 184 1267 262 1292 362 1292 C 416 1292 462 1286 500 1274 C 538 1262 569 1243 594 1218 C 618 1193 637 1161 649 1123 C 661 1085 670 1039 674 987 L 494 969 C 491 1001 487 1027 483 1048 C 478 1069 471 1086 461 1098 C 451 1110 439 1118 424 1123 C 408 1127 389 1130 365 1130 C 338 1130 316 1127 298 1121 C 280 1115 266 1107 256 1096 C 245 1085 237 1072 233 1056 C 229 1040 227 1021 227 1001 C 227 979 230 959 237 941 C 243 923 254 904 269 884 C 283 864 302 843 326 820 C 349 797 377 770 410 739 C 454 695 494 656 528 622 C 562 588 591 554 615 521 C 639 487 657 453 669 417 C 681 381 688 339 688 293 C 688 245 681 202 669 165 C 657 127 637 96 611 70 C 585 44 551 25 510 12 C 468 -1 419 -8 362 -8 Z M 383 1618 L 566 1618 L 437 1364 L 281 1364 L 383 1618 Z" unicode="Ś" />
<glyph horiz-adv-x="600" d="M 301 -8 C 255 -8 217 -3 185 6 C 153 15 126 29 105 49 C 83 69 67 94 56 125 C 44 155 37 192 35 236 L 195 264 C 197 237 200 215 204 198 C 208 181 213 168 220 158 C 227 148 237 142 249 138 C 261 134 277 133 297 133 C 333 133 358 139 372 152 C 386 164 393 187 393 221 C 393 236 389 250 383 263 C 377 275 367 289 354 303 C 340 317 323 332 303 349 C 282 365 257 386 229 410 C 203 428 180 447 159 465 C 138 483 120 503 104 523 C 88 543 76 566 68 590 C 59 614 55 642 55 672 C 55 706 58 737 65 766 C 72 795 85 820 104 842 C 122 863 147 880 179 892 C 211 904 251 911 301 911 C 345 911 382 906 413 897 C 444 888 470 875 490 857 C 510 839 526 816 536 789 C 546 762 553 730 557 694 L 395 670 C 393 686 392 700 390 712 C 388 724 384 734 378 742 C 372 750 363 756 351 760 C 339 764 323 766 303 766 C 272 766 251 759 240 746 C 228 732 223 712 223 684 C 223 668 225 654 231 642 C 236 629 244 616 255 604 C 265 592 279 579 295 565 C 311 551 331 536 354 520 C 384 496 412 473 438 453 C 463 432 485 411 503 389 C 521 367 534 343 544 317 C 554 291 559 261 559 227 C 559 146 538 87 496 49 C 454 11 389 -8 301 -8 Z M 322 1262 L 505 1262 L 376 1008 L 220 1008 L 322 1262 Z" unicode="ś" />
<glyph horiz-adv-x="410" d="M 186 451 L 53 897 L 225 897 L 360 451 L 225 0 L 53 0 L 186 451 Z" unicode="›" />
<glyph horiz-adv-x="723" d="M 362 -8 C 296 -8 242 0 200 17 C 158 33 124 57 100 88 C 76 119 59 157 49 201 C 39 245 33 294 31 348 L 211 371 C 213 323 217 284 222 256 C 227 227 235 205 247 190 C 258 174 273 164 293 159 C 312 154 337 152 367 152 C 396 152 420 155 439 163 C 457 170 472 180 482 193 C 492 205 500 220 504 238 C 508 255 510 274 510 295 C 510 321 505 346 497 368 C 489 390 476 412 458 435 C 440 458 418 483 390 511 C 362 538 329 570 291 608 C 253 642 220 675 190 705 C 160 735 135 766 114 796 C 93 826 77 857 66 889 C 54 921 49 957 49 997 C 49 1095 76 1169 130 1218 C 184 1267 262 1292 362 1292 C 416 1292 462 1286 500 1274 C 538 1262 569 1243 594 1218 C 618 1193 637 1161 649 1123 C 661 1085 670 1039 674 987 L 494 969 C 491 1001 487 1027 483 1048 C 478 1069 471 1086 461 1098 C 451 1110 439 1118 424 1123 C 408 1127 389 1130 365 1130 C 338 1130 316 1127 298 1121 C 280 1115 266 1107 256 1096 C 245 1085 237 1072 233 1056 C 229 1040 227 1021 227 1001 C 227 979 230 959 237 941 C 243 923 254 904 269 884 C 283 864 302 843 326 820 C 349 797 377 770 410 739 C 454 695 494 656 528 622 C 562 588 591 554 615 521 C 639 487 657 453 669 417 C 681 381 688 339 688 293 C 688 245 681 202 669 165 C 657 127 637 96 611 70 C 585 44 551 25 510 12 C 468 -1 419 -8 362 -8 Z M 383 -375 C 345 -375 315 -371 293 -363 C 271 -355 254 -344 242 -330 C 230 -316 221 -299 217 -281 C 213 -263 209 -243 207 -223 L 322 -209 C 323 -221 325 -231 327 -240 C 329 -248 332 -255 336 -261 C 340 -266 346 -270 354 -272 C 361 -274 371 -276 383 -276 C 395 -276 405 -274 413 -272 C 421 -270 427 -266 431 -260 C 435 -254 437 -245 438 -235 C 439 -224 440 -211 440 -195 C 440 -165 437 -144 432 -133 C 427 -122 414 -117 393 -117 C 381 -117 373 -118 367 -120 C 361 -122 355 -125 350 -131 L 264 -102 L 318 41 L 424 41 L 391 -43 C 401 -40 415 -39 434 -39 C 455 -39 473 -41 489 -46 C 505 -51 518 -60 528 -72 C 538 -84 546 -100 551 -120 C 556 -140 559 -166 559 -197 C 559 -229 556 -257 552 -280 C 548 -302 539 -321 527 -335 C 514 -349 496 -359 473 -365 C 450 -371 420 -375 383 -375 Z" unicode="Ş" />
<glyph horiz-adv-x="600" d="M 301 -8 C 255 -8 217 -3 185 6 C 153 15 126 29 105 49 C 83 69 67 94 56 125 C 44 155 37 192 35 236 L 195 264 C 197 237 200 215 204 198 C 208 181 213 168 220 158 C 227 148 237 142 249 138 C 261 134 277 133 297 133 C 333 133 358 139 372 152 C 386 164 393 187 393 221 C 393 236 389 250 383 263 C 377 275 367 289 354 303 C 340 317 323 332 303 349 C 282 365 257 386 229 410 C 203 428 180 447 159 465 C 138 483 120 503 104 523 C 88 543 76 566 68 590 C 59 614 55 642 55 672 C 55 706 58 737 65 766 C 72 795 85 820 104 842 C 122 863 147 880 179 892 C 211 904 251 911 301 911 C 345 911 382 906 413 897 C 444 888 470 875 490 857 C 510 839 526 816 536 789 C 546 762 553 730 557 694 L 395 670 C 393 686 392 700 390 712 C 388 724 384 734 378 742 C 372 750 363 756 351 760 C 339 764 323 766 303 766 C 272 766 251 759 240 746 C 228 732 223 712 223 684 C 223 668 225 654 231 642 C 236 629 244 616 255 604 C 265 592 279 579 295 565 C 311 551 331 536 354 520 C 384 496 412 473 438 453 C 463 432 485 411 503 389 C 521 367 534 343 544 317 C 554 291 559 261 559 227 C 559 146 538 87 496 49 C 454 11 389 -8 301 -8 Z M 322 -375 C 284 -375 254 -371 232 -363 C 210 -355 193 -344 181 -330 C 169 -316 160 -299 156 -281 C 152 -263 148 -243 146 -223 L 261 -209 C 262 -221 264 -231 266 -240 C 268 -248 271 -255 275 -261 C 279 -266 285 -270 293 -272 C 300 -274 310 -276 322 -276 C 334 -276 344 -274 352 -272 C 360 -270 366 -266 370 -260 C 374 -254 376 -245 377 -235 C 378 -224 379 -211 379 -195 C 379 -165 376 -144 371 -133 C 366 -122 353 -117 332 -117 C 320 -117 312 -118 306 -120 C 300 -122 294 -125 289 -131 L 203 -102 L 257 41 L 363 41 L 330 -43 C 340 -40 354 -39 373 -39 C 394 -39 412 -41 428 -46 C 444 -51 457 -60 467 -72 C 477 -84 485 -100 490 -120 C 495 -140 498 -166 498 -197 C 498 -229 495 -257 491 -280 C 487 -302 478 -321 466 -335 C 453 -349 435 -359 412 -365 C 389 -371 359 -375 322 -375 Z" unicode="ş" />
<glyph horiz-adv-x="723" d="M 362 -8 C 296 -8 242 0 200 17 C 158 33 124 57 100 88 C 76 119 59 157 49 201 C 39 245 33 294 31 348 L 211 371 C 213 323 217 284 222 256 C 227 227 235 205 247 190 C 258 174 273 164 293 159 C 312 154 337 152 367 152 C 396 152 420 155 439 163 C 457 170 472 180 482 193 C 492 205 500 220 504 238 C 508 255 510 274 510 295 C 510 321 505 346 497 368 C 489 390 476 412 458 435 C 440 458 418 483 390 511 C 362 538 329 570 291 608 C 253 642 220 675 190 705 C 160 735 135 766 114 796 C 93 826 77 857 66 889 C 54 921 49 957 49 997 C 49 1095 76 1169 130 1218 C 184 1267 262 1292 362 1292 C 416 1292 462 1286 500 1274 C 538 1262 569 1243 594 1218 C 618 1193 637 1161 649 1123 C 661 1085 670 1039 674 987 L 494 969 C 491 1001 487 1027 483 1048 C 478 1069 471 1086 461 1098 C 451 1110 439 1118 424 1123 C 408 1127 389 1130 365 1130 C 338 1130 316 1127 298 1121 C 280 1115 266 1107 256 1096 C 245 1085 237 1072 233 1056 C 229 1040 227 1021 227 1001 C 227 979 230 959 237 941 C 243 923 254 904 269 884 C 283 864 302 843 326 820 C 349 797 377 770 410 739 C 454 695 494 656 528 622 C 562 588 591 554 615 521 C 639 487 657 453 669 417 C 681 381 688 339 688 293 C 688 245 681 202 669 165 C 657 127 637 96 611 70 C 585 44 551 25 510 12 C 468 -1 419 -8 362 -8 Z M 138 1616 L 283 1616 L 367 1462 L 449 1616 L 590 1616 L 465 1362 L 263 1362 L 138 1616 Z" unicode="Š" />
<glyph horiz-adv-x="600" d="M 301 -8 C 255 -8 217 -3 185 6 C 153 15 126 29 105 49 C 83 69 67 94 56 125 C 44 155 37 192 35 236 L 195 264 C 197 237 200 215 204 198 C 208 181 213 168 220 158 C 227 148 237 142 249 138 C 261 134 277 133 297 133 C 333 133 358 139 372 152 C 386 164 393 187 393 221 C 393 236 389 250 383 263 C 377 275 367 289 354 303 C 340 317 323 332 303 349 C 282 365 257 386 229 410 C 203 428 180 447 159 465 C 138 483 120 503 104 523 C 88 543 76 566 68 590 C 59 614 55 642 55 672 C 55 706 58 737 65 766 C 72 795 85 820 104 842 C 122 863 147 880 179 892 C 211 904 251 911 301 911 C 345 911 382 906 413 897 C 444 888 470 875 490 857 C 510 839 526 816 536 789 C 546 762 553 730 557 694 L 395 670 C 393 686 392 700 390 712 C 388 724 384 734 378 742 C 372 750 363 756 351 760 C 339 764 323 766 303 766 C 272 766 251 759 240 746 C 228 732 223 712 223 684 C 223 668 225 654 231 642 C 236 629 244 616 255 604 C 265 592 279 579 295 565 C 311 551 331 536 354 520 C 384 496 412 473 438 453 C 463 432 485 411 503 389 C 521 367 534 343 544 317 C 554 291 559 261 559 227 C 559 146 538 87 496 49 C 454 11 389 -8 301 -8 Z M 79 1262 L 224 1262 L 308 1108 L 390 1262 L 531 1262 L 406 1008 L 204 1008 L 79 1262 Z" unicode="š" />
<glyph horiz-adv-x="678" d="M 251 -356 C 269 -353 284 -350 296 -346 C 307 -342 315 -336 321 -328 C 327 -320 330 -311 332 -299 C 334 -287 335 -272 335 -254 L 251 -254 L 251 -70 L 426 -70 L 426 -248 C 426 -276 423 -301 419 -324 C 415 -346 406 -366 394 -382 C 382 -398 364 -410 341 -420 C 318 -429 288 -434 251 -436 L 251 -356 Z M 252 1120 L 18 1120 L 18 1282 L 659 1282 L 659 1120 L 430 1120 L 430 0 L 252 0 L 252 1120 Z" unicode="Ţ" />
<glyph horiz-adv-x="440" d="M 104 -356 C 122 -353 137 -350 149 -346 C 160 -342 168 -336 174 -328 C 180 -320 183 -311 185 -299 C 187 -287 188 -272 188 -254 L 104 -254 L 104 -70 L 279 -70 L 279 -248 C 279 -276 276 -301 272 -324 C 268 -346 259 -366 247 -382 C 235 -398 217 -410 194 -420 C 171 -429 141 -434 104 -436 L 104 -356 Z M 6 897 L 106 897 L 106 1180 L 274 1180 L 274 897 L 399 897 L 399 741 L 274 741 L 274 233 C 274 217 275 203 277 193 C 279 182 284 174 290 168 C 296 162 305 157 316 155 C 326 153 340 152 356 152 L 399 152 L 399 0 L 313 0 C 237 0 184 16 153 50 C 121 83 106 133 106 201 L 106 741 L 6 741 L 6 897 Z" unicode="ţ" />
<glyph horiz-adv-x="678" d="M 252 1120 L 18 1120 L 18 1282 L 659 1282 L 659 1120 L 430 1120 L 430 0 L 252 0 L 252 1120 Z M 115 1618 L 260 1618 L 344 1464 L 426 1618 L 567 1618 L 442 1364 L 240 1364 L 115 1618 Z" unicode="Ť" />
<glyph horiz-adv-x="440" d="M 333 1059 C 351 1061 366 1065 378 1069 C 389 1073 397 1078 403 1086 C 409 1094 412 1104 414 1116 C 416 1128 417 1143 417 1161 L 333 1161 L 333 1345 L 508 1345 L 508 1167 C 508 1139 505 1113 501 1091 C 497 1068 488 1049 476 1033 C 464 1017 446 1004 423 995 C 400 985 370 980 333 979 L 333 1059 Z M 6 897 L 106 897 L 106 1180 L 274 1180 L 274 897 L 399 897 L 399 741 L 274 741 L 274 233 C 274 217 275 203 277 193 C 279 182 284 174 290 168 C 296 162 305 157 316 155 C 326 153 340 152 356 152 L 399 152 L 399 0 L 313 0 C 237 0 184 16 153 50 C 121 83 106 133 106 201 L 106 741 L 6 741 L 6 897 Z" unicode="ť" />
<glyph horiz-adv-x="774" d="M 389 -8 C 333 -8 284 -1 243 10 C 202 22 168 43 142 71 C 115 99 95 135 82 180 C 69 224 63 279 63 344 L 63 1282 L 242 1282 L 242 352 C 242 312 244 280 250 254 C 255 228 263 207 275 192 C 286 176 301 165 320 159 C 338 153 361 150 389 150 C 413 150 435 153 453 159 C 471 165 487 176 499 192 C 511 207 521 227 527 253 C 533 279 537 311 537 350 L 537 1282 L 711 1282 L 711 346 C 711 281 704 226 692 181 C 680 136 661 100 635 72 C 609 44 575 23 535 11 C 494 -1 445 -8 389 -8 Z M 162 1505 L 614 1505 L 614 1364 L 162 1364 L 162 1505 Z" unicode="Ū" />
<glyph horiz-adv-x="655" d="M 244 -8 C 201 -8 167 -2 142 8 C 116 19 97 35 83 56 C 69 77 61 102 57 132 C 53 162 51 195 51 233 L 51 897 L 217 897 L 217 256 C 217 216 224 187 238 169 C 252 151 276 143 311 143 C 331 143 349 144 364 148 C 378 151 390 158 400 168 C 410 178 417 193 421 212 C 425 231 428 257 430 289 L 430 897 L 598 897 L 598 0 L 430 0 L 430 61 C 407 40 380 23 350 11 C 319 -1 284 -8 244 -8 Z M 103 1149 L 555 1149 L 555 1008 L 103 1008 L 103 1149 Z" unicode="ū" />
<glyph horiz-adv-x="774" d="M 389 -8 C 333 -8 284 -1 243 10 C 202 22 168 43 142 71 C 115 99 95 135 82 180 C 69 224 63 279 63 344 L 63 1282 L 242 1282 L 242 352 C 242 312 244 280 250 254 C 255 228 263 207 275 192 C 286 176 301 165 320 159 C 338 153 361 150 389 150 C 413 150 435 153 453 159 C 471 165 487 176 499 192 C 511 207 521 227 527 253 C 533 279 537 311 537 350 L 537 1282 L 711 1282 L 711 346 C 711 281 704 226 692 181 C 680 136 661 100 635 72 C 609 44 575 23 535 11 C 494 -1 445 -8 389 -8 Z M 389 1362 C 353 1362 324 1366 303 1376 C 282 1386 266 1399 255 1415 C 243 1431 236 1450 233 1472 C 229 1494 228 1516 228 1540 C 228 1563 229 1585 233 1607 C 236 1628 243 1647 255 1663 C 266 1679 282 1691 303 1701 C 324 1711 353 1716 389 1716 C 425 1716 453 1711 475 1701 C 496 1691 512 1679 524 1663 C 535 1647 542 1628 546 1607 C 549 1585 551 1563 551 1540 C 551 1516 549 1494 546 1472 C 542 1450 535 1431 524 1415 C 512 1399 496 1386 475 1376 C 453 1366 425 1362 389 1362 Z M 389 1452 C 405 1452 417 1454 426 1458 C 434 1462 441 1469 445 1477 C 449 1485 451 1494 452 1505 C 452 1515 453 1527 453 1540 C 453 1552 452 1563 452 1574 C 451 1584 449 1594 445 1602 C 441 1610 434 1616 426 1621 C 417 1625 405 1628 389 1628 C 373 1628 360 1625 352 1621 C 344 1616 338 1610 334 1602 C 330 1594 327 1584 327 1574 C 326 1563 326 1552 326 1540 C 326 1527 326 1515 327 1505 C 327 1494 330 1485 334 1477 C 338 1469 344 1462 352 1458 C 360 1454 373 1452 389 1452 Z" unicode="Ů" />
<glyph horiz-adv-x="655" d="M 244 -8 C 201 -8 167 -2 142 8 C 116 19 97 35 83 56 C 69 77 61 102 57 132 C 53 162 51 195 51 233 L 51 897 L 217 897 L 217 256 C 217 216 224 187 238 169 C 252 151 276 143 311 143 C 331 143 349 144 364 148 C 378 151 390 158 400 168 C 410 178 417 193 421 212 C 425 231 428 257 430 289 L 430 897 L 598 897 L 598 0 L 430 0 L 430 61 C 407 40 380 23 350 11 C 319 -1 284 -8 244 -8 Z M 328 1006 C 292 1006 263 1010 242 1020 C 221 1030 205 1043 194 1059 C 182 1075 175 1094 172 1116 C 168 1138 167 1160 167 1184 C 167 1207 168 1229 172 1251 C 175 1272 182 1291 194 1307 C 205 1323 221 1335 242 1345 C 263 1355 292 1360 328 1360 C 364 1360 392 1355 414 1345 C 435 1335 451 1323 463 1307 C 474 1291 481 1272 485 1251 C 488 1229 490 1207 490 1184 C 490 1160 488 1138 485 1116 C 481 1094 474 1075 463 1059 C 451 1043 435 1030 414 1020 C 392 1010 364 1006 328 1006 Z M 328 1096 C 344 1096 356 1098 365 1102 C 373 1106 380 1113 384 1121 C 388 1129 390 1138 391 1149 C 391 1159 392 1171 392 1184 C 392 1196 391 1207 391 1218 C 390 1228 388 1238 384 1246 C 380 1254 373 1260 365 1265 C 356 1269 344 1272 328 1272 C 312 1272 299 1269 291 1265 C 283 1260 277 1254 273 1246 C 269 1238 266 1228 266 1218 C 265 1207 265 1196 265 1184 C 265 1171 265 1159 266 1149 C 266 1138 269 1129 273 1121 C 277 1113 283 1106 291 1102 C 299 1098 312 1096 328 1096 Z" unicode="ů" />
<glyph horiz-adv-x="774" d="M 389 -8 C 333 -8 284 -1 243 10 C 202 22 168 43 142 71 C 115 99 95 135 82 180 C 69 224 63 279 63 344 L 63 1282 L 242 1282 L 242 352 C 242 312 244 280 250 254 C 255 228 263 207 275 192 C 286 176 301 165 320 159 C 338 153 361 150 389 150 C 413 150 435 153 453 159 C 471 165 487 176 499 192 C 511 207 521 227 527 253 C 533 279 537 311 537 350 L 537 1282 L 711 1282 L 711 346 C 711 281 704 226 692 181 C 680 136 661 100 635 72 C 609 44 575 23 535 11 C 494 -1 445 -8 389 -8 Z M 264 1638 L 430 1638 L 307 1364 L 168 1364 L 264 1638 Z M 526 1638 L 692 1638 L 569 1364 L 430 1364 L 526 1638 Z" unicode="Ű" />
<glyph horiz-adv-x="655" d="M 244 -8 C 201 -8 167 -2 142 8 C 116 19 97 35 83 56 C 69 77 61 102 57 132 C 53 162 51 195 51 233 L 51 897 L 217 897 L 217 256 C 217 216 224 187 238 169 C 252 151 276 143 311 143 C 331 143 349 144 364 148 C 378 151 390 158 400 168 C 410 178 417 193 421 212 C 425 231 428 257 430 289 L 430 897 L 598 897 L 598 0 L 430 0 L 430 61 C 407 40 380 23 350 11 C 319 -1 284 -8 244 -8 Z M 193 1282 L 359 1282 L 236 1008 L 97 1008 L 193 1282 Z M 455 1282 L 621 1282 L 498 1008 L 359 1008 L 455 1282 Z" unicode="ű" />
<glyph horiz-adv-x="774" d="M 421 -305 C 391 -305 365 -302 343 -297 C 321 -291 304 -282 290 -270 C 276 -257 266 -240 260 -220 C 254 -199 251 -173 251 -143 C 251 -121 253 -102 257 -85 C 261 -68 268 -52 276 -38 C 284 -24 294 -10 306 2 C 318 14 333 27 349 41 L 480 41 C 459 21 442 4 429 -10 C 416 -25 406 -39 399 -53 C 391 -66 386 -79 384 -93 C 381 -106 380 -121 380 -137 C 380 -161 382 -178 388 -187 C 393 -196 406 -201 427 -201 C 437 -201 445 -200 452 -199 C 459 -197 465 -194 470 -190 C 474 -186 478 -180 481 -172 C 484 -164 487 -154 490 -141 L 611 -176 C 603 -197 596 -216 588 -232 C 580 -248 569 -262 555 -273 C 541 -283 524 -291 503 -297 C 482 -302 455 -305 421 -305 Z M 389 -8 C 333 -8 284 -1 243 10 C 202 22 168 43 142 71 C 115 99 95 135 82 180 C 69 224 63 279 63 344 L 63 1282 L 242 1282 L 242 352 C 242 312 244 280 250 254 C 255 228 263 207 275 192 C 286 176 301 165 320 159 C 338 153 361 150 389 150 C 413 150 435 153 453 159 C 471 165 487 176 499 192 C 511 207 521 227 527 253 C 533 279 537 311 537 350 L 537 1282 L 711 1282 L 711 346 C 711 281 704 226 692 181 C 680 136 661 100 635 72 C 609 44 575 23 535 11 C 494 -1 445 -8 389 -8 Z" unicode="Ų" />
<glyph horiz-adv-x="655" d="M 522 -305 C 492 -305 466 -302 445 -297 C 423 -291 406 -282 392 -270 C 378 -257 369 -240 363 -220 C 357 -199 354 -173 354 -143 C 354 -121 356 -102 360 -85 C 364 -68 370 -52 378 -38 C 386 -24 397 -10 409 2 C 421 14 435 27 451 41 L 582 41 C 561 21 544 4 531 -10 C 518 -25 508 -39 500 -53 C 492 -66 487 -79 485 -93 C 482 -106 481 -121 481 -137 C 481 -161 483 -178 489 -187 C 494 -196 507 -201 528 -201 C 538 -201 546 -200 553 -199 C 560 -197 566 -194 571 -190 C 576 -186 580 -180 584 -172 C 587 -164 590 -154 594 -141 L 713 -176 C 705 -197 698 -216 690 -232 C 682 -248 671 -262 657 -273 C 643 -283 626 -291 605 -297 C 583 -302 556 -305 522 -305 Z M 244 -8 C 201 -8 167 -2 142 8 C 116 19 97 35 83 56 C 69 77 61 102 57 132 C 53 162 51 195 51 233 L 51 897 L 217 897 L 217 256 C 217 216 224 187 238 169 C 252 151 276 143 311 143 C 331 143 349 144 364 148 C 378 151 390 158 400 168 C 410 178 417 193 421 212 C 425 231 428 257 430 289 L 430 897 L 598 897 L 598 0 L 430 0 L 430 61 C 407 40 380 23 350 11 C 319 -1 284 -8 244 -8 Z" unicode="ų" />
<glyph horiz-adv-x="735" d="M 279 518 L 16 1282 L 201 1282 L 369 760 L 543 1282 L 719 1282 L 455 518 L 455 0 L 279 0 L 279 518 Z M 162 1552 L 320 1552 L 320 1362 L 162 1362 L 162 1552 Z M 418 1552 L 578 1552 L 578 1362 L 418 1362 L 418 1552 Z" unicode="Ÿ" />
<glyph horiz-adv-x="629" d="M 27 147 L 401 1120 L 33 1120 L 33 1282 L 596 1282 L 596 1130 L 221 160 L 602 160 L 602 0 L 27 0 L 27 147 Z M 336 1618 L 519 1618 L 390 1364 L 234 1364 L 336 1618 Z" unicode="Ź" />
<glyph horiz-adv-x="551" d="M 37 141 L 307 741 L 49 741 L 49 897 L 500 897 L 500 752 L 229 152 L 514 152 L 514 0 L 37 0 L 37 141 Z M 297 1262 L 480 1262 L 351 1008 L 195 1008 L 297 1262 Z" unicode="ź" />
<glyph horiz-adv-x="629" d="M 27 147 L 401 1120 L 33 1120 L 33 1282 L 596 1282 L 596 1130 L 221 160 L 602 160 L 602 0 L 27 0 L 27 147 Z M 230 1560 L 404 1560 L 404 1364 L 230 1364 L 230 1560 Z" unicode="Ż" />
<glyph horiz-adv-x="551" d="M 37 141 L 307 741 L 49 741 L 49 897 L 500 897 L 500 752 L 229 152 L 514 152 L 514 0 L 37 0 L 37 141 Z M 191 1204 L 365 1204 L 365 1008 L 191 1008 L 191 1204 Z" unicode="ż" />
<glyph horiz-adv-x="629" d="M 27 147 L 401 1120 L 33 1120 L 33 1282 L 596 1282 L 596 1130 L 221 160 L 602 160 L 602 0 L 27 0 L 27 147 Z M 93 1616 L 238 1616 L 322 1462 L 404 1616 L 545 1616 L 420 1362 L 218 1362 L 93 1616 Z" unicode="Ž" />
<glyph horiz-adv-x="551" d="M 37 141 L 307 741 L 49 741 L 49 897 L 500 897 L 500 752 L 229 152 L 514 152 L 514 0 L 37 0 L 37 141 Z M 54 1262 L 199 1262 L 283 1108 L 365 1262 L 506 1262 L 381 1008 L 179 1008 L 54 1262 Z" unicode="ž" />
<glyph horiz-adv-x="500" d="M 59 780 L 158 780 L 158 1077 C 158 1144 173 1195 204 1230 C 235 1264 289 1282 365 1282 L 449 1282 L 449 1130 L 406 1130 C 390 1130 377 1128 367 1126 C 357 1124 349 1120 343 1114 C 337 1108 332 1099 330 1089 C 327 1078 326 1065 326 1049 L 326 780 L 449 780 L 449 623 L 326 623 L 326 -324 L 158 -324 L 158 623 L 59 623 L 59 780 Z" unicode="ƒ" />
<glyph horiz-adv-x="481" d="M 358 1282 L 518 1282 L 123 0 L -37 0 L 358 1282 Z" unicode="⁄" />
<glyph horiz-adv-x="752" d="M 39 713 L 713 713 L 713 559 L 39 559 L 39 713 Z" unicode="−" />
<glyph horiz-adv-x="481" d="M 358 1282 L 518 1282 L 123 0 L -37 0 L 358 1282 Z" unicode="∕" />
<glyph horiz-adv-x="723" d="M 273 -356 C 291 -353 306 -350 318 -346 C 329 -342 337 -336 343 -328 C 349 -320 352 -311 354 -299 C 356 -287 357 -272 357 -254 L 273 -254 L 273 -70 L 448 -70 L 448 -248 C 448 -276 445 -301 441 -324 C 437 -346 428 -366 416 -382 C 404 -398 386 -410 363 -420 C 340 -429 310 -434 273 -436 L 273 -356 Z M 362 -8 C 296 -8 242 0 200 17 C 158 33 124 57 100 88 C 76 119 59 157 49 201 C 39 245 33 294 31 348 L 211 371 C 213 323 217 284 222 256 C 227 227 235 205 247 190 C 258 174 273 164 293 159 C 312 154 337 152 367 152 C 396 152 420 155 439 163 C 457 170 472 180 482 193 C 492 205 500 220 504 238 C 508 255 510 274 510 295 C 510 321 505 346 497 368 C 489 390 476 412 458 435 C 440 458 418 483 390 511 C 362 538 329 570 291 608 C 253 642 220 675 190 705 C 160 735 135 766 114 796 C 93 826 77 857 66 889 C 54 921 49 957 49 997 C 49 1095 76 1169 130 1218 C 184 1267 262 1292 362 1292 C 416 1292 462 1286 500 1274 C 538 1262 569 1243 594 1218 C 618 1193 637 1161 649 1123 C 661 1085 670 1039 674 987 L 494 969 C 491 1001 487 1027 483 1048 C 478 1069 471 1086 461 1098 C 451 1110 439 1118 424 1123 C 408 1127 389 1130 365 1130 C 338 1130 316 1127 298 1121 C 280 1115 266 1107 256 1096 C 245 1085 237 1072 233 1056 C 229 1040 227 1021 227 1001 C 227 979 230 959 237 941 C 243 923 254 904 269 884 C 283 864 302 843 326 820 C 349 797 377 770 410 739 C 454 695 494 656 528 622 C 562 588 591 554 615 521 C 639 487 657 453 669 417 C 681 381 688 339 688 293 C 688 245 681 202 669 165 C 657 127 637 96 611 70 C 585 44 551 25 510 12 C 468 -1 419 -8 362 -8 Z" unicode="Ș" />
<glyph horiz-adv-x="305" d="M 59 768 L 246 768 L 246 557 L 59 557 L 59 768 Z" unicode="∙" />
<glyph horiz-adv-x="678" d="M 251 -356 C 269 -353 284 -350 296 -346 C 307 -342 315 -336 321 -328 C 327 -320 330 -311 332 -299 C 334 -287 335 -272 335 -254 L 251 -254 L 251 -70 L 426 -70 L 426 -248 C 426 -276 423 -301 419 -324 C 415 -346 406 -366 394 -382 C 382 -398 364 -410 341 -420 C 318 -429 288 -434 251 -436 L 251 -356 Z M 252 1120 L 18 1120 L 18 1282 L 659 1282 L 659 1120 L 430 1120 L 430 0 L 252 0 L 252 1120 Z" unicode="Ț" />
<glyph horiz-adv-x="440" d="M 104 -356 C 122 -353 137 -350 149 -346 C 160 -342 168 -336 174 -328 C 180 -320 183 -311 185 -299 C 187 -287 188 -272 188 -254 L 104 -254 L 104 -70 L 279 -70 L 279 -248 C 279 -276 276 -301 272 -324 C 268 -346 259 -366 247 -382 C 235 -398 217 -410 194 -420 C 171 -429 141 -434 104 -436 L 104 -356 Z M 6 897 L 106 897 L 106 1180 L 274 1180 L 274 897 L 399 897 L 399 741 L 274 741 L 274 233 C 274 217 275 203 277 193 C 279 182 284 174 290 168 C 296 162 305 157 316 155 C 326 153 340 152 356 152 L 399 152 L 399 0 L 313 0 C 237 0 184 16 153 50 C 121 83 106 133 106 201 L 106 741 L 6 741 L 6 897 Z" unicode="ț" />
<glyph horiz-adv-x="1262" d="M 938 301 C 875 301 819 318 770 354 C 721 390 673 441 626 507 C 604 474 581 445 559 419 C 536 393 513 372 489 355 C 465 337 439 324 413 315 C 387 305 358 301 328 301 C 277 301 233 306 196 318 C 159 330 128 349 104 375 C 80 401 62 435 50 478 C 38 520 33 573 33 635 C 33 695 38 747 50 789 C 62 831 80 866 104 892 C 128 918 158 937 194 949 C 230 961 274 967 324 967 C 356 967 385 962 413 953 C 441 943 467 930 493 913 C 518 895 542 874 566 848 C 590 822 613 794 637 762 C 659 794 681 823 704 849 C 726 874 750 895 774 913 C 798 930 823 943 849 953 C 875 962 904 967 934 967 C 984 967 1028 961 1065 949 C 1102 937 1133 919 1157 893 C 1181 867 1199 832 1211 790 C 1223 748 1229 696 1229 635 C 1229 573 1223 521 1212 479 C 1200 436 1183 401 1159 375 C 1135 349 1104 330 1068 318 C 1031 306 988 301 938 301 Z M 326 444 C 346 444 366 448 385 458 C 404 468 422 481 440 498 C 458 515 475 535 493 558 C 511 581 529 606 549 633 C 529 659 511 684 493 708 C 475 731 457 751 439 769 C 421 786 402 800 383 810 C 363 820 343 825 322 825 C 296 825 274 821 257 815 C 239 808 225 797 215 782 C 205 767 198 747 194 723 C 190 699 188 669 188 635 C 188 599 190 568 194 544 C 198 520 206 500 217 485 C 227 470 241 459 259 453 C 277 447 299 444 326 444 Z M 940 444 C 966 444 987 447 1005 454 C 1022 460 1036 471 1046 486 C 1056 501 1064 521 1068 545 C 1072 569 1075 599 1075 635 C 1075 670 1072 700 1068 724 C 1063 748 1055 767 1045 782 C 1034 797 1020 808 1002 815 C 984 821 962 825 936 825 C 914 825 894 820 876 810 C 857 800 839 786 821 769 C 803 752 786 732 768 710 C 750 687 733 663 715 637 C 733 609 751 584 769 561 C 787 537 805 517 823 500 C 841 482 860 469 879 459 C 898 449 918 444 940 444 Z" unicode="∞" />
<glyph horiz-adv-x="752" d="M 59 684 C 59 764 69 821 90 856 C 110 891 145 909 195 909 C 217 909 244 904 276 895 C 308 885 341 875 374 864 C 407 853 438 843 466 834 C 494 825 514 821 528 821 C 534 821 539 821 543 823 C 547 825 551 829 554 835 C 556 841 558 850 559 862 C 560 874 561 890 561 911 L 692 911 C 692 877 690 847 687 819 C 684 791 678 768 669 748 C 659 728 646 713 630 702 C 613 691 591 686 563 686 C 548 686 531 688 511 692 C 491 696 470 702 448 709 C 426 715 403 723 381 731 C 358 739 337 746 317 753 C 297 759 278 765 262 769 C 246 773 233 776 225 776 C 219 776 213 774 209 772 C 205 770 201 765 198 759 C 195 752 193 743 192 731 C 190 719 190 703 190 684 L 59 684 Z M 59 369 C 59 448 69 505 90 541 C 110 576 145 594 195 594 C 217 594 244 589 276 580 C 308 570 341 560 374 549 C 407 538 438 528 466 519 C 494 510 514 506 528 506 C 534 506 539 506 543 508 C 547 510 551 514 554 520 C 556 526 558 535 559 547 C 560 559 561 575 561 596 L 692 596 C 692 562 690 532 687 504 C 684 476 678 453 669 433 C 659 413 646 398 630 387 C 613 376 591 371 563 371 C 548 371 531 373 511 377 C 491 381 470 387 448 394 C 426 400 403 408 381 416 C 358 424 337 431 317 438 C 297 444 278 450 262 454 C 246 458 233 461 225 461 C 219 461 213 459 209 457 C 205 455 201 450 198 444 C 195 437 193 428 192 416 C 190 404 190 388 190 369 L 59 369 Z" unicode="≈" />
<glyph horiz-adv-x="1057" d="M 469 741 L 279 741 L 279 0 L 113 0 L 113 741 L 12 741 L 12 897 L 113 897 L 113 1108 C 113 1142 116 1171 123 1197 C 130 1222 142 1243 158 1261 C 174 1278 195 1291 221 1300 C 247 1308 279 1313 317 1313 L 381 1313 L 381 1161 L 360 1161 C 328 1161 307 1155 296 1144 C 284 1133 279 1111 279 1079 L 279 897 L 469 897 L 469 1108 C 469 1175 484 1226 515 1261 C 546 1295 600 1313 676 1313 L 748 1313 L 748 1161 L 719 1161 C 703 1161 689 1159 679 1157 C 668 1155 660 1151 654 1145 C 648 1139 643 1130 641 1120 C 638 1109 637 1095 637 1079 L 637 897 L 748 897 L 748 741 L 637 741 L 637 0 L 469 0 L 469 741 Z M 827 1313 L 995 1313 L 995 0 L 827 0 L 827 1313 Z" unicode="ﬄ" />
<glyph horiz-adv-x="752" d="M 139 395 L 59 395 L 59 543 L 242 543 L 350 717 L 59 717 L 59 862 L 434 862 L 526 1004 L 692 1004 L 600 862 L 692 862 L 692 717 L 500 717 L 389 543 L 692 543 L 692 395 L 305 395 L 225 270 L 59 270 L 139 395 Z" unicode="≠" />
<glyph horiz-adv-x="745" d="M 88 152 L 618 152 L 618 0 L 88 0 L 88 152 Z M 88 557 L 88 715 L 618 1006 L 618 846 L 240 633 L 618 426 L 618 264 L 88 557 Z" unicode="≤" />
<glyph horiz-adv-x="745" d="M 123 152 L 653 152 L 653 0 L 123 0 L 123 152 Z M 125 426 L 504 633 L 125 846 L 125 1006 L 655 715 L 655 557 L 125 264 L 125 426 Z" unicode="≥" />
<glyph horiz-adv-x="639" d="M 319 381 C 239 381 180 400 141 440 C 101 480 82 545 82 635 L 82 1044 C 82 1082 86 1117 95 1147 C 104 1177 118 1203 137 1224 C 156 1245 181 1261 211 1273 C 241 1284 277 1290 319 1290 C 362 1290 399 1284 429 1274 C 459 1263 484 1247 504 1227 C 523 1206 537 1181 546 1151 C 554 1121 559 1087 559 1049 L 559 637 C 559 591 554 552 544 520 C 534 488 520 461 500 441 C 480 420 455 405 425 395 C 395 385 359 381 319 381 Z M 319 518 C 333 518 345 519 356 523 C 367 527 376 533 384 543 C 392 552 398 564 402 580 C 406 596 408 616 408 641 L 408 1040 C 408 1080 400 1108 386 1125 C 371 1142 349 1151 319 1151 C 290 1151 268 1141 253 1123 C 238 1105 231 1076 231 1036 L 231 639 C 231 615 233 595 237 579 C 241 563 247 551 255 542 C 263 533 272 527 283 523 C 293 519 305 518 319 518 Z" unicode="⁰" />
<glyph horiz-adv-x="633" d="M 336 578 L 49 578 L 49 715 L 324 1282 L 481 1282 L 481 715 L 573 715 L 573 578 L 481 578 L 481 387 L 336 387 L 336 578 Z M 336 713 L 336 1019 L 188 713 L 336 713 Z" unicode="⁴" />
<glyph horiz-adv-x="612" d="M 309 377 C 262 377 224 383 194 395 C 164 407 141 424 123 447 C 105 470 92 498 84 530 C 76 562 70 599 66 641 L 215 662 C 217 632 220 608 223 590 C 226 571 231 556 238 545 C 244 534 253 526 264 522 C 274 518 289 516 307 516 C 324 516 338 518 350 524 C 361 529 370 537 376 549 C 382 560 387 574 389 592 C 391 609 393 630 393 655 L 393 754 C 393 797 388 830 378 852 C 368 874 347 885 313 885 C 290 885 271 882 256 877 C 241 872 228 858 217 836 L 90 854 L 117 1282 L 510 1282 L 510 1147 L 244 1147 L 234 987 C 249 997 267 1004 287 1009 C 307 1013 328 1016 352 1016 C 391 1016 423 1010 448 999 C 473 987 493 970 507 948 C 521 925 531 897 537 863 C 542 829 545 789 545 743 L 545 641 C 545 599 541 561 533 529 C 525 496 512 468 494 446 C 476 423 451 406 421 394 C 391 382 353 377 309 377 Z" unicode="⁵" />
<glyph horiz-adv-x="629" d="M 317 381 C 235 381 176 400 138 439 C 100 478 82 543 82 633 L 82 1044 C 82 1080 86 1114 94 1144 C 102 1174 115 1199 133 1221 C 151 1243 176 1260 206 1272 C 236 1284 274 1290 319 1290 C 355 1290 387 1285 414 1277 C 440 1269 463 1257 481 1242 C 499 1227 513 1209 523 1188 C 533 1167 541 1144 547 1118 L 393 1083 C 391 1095 389 1106 387 1115 C 384 1123 380 1130 374 1136 C 368 1142 360 1146 350 1149 C 340 1151 328 1153 313 1153 C 296 1153 282 1150 271 1145 C 260 1139 251 1132 245 1123 C 239 1113 234 1102 232 1089 C 230 1075 229 1060 229 1044 L 229 958 C 244 976 262 990 282 998 C 302 1006 327 1010 358 1010 C 423 1010 472 990 505 950 C 538 910 555 844 555 754 L 555 637 C 555 549 536 484 500 443 C 464 401 403 381 317 381 Z M 317 516 C 335 516 349 518 361 523 C 372 528 381 536 387 546 C 393 556 397 569 399 585 C 401 601 403 619 403 641 L 403 752 C 403 776 402 797 400 813 C 398 829 394 842 388 852 C 382 862 373 869 362 873 C 350 877 335 879 317 879 C 301 879 287 877 276 873 C 264 869 255 862 248 852 C 241 842 236 829 233 813 C 230 797 229 776 229 752 L 229 641 C 229 616 230 596 233 580 C 236 564 241 551 248 541 C 255 531 264 525 276 521 C 287 517 301 516 317 516 Z" unicode="⁶" />
<glyph horiz-adv-x="766" d="M 283 1262 L 485 1262 L 610 1008 L 465 1008 L 381 1161 L 299 1008 L 158 1008 L 283 1262 Z" unicode="ˆ" />
<glyph horiz-adv-x="766" d="M 158 1262 L 303 1262 L 387 1108 L 469 1262 L 610 1262 L 485 1008 L 283 1008 L 158 1262 Z" unicode="ˇ" />
<glyph horiz-adv-x="524" d="M 311 1141 L 45 1141 L 45 1282 L 465 1282 L 465 1149 L 262 387 L 111 387 L 311 1141 Z" unicode="⁷" />
<glyph horiz-adv-x="657" d="M 328 381 C 284 381 247 385 216 395 C 185 405 160 419 140 437 C 120 455 105 478 96 506 C 86 533 82 564 82 600 L 82 690 C 82 734 89 770 105 799 C 121 828 144 851 174 867 C 147 882 126 902 112 928 C 97 953 90 986 90 1026 L 90 1087 C 90 1222 169 1290 328 1290 C 408 1290 468 1273 508 1241 C 548 1209 569 1158 569 1090 L 569 1026 C 569 986 561 954 546 929 C 531 903 511 883 485 869 C 515 853 538 830 554 802 C 570 774 578 738 578 694 L 578 602 C 578 531 558 476 519 438 C 479 400 416 381 328 381 Z M 328 512 C 367 512 394 519 408 535 C 422 550 430 576 430 612 L 430 698 C 430 715 428 730 426 744 C 423 758 418 769 410 779 C 402 789 392 796 379 801 C 365 806 348 809 328 809 C 308 809 292 806 279 801 C 266 795 256 788 249 778 C 241 768 236 757 233 743 C 230 729 229 713 229 696 L 229 612 C 229 576 236 550 250 535 C 264 519 290 512 328 512 Z M 328 926 C 362 926 386 933 401 947 C 416 961 424 986 424 1020 L 424 1067 C 424 1101 416 1125 402 1138 C 388 1150 363 1157 328 1157 C 294 1157 270 1150 256 1138 C 242 1125 236 1101 236 1067 L 236 1020 C 236 986 243 961 257 947 C 271 933 294 926 328 926 Z" unicode="⁸" />
<glyph horiz-adv-x="629" d="M 309 381 C 272 381 240 385 214 393 C 188 401 166 413 148 428 C 130 443 115 461 105 483 C 94 504 86 527 82 553 L 236 588 C 238 576 240 565 243 556 C 245 547 249 540 255 534 C 261 528 268 523 278 520 C 288 517 301 516 317 516 C 349 516 371 525 382 545 C 393 565 399 591 399 623 L 399 713 C 383 693 366 680 347 673 C 328 665 303 662 272 662 C 238 662 209 666 185 676 C 160 685 140 700 124 720 C 108 740 96 767 88 799 C 80 831 76 869 76 915 L 76 1034 C 76 1122 94 1186 130 1228 C 166 1269 227 1290 313 1290 C 353 1290 388 1285 418 1276 C 448 1266 472 1252 491 1232 C 510 1212 524 1186 533 1154 C 542 1122 547 1083 547 1038 L 547 627 C 547 590 543 557 535 527 C 527 497 513 471 495 449 C 476 427 451 411 421 399 C 391 387 353 381 309 381 Z M 313 788 C 329 788 343 790 354 794 C 365 798 374 804 381 814 C 387 824 392 837 395 853 C 397 869 399 890 399 915 L 399 1026 C 399 1050 397 1071 395 1088 C 392 1104 387 1117 381 1127 C 374 1136 365 1143 354 1147 C 343 1151 329 1153 313 1153 C 295 1153 280 1150 268 1145 C 256 1140 247 1132 241 1122 C 235 1112 230 1099 228 1083 C 226 1067 225 1048 225 1026 L 225 915 C 225 890 226 869 228 853 C 230 837 234 824 240 814 C 246 804 255 798 267 794 C 279 790 294 788 313 788 Z" unicode="⁹" />
<glyph horiz-adv-x="791" d="M 383 1008 C 330 1008 288 1014 258 1028 C 227 1042 204 1061 188 1085 C 172 1109 162 1138 158 1172 C 154 1206 152 1242 152 1282 L 309 1282 C 309 1256 310 1233 311 1215 C 312 1196 315 1181 320 1169 C 324 1157 331 1149 341 1143 C 351 1137 365 1135 383 1135 C 401 1135 416 1137 426 1143 C 436 1149 443 1157 448 1169 C 452 1181 455 1196 456 1215 C 457 1233 458 1256 459 1282 L 616 1282 C 616 1242 613 1206 609 1172 C 605 1138 595 1109 579 1085 C 563 1061 539 1042 508 1028 C 477 1014 435 1008 383 1008 Z" unicode="˘" />
<glyph horiz-adv-x="934" d="M 381 1204 L 555 1204 L 555 1008 L 381 1008 L 381 1204 Z" unicode="˙" />
<glyph horiz-adv-x="1057" d="M 528 1006 C 492 1006 463 1010 442 1020 C 421 1030 405 1043 394 1059 C 382 1075 375 1094 372 1116 C 368 1138 367 1160 367 1184 C 367 1207 368 1229 372 1251 C 375 1272 382 1291 394 1307 C 405 1323 421 1335 442 1345 C 463 1355 492 1360 528 1360 C 564 1360 592 1355 614 1345 C 635 1335 651 1323 663 1307 C 674 1291 681 1272 685 1251 C 688 1229 690 1207 690 1184 C 690 1160 688 1138 685 1116 C 681 1094 674 1075 663 1059 C 651 1043 635 1030 614 1020 C 592 1010 564 1006 528 1006 Z M 528 1096 C 544 1096 556 1098 565 1102 C 573 1106 580 1113 584 1121 C 588 1129 590 1138 591 1149 C 591 1159 592 1171 592 1184 C 592 1196 591 1207 591 1218 C 590 1228 588 1238 584 1246 C 580 1254 573 1260 565 1265 C 556 1269 544 1272 528 1272 C 512 1272 499 1269 491 1265 C 483 1260 477 1254 473 1246 C 469 1238 466 1228 466 1218 C 465 1207 465 1196 465 1184 C 465 1171 465 1159 466 1149 C 466 1138 469 1129 473 1121 C 477 1113 483 1106 491 1102 C 499 1098 512 1096 528 1096 Z" unicode="˚" />
<glyph horiz-adv-x="1057" d="M 496 -305 C 466 -305 440 -302 418 -297 C 396 -291 379 -282 365 -270 C 351 -257 341 -240 335 -220 C 329 -199 326 -173 326 -143 C 326 -121 328 -102 332 -85 C 336 -68 343 -52 351 -38 C 359 -24 369 -10 381 2 C 393 14 408 27 424 41 L 555 41 C 534 21 517 4 504 -10 C 491 -25 481 -39 474 -53 C 466 -66 461 -79 459 -93 C 456 -106 455 -121 455 -137 C 455 -161 457 -178 463 -187 C 468 -196 481 -201 502 -201 C 512 -201 520 -200 527 -199 C 534 -197 540 -194 545 -190 C 549 -186 553 -180 556 -172 C 559 -164 562 -154 565 -141 L 686 -176 C 678 -197 671 -216 663 -232 C 655 -248 644 -262 630 -273 C 616 -283 599 -291 578 -297 C 557 -302 530 -305 496 -305 Z" unicode="˛" />
</font>
</defs>
</svg>
